if (_typeface_js && _typeface_js.loadFace) _typeface_js.loadFace({"glyphs":{"0":{"ha":789,"x_min":58,"x_max":731,"o":"m 58 492 q 143 875 58 751 q 393 999 229 999 q 648 874 564 999 q 731 491 731 749 q 644 104 731 225 q 395 -17 557 -17 q 144 103 230 -17 q 58 492 58 224 m 258 477 q 272 279 258 352 q 316 174 286 205 q 393 142 345 142 q 474 175 444 142 q 517 284 504 209 q 531 490 531 360 q 517 702 531 626 q 475 809 504 777 q 397 840 446 840 q 318 811 348 840 q 273 704 288 783 q 258 477 258 625 z "},"1":{"ha":789,"x_min":106,"x_max":559,"o":"m 365 0 l 365 718 q 245 631 314 669 q 106 574 176 593 l 106 746 q 291 847 214 787 q 404 999 368 907 l 559 999 l 559 0 l 365 0 z "},"2":{"ha":789,"x_min":43,"x_max":711,"o":"m 43 0 q 125 214 55 118 q 222 331 168 275 q 357 465 276 387 q 444 549 402 509 q 511 708 511 617 q 479 806 511 771 q 391 840 448 840 q 294 802 326 840 q 256 686 262 764 l 256 685 l 59 704 q 162 926 72 854 q 396 999 252 999 q 564 962 492 999 q 673 862 635 925 q 711 720 711 798 q 689 597 711 656 q 617 475 667 538 q 484 338 568 412 q 332 178 359 226 l 711 178 l 711 0 l 43 0 z "},"3":{"ha":789,"x_min":51,"x_max":723,"o":"m 723 296 q 682 127 723 198 q 565 20 641 57 q 385 -17 489 -17 q 225 15 296 -17 q 109 110 154 47 q 51 264 63 173 l 242 286 q 288 178 251 215 q 384 142 324 142 q 457 163 426 142 q 506 222 489 185 q 523 304 523 260 q 505 381 523 347 q 452 433 486 414 q 373 452 418 452 l 283 452 l 304 598 q 449 631 404 598 q 495 727 495 664 q 464 806 495 777 q 380 836 433 836 q 290 800 326 836 q 248 703 255 764 l 64 734 q 174 929 92 865 q 385 994 256 994 q 545 961 476 994 q 652 870 614 928 q 689 739 689 812 q 650 615 689 670 q 531 528 612 559 q 672 447 622 510 q 723 296 723 385 z "},"4":{"ha":789,"x_min":27,"x_max":749,"o":"m 749 368 l 749 200 l 626 200 l 626 0 l 435 0 l 435 200 l 27 200 l 27 367 l 466 997 l 626 997 l 626 368 l 749 368 m 435 368 l 435 700 l 206 368 l 435 368 z "},"5":{"ha":789,"x_min":54,"x_max":728,"o":"m 324 803 l 295 633 q 427 665 352 665 q 589 622 520 665 q 693 504 657 579 q 728 334 728 429 q 689 160 728 240 q 573 31 650 79 q 388 -17 496 -17 q 228 16 299 -17 q 112 111 157 49 q 54 258 66 173 l 250 277 q 295 178 258 214 q 390 142 333 142 q 463 165 431 142 q 511 232 494 188 q 528 336 528 276 q 491 468 528 423 q 385 513 454 513 q 237 441 294 513 l 237 440 l 79 463 l 176 981 l 684 981 l 684 803 l 324 803 z "},"6":{"ha":789,"x_min":66,"x_max":733,"o":"m 416 840 q 267 562 275 840 q 448 644 331 644 q 595 602 530 644 q 696 486 660 560 q 733 319 733 412 q 692 148 733 224 q 577 27 652 71 q 404 -17 503 -17 q 153 109 240 -17 q 66 484 66 234 q 108 765 66 650 q 231 940 150 880 q 429 999 312 999 q 565 968 505 999 q 665 882 626 938 q 713 751 703 826 l 525 732 q 489 813 515 785 q 416 840 463 840 m 404 498 q 310 458 346 498 q 273 337 273 418 q 310 193 273 243 q 408 142 346 142 q 502 188 466 142 q 538 319 538 234 q 404 498 538 498 z "},"7":{"ha":789,"x_min":66,"x_max":726,"o":"m 490 463 q 395 0 397 233 l 200 0 q 284 419 205 210 q 501 803 363 629 l 66 803 l 66 981 l 726 981 l 726 843 q 490 463 587 702 z "},"8":{"ha":789,"x_min":61,"x_max":728,"o":"m 728 283 q 686 128 728 197 q 569 21 644 60 q 399 -17 494 -17 q 227 20 304 -17 q 105 123 149 56 q 61 277 61 190 q 104 436 61 370 q 228 536 146 502 q 124 618 159 566 q 88 742 88 671 q 124 874 88 816 q 229 966 161 933 q 391 999 298 999 q 551 966 482 999 q 657 876 620 934 q 694 742 694 817 q 659 620 694 673 q 558 536 624 566 q 684 439 641 503 q 728 283 728 374 m 391 846 q 304 813 337 846 q 271 727 271 780 q 304 638 271 670 q 391 607 338 607 q 452 621 425 607 q 495 663 479 635 q 511 729 511 690 q 478 814 511 783 q 391 846 446 846 m 392 454 q 293 410 329 454 q 256 288 256 366 q 274 209 256 243 q 323 155 292 174 q 395 136 355 136 q 497 177 463 136 q 532 286 532 218 q 516 372 532 334 q 468 432 499 410 q 392 454 436 454 z "},"9":{"ha":789,"x_min":62,"x_max":729,"o":"m 379 142 q 529 420 520 142 q 347 338 465 338 q 201 380 266 338 q 99 496 136 422 q 62 663 62 570 q 103 834 62 758 q 218 955 144 911 q 392 999 293 999 q 642 873 555 999 q 729 498 729 748 q 687 217 729 332 q 565 42 646 102 q 367 -17 484 -17 q 230 14 291 -17 q 131 100 170 44 q 82 231 92 156 l 271 250 q 307 169 281 197 q 379 142 333 142 m 391 484 q 486 524 450 484 q 522 645 522 564 q 505 752 522 708 q 458 818 488 796 q 391 840 429 840 q 294 794 330 840 q 258 663 258 748 q 391 484 258 484 z "},"\u0000":{"ha":0,"x_min":0,"x_max":0,"o":""}," ":{"ha":347,"x_min":0,"x_max":0,"o":""},"!":{"ha":463,"x_min":127,"x_max":335,"o":"m 286 257 l 176 257 l 127 760 l 127 994 l 335 994 l 335 760 l 286 257 m 134 0 l 134 195 l 329 195 l 329 0 l 134 0 z "},"\"":{"ha":659,"x_min":61,"x_max":597,"o":"m 237 640 l 97 640 l 61 827 l 61 994 l 269 994 l 269 827 l 237 640 m 565 640 l 425 640 l 389 827 l 389 994 l 597 994 l 597 827 l 565 640 z "},"#":{"ha":772,"x_min":15,"x_max":758,"o":"m 261 1011 l 414 1011 l 361 749 l 513 749 l 566 1011 l 718 1011 l 665 749 l 758 749 l 758 597 l 635 597 l 595 397 l 758 397 l 758 245 l 564 245 l 511 -17 l 359 -17 l 412 245 l 260 245 l 207 -17 l 54 -17 l 107 245 l 15 245 l 15 397 l 138 397 l 178 597 l 15 597 l 15 749 l 208 749 l 261 1011 m 482 597 l 330 597 l 290 397 l 442 397 l 482 597 z "},"$":{"ha":789,"x_min":47,"x_max":729,"o":"m 700 762 l 528 740 q 501 804 522 777 q 438 841 481 830 l 438 585 q 612 506 549 549 q 702 407 675 463 q 729 271 729 351 q 698 145 729 205 q 601 41 667 84 q 438 -12 536 -2 l 438 -139 l 339 -139 l 339 -14 q 140 73 213 -3 q 47 279 68 149 l 224 298 q 261 202 236 243 q 339 147 286 161 l 339 426 q 138 547 201 472 q 75 727 75 621 q 104 856 75 797 q 193 952 134 914 q 339 999 252 991 l 339 1085 l 438 1085 l 438 998 q 617 925 554 987 q 700 762 681 863 m 339 617 l 339 844 q 268 804 290 833 q 245 736 245 774 q 267 669 245 700 q 339 617 289 637 m 438 395 l 438 146 q 529 191 500 157 q 558 268 558 224 q 532 341 558 312 q 438 395 505 371 z "},"%":{"ha":1208,"x_min":46,"x_max":1162,"o":"m 46 732 q 106 939 46 866 q 280 1011 166 1011 q 455 941 396 1011 q 513 736 513 871 q 455 532 513 601 q 283 463 396 463 q 106 531 166 463 q 46 732 46 600 m 273 -17 l 810 1011 l 939 1011 l 408 -17 l 273 -17 m 279 888 q 222 850 239 888 q 206 737 206 812 q 223 623 206 659 q 280 587 239 587 q 337 622 321 587 q 353 737 353 658 q 337 851 353 814 q 279 888 321 888 m 695 253 q 755 459 695 387 q 929 532 815 532 q 1104 461 1045 532 q 1162 257 1162 391 q 1104 52 1162 121 q 932 -17 1045 -17 q 755 52 815 -17 q 695 253 695 121 m 928 408 q 871 370 888 408 q 855 258 855 332 q 872 143 855 180 q 929 107 888 107 q 986 143 970 107 q 1002 258 1002 178 q 986 371 1002 334 q 928 408 970 408 z "},"&":{"ha":996,"x_min":54,"x_max":974,"o":"m 730 478 l 903 439 q 866 324 888 382 q 817 235 843 266 q 894 173 842 210 q 974 122 946 136 l 859 -26 q 696 89 779 13 q 567 7 636 33 q 407 -18 497 -18 q 217 21 297 -18 q 96 126 137 60 q 54 273 54 193 q 110 443 54 366 q 278 576 165 519 q 205 686 231 630 q 179 796 179 742 q 214 907 179 858 q 313 984 250 956 q 457 1011 376 1011 q 596 987 534 1011 q 695 911 659 962 q 732 785 732 861 q 713 700 732 739 q 654 625 694 662 q 546 545 614 588 l 689 364 q 730 478 715 412 m 564 789 q 552 832 564 812 q 516 864 539 852 q 460 876 492 876 q 393 855 420 876 q 366 802 366 833 q 375 764 366 785 q 403 720 385 743 l 448 663 q 535 726 505 695 q 564 789 564 757 m 250 279 q 268 209 250 240 q 319 159 286 177 q 399 140 353 140 q 487 158 446 140 q 575 215 528 175 l 376 454 q 282 377 315 421 q 250 279 250 332 z "},"'":{"ha":330,"x_min":61,"x_max":269,"o":"m 237 640 l 97 640 l 61 827 l 61 994 l 269 994 l 269 827 l 237 640 z "},"(":{"ha":463,"x_min":72,"x_max":415,"o":"m 255 356 q 415 -292 255 39 l 285 -292 q 126 33 180 -134 q 72 361 72 200 q 285 1011 72 705 l 415 1011 q 319 771 353 876 q 270 569 284 667 q 255 356 255 471 z "},")":{"ha":463,"x_min":47,"x_max":391,"o":"m 391 357 q 337 26 391 190 q 178 -292 284 -138 l 47 -292 q 143 -53 109 -157 q 193 151 178 52 q 208 364 208 249 q 169 680 208 519 q 47 1011 130 840 l 178 1011 q 336 687 281 856 q 391 357 391 518 z "},"*":{"ha":541,"x_min":23,"x_max":517,"o":"m 310 829 q 480 904 384 864 l 517 781 q 342 747 394 755 q 461 611 416 670 l 358 542 q 267 693 306 618 q 172 538 223 616 l 69 616 q 125 678 97 650 q 197 747 153 706 q 112 765 180 749 q 23 790 43 781 l 62 909 q 155 867 106 891 q 224 831 203 844 q 207 1011 207 932 l 328 1011 q 324 941 328 980 q 310 829 321 903 z "},"+":{"ha":811,"x_min":58,"x_max":753,"o":"m 753 578 l 753 403 l 493 403 l 493 143 l 318 143 l 318 403 l 58 403 l 58 578 l 318 578 l 318 838 l 493 838 l 493 578 l 753 578 z "},",":{"ha":385,"x_min":80,"x_max":290,"o":"m 119 -222 l 80 -140 q 162 -88 138 -121 q 189 0 187 -55 l 95 0 l 95 195 l 290 195 l 290 47 q 276 -78 290 -29 q 224 -161 261 -127 q 119 -222 187 -196 z "},"-":{"ha":503,"x_min":64,"x_max":438,"o":"m 64 265 l 64 456 l 438 456 l 438 265 l 64 265 z "},".":{"ha":385,"x_min":95,"x_max":290,"o":"m 95 0 l 95 195 l 290 195 l 290 0 l 95 0 z "},"/":{"ha":386,"x_min":-1,"x_max":385,"o":"m -1 -33 l 241 994 l 385 994 l 139 -33 l -1 -33 z "},":":{"ha":411,"x_min":105,"x_max":300,"o":"m 105 524 l 105 720 l 300 720 l 300 524 l 105 524 m 105 0 l 105 195 l 300 195 l 300 0 l 105 0 z "},";":{"ha":411,"x_min":90,"x_max":300,"o":"m 105 524 l 105 720 l 300 720 l 300 524 l 105 524 m 129 -222 l 90 -140 q 173 -88 148 -121 q 199 0 197 -55 l 105 0 l 105 195 l 300 195 l 300 47 q 286 -78 300 -29 q 234 -161 271 -127 q 129 -222 197 -196 z "},"<":{"ha":811,"x_min":65,"x_max":746,"o":"m 746 304 l 746 113 l 65 408 l 65 574 l 746 869 l 746 675 l 271 493 l 746 304 z "},"=":{"ha":811,"x_min":58,"x_max":753,"o":"m 58 554 l 58 729 l 753 729 l 753 554 l 58 554 m 58 253 l 58 428 l 753 428 l 753 253 l 58 253 z "},">":{"ha":811,"x_min":65,"x_max":746,"o":"m 746 407 l 65 113 l 65 306 l 541 489 l 65 676 l 65 869 l 746 572 l 746 407 z "},"?":{"ha":756,"x_min":49,"x_max":694,"o":"m 268 277 q 277 401 268 366 q 319 490 289 445 q 397 574 349 536 q 478 653 454 618 q 503 724 503 689 q 486 793 503 764 q 439 837 469 822 q 375 852 410 852 q 276 811 314 852 q 227 692 239 771 l 49 713 q 99 869 56 803 q 211 972 141 936 q 371 1008 281 1008 q 536 972 463 1008 q 652 872 610 937 q 694 720 694 806 q 680 634 694 671 q 631 557 666 597 q 530 461 597 517 q 471 401 489 427 q 447 350 452 376 q 441 275 441 323 l 441 257 l 268 257 l 268 277 m 257 0 l 257 195 l 452 195 l 452 0 l 257 0 z "},"@":{"ha":1354,"x_min":41,"x_max":1314,"o":"m 688 -292 q 353 -219 500 -292 q 123 -6 206 -146 q 41 328 41 134 q 127 680 41 524 q 370 923 214 836 q 728 1011 526 1011 q 1023 948 890 1011 q 1235 766 1157 884 q 1314 490 1314 648 q 1258 249 1314 361 q 1107 68 1202 136 q 904 0 1013 0 q 804 29 838 0 q 766 109 769 58 q 676 28 730 56 q 569 0 623 0 q 441 37 497 0 q 355 139 386 74 q 324 285 324 204 q 371 514 324 412 q 497 676 418 617 q 672 734 577 734 q 773 710 729 734 q 843 643 818 686 l 860 718 l 1029 718 l 931 248 q 918 174 918 186 q 929 148 918 157 q 954 138 941 138 q 1058 183 1002 138 q 1152 306 1114 227 q 1190 481 1190 385 q 1132 704 1190 610 q 968 846 1074 797 q 725 895 863 895 q 415 820 541 895 q 227 618 289 746 q 164 330 164 490 q 224 70 164 184 q 406 -110 285 -45 q 701 -175 526 -175 q 948 -142 838 -175 q 1128 -56 1057 -109 l 1202 -155 q 988 -257 1112 -222 q 688 -292 865 -292 m 688 596 q 584 548 627 596 q 520 429 541 499 q 499 296 499 359 q 528 181 499 223 q 610 138 557 138 q 712 184 667 138 q 781 309 756 229 q 806 448 806 388 q 777 560 806 524 q 688 596 747 596 z "},"A":{"ha":990,"x_min":3,"x_max":987,"o":"m 768 0 l 682 225 l 298 225 l 216 0 l 3 0 l 390 994 l 589 994 l 987 0 l 768 0 m 441 618 l 359 393 l 618 393 l 534 618 q 506 707 518 661 q 489 781 493 752 l 484 781 q 441 618 471 699 z "},"B":{"ha":956,"x_min":104,"x_max":895,"o":"m 847 734 q 809 609 847 660 q 707 529 771 557 q 847 439 798 503 q 895 289 895 376 q 794 70 895 139 q 543 0 692 0 l 104 0 l 104 994 l 544 994 q 763 933 680 994 q 847 734 847 871 m 652 712 q 610 803 652 779 q 503 826 568 826 l 304 826 l 304 599 l 506 599 q 615 627 578 599 q 652 712 652 656 m 688 295 q 646 395 688 360 q 503 431 604 431 l 304 431 l 304 168 l 508 168 q 595 177 556 168 q 661 213 634 185 q 688 295 688 241 z "},"C":{"ha":1007,"x_min":60,"x_max":951,"o":"m 522 839 q 382 795 440 839 q 296 676 325 752 q 267 501 267 600 q 296 318 267 396 q 383 198 326 240 q 519 155 440 155 q 623 180 575 155 q 704 250 670 204 q 753 357 737 295 l 951 310 q 871 138 928 212 q 726 24 814 64 q 525 -17 637 -17 q 274 45 378 -17 q 115 225 170 108 q 60 505 60 343 q 116 775 60 661 q 278 950 173 889 q 525 1011 383 1011 q 793 938 688 1011 q 940 720 898 864 l 742 672 q 522 839 692 839 z "},"D":{"ha":998,"x_min":104,"x_max":938,"o":"m 938 490 q 829 131 938 262 q 493 0 720 0 l 104 0 l 104 994 l 495 994 q 938 490 938 994 m 730 496 q 703 690 730 618 q 617 794 675 762 q 463 826 559 826 l 304 826 l 304 168 l 465 168 q 622 199 565 168 q 705 301 680 230 q 730 496 730 372 z "},"E":{"ha":850,"x_min":104,"x_max":783,"o":"m 304 826 l 304 599 l 722 599 l 722 431 l 304 431 l 304 168 l 783 168 l 783 0 l 104 0 l 104 994 l 760 994 l 760 826 l 304 826 z "},"F":{"ha":828,"x_min":103,"x_max":771,"o":"m 302 826 l 302 580 l 720 580 l 720 412 l 302 412 l 302 0 l 103 0 l 103 994 l 771 994 l 771 826 l 302 826 z "},"G":{"ha":1056,"x_min":60,"x_max":972,"o":"m 544 839 q 341 755 414 839 q 267 509 267 672 q 299 319 267 399 q 392 198 330 240 q 542 155 454 155 q 666 174 605 155 q 772 229 728 193 l 772 366 l 540 366 l 540 534 l 972 534 l 972 138 q 858 59 926 94 q 708 3 789 24 q 543 -17 626 -17 q 282 48 391 -17 q 116 229 173 113 q 60 500 60 346 q 120 769 60 654 q 290 948 180 885 q 544 1011 400 1011 q 817 938 714 1011 q 960 720 919 865 l 760 682 q 684 799 738 759 q 544 839 629 839 z "},"H":{"ha":1002,"x_min":104,"x_max":897,"o":"m 697 611 l 697 994 l 897 994 l 897 0 l 697 0 l 697 443 l 304 443 l 304 0 l 104 0 l 104 994 l 304 994 l 304 611 l 697 611 z "},"I":{"ha":409,"x_min":104,"x_max":304,"o":"m 104 0 l 104 994 l 304 994 l 304 0 l 104 0 z "},"J":{"ha":758,"x_min":22,"x_max":659,"o":"m 329 -17 q 102 64 178 -17 q 22 309 25 144 l 211 334 q 244 197 214 238 q 336 155 275 155 q 408 173 382 155 q 447 232 435 191 q 458 343 458 273 l 458 994 l 659 994 l 659 344 q 582 76 659 168 q 329 -17 505 -17 z "},"K":{"ha":985,"x_min":104,"x_max":981,"o":"m 704 994 l 954 994 l 593 600 l 981 0 l 732 0 l 454 459 l 304 300 l 304 0 l 104 0 l 104 994 l 304 994 l 304 553 l 704 994 z "},"L":{"ha":785,"x_min":104,"x_max":749,"o":"m 749 168 l 749 0 l 104 0 l 104 994 l 304 994 l 304 168 l 749 168 z "},"M":{"ha":1210,"x_min":104,"x_max":1105,"o":"m 804 994 l 1105 994 l 1105 0 l 919 0 l 919 783 l 703 0 l 510 0 l 291 783 l 291 0 l 104 0 l 104 994 l 405 994 l 607 290 l 804 994 z "},"N":{"ha":996,"x_min":104,"x_max":892,"o":"m 705 994 l 892 994 l 892 0 l 690 0 l 291 648 l 291 0 l 104 0 l 104 994 l 299 994 l 705 330 l 705 994 z "},"O":{"ha":1090,"x_min":60,"x_max":1031,"o":"m 60 492 q 119 766 60 649 q 288 947 178 883 q 545 1011 398 1011 q 802 947 692 1011 q 971 767 911 884 q 1031 496 1031 650 q 972 229 1031 345 q 804 48 913 113 q 547 -17 695 -17 q 289 47 399 -17 q 119 227 178 111 q 60 492 60 342 m 545 839 q 396 795 459 839 q 300 674 334 751 q 267 497 267 597 q 300 320 267 397 q 395 199 332 243 q 546 155 458 155 q 695 199 632 155 q 790 320 758 242 q 823 500 823 398 q 790 674 823 597 q 695 795 758 751 q 545 839 632 839 z "},"P":{"ha":873,"x_min":104,"x_max":827,"o":"m 827 688 q 736 451 827 528 q 456 374 645 374 l 304 374 l 304 0 l 104 0 l 104 994 l 456 994 q 737 917 648 994 q 827 688 827 840 m 619 685 q 578 789 619 753 q 452 826 538 826 l 304 826 l 304 543 l 452 543 q 581 579 543 543 q 619 685 619 615 z "},"Q":{"ha":1090,"x_min":60,"x_max":1067,"o":"m 60 492 q 119 767 60 649 q 288 948 178 884 q 545 1011 398 1011 q 802 947 692 1011 q 971 767 911 884 q 1031 496 1031 650 q 998 290 1031 384 q 903 128 965 196 q 982 77 943 98 q 1067 41 1021 56 l 992 -100 q 878 -48 938 -83 q 769 29 819 -13 q 547 -17 671 -17 q 289 47 399 -17 q 119 227 178 111 q 60 492 60 342 m 545 839 q 396 795 459 839 q 300 674 334 751 q 267 497 267 597 q 300 320 267 397 q 395 199 332 243 q 546 155 458 155 q 622 165 585 155 q 564 198 598 180 q 500 227 530 215 l 555 349 q 746 246 647 317 q 804 357 784 292 q 823 500 823 421 q 790 674 823 597 q 695 795 758 751 q 545 839 632 839 z "},"R":{"ha":936,"x_min":104,"x_max":922,"o":"m 865 715 q 812 543 865 610 q 648 443 759 475 l 648 440 q 695 413 674 431 q 739 361 716 395 q 791 267 762 327 l 922 0 l 703 0 l 608 199 q 524 346 557 304 q 479 388 501 374 q 424 409 457 403 q 332 415 390 415 l 304 415 l 304 0 l 104 0 l 104 994 l 517 994 q 774 922 684 994 q 865 715 865 850 m 659 703 q 620 798 659 768 q 498 827 581 827 l 304 827 l 304 574 l 475 574 q 612 603 566 574 q 659 703 659 632 z "},"S":{"ha":897,"x_min":47,"x_max":838,"o":"m 428 846 q 321 820 364 846 q 278 747 278 794 q 298 694 278 716 q 365 654 317 672 q 500 615 412 635 q 705 542 631 585 q 808 438 779 498 q 838 290 838 378 q 784 118 838 186 q 642 16 730 49 q 448 -17 553 -17 q 175 69 279 -17 q 47 317 71 155 l 248 341 q 314 197 265 243 q 454 151 363 151 q 550 166 508 151 q 614 210 591 182 q 637 275 637 237 q 621 343 637 319 q 556 388 604 368 q 404 432 507 408 q 212 504 283 461 q 112 602 142 547 q 83 732 83 658 q 124 877 83 814 q 246 976 166 940 q 437 1011 326 1011 q 692 938 597 1011 q 810 724 787 864 l 610 701 q 556 812 600 779 q 428 846 512 846 z "},"T":{"ha":843,"x_min":34,"x_max":809,"o":"m 522 826 l 522 0 l 321 0 l 321 826 l 34 826 l 34 994 l 809 994 l 809 826 l 522 826 z "},"U":{"ha":991,"x_min":99,"x_max":892,"o":"m 501 155 q 619 180 578 155 q 676 259 660 205 q 692 405 692 312 l 692 994 l 892 994 l 892 410 q 856 165 892 258 q 735 27 819 72 q 506 -17 651 -17 q 264 30 353 -17 q 137 169 175 77 q 99 408 99 262 l 99 994 l 299 994 l 299 402 q 320 259 299 313 q 385 180 340 205 q 501 155 429 155 z "},"V":{"ha":917,"x_min":3,"x_max":914,"o":"m 464 248 l 467 248 q 513 416 488 343 l 702 994 l 914 994 l 562 0 l 353 0 l 3 994 l 221 994 l 416 417 q 464 248 444 338 z "},"W":{"ha":1303,"x_min":5,"x_max":1297,"o":"m 357 288 l 360 288 q 389 427 370 353 l 536 994 l 775 994 l 917 424 q 947 277 932 363 l 949 277 q 975 425 962 358 l 1092 994 l 1297 994 l 1059 0 l 846 0 l 677 645 q 652 771 661 708 l 649 771 q 625 649 638 700 l 458 0 l 239 0 l 5 994 l 214 994 l 333 428 q 357 288 347 363 z "},"X":{"ha":932,"x_min":3,"x_max":928,"o":"m 469 661 l 471 661 q 521 758 492 711 l 665 994 l 898 994 l 588 511 l 928 0 l 687 0 l 522 256 q 467 357 494 298 l 465 357 q 410 256 439 301 l 245 0 l 3 0 l 344 519 l 35 994 l 270 994 l 415 763 q 469 661 443 718 z "},"Y":{"ha":909,"x_min":-3,"x_max":912,"o":"m 456 585 l 459 585 q 532 726 486 643 l 682 994 l 912 994 l 554 416 l 554 0 l 354 0 l 354 418 l -3 994 l 231 994 l 383 726 q 456 585 427 649 z "},"Z":{"ha":848,"x_min":16,"x_max":823,"o":"m 258 168 l 823 168 l 823 0 l 16 0 l 16 180 l 538 826 l 75 826 l 75 994 l 802 994 l 802 838 l 258 168 z "},"[":{"ha":463,"x_min":98,"x_max":436,"o":"m 281 844 l 281 -131 l 436 -131 l 436 -281 l 98 -281 l 98 994 l 436 994 l 436 844 l 281 844 z "},"\\":{"ha":386,"x_min":1,"x_max":387,"o":"m 247 -33 l 1 994 l 144 994 l 387 -33 l 247 -33 z "},"]":{"ha":463,"x_min":26,"x_max":364,"o":"m 26 -281 l 26 -131 l 182 -131 l 182 844 l 26 844 l 26 994 l 364 994 l 364 -281 l 26 -281 z "},"^":{"ha":811,"x_min":77,"x_max":734,"o":"m 541 453 l 406 785 l 270 453 l 77 453 l 330 994 l 481 994 l 734 453 l 541 453 z "},"_":{"ha":694,"x_min":-8,"x_max":703,"o":"m -8 -174 l -8 -104 l 703 -104 l 703 -174 l -8 -174 z "},"`":{"ha":463,"x_min":29,"x_max":336,"o":"m 215 811 l 29 1011 l 241 1011 l 336 811 l 215 811 z "},"a":{"ha":764,"x_min":47,"x_max":718,"o":"m 718 0 l 530 0 q 507 79 516 31 q 283 -17 412 -17 q 159 10 213 -17 q 77 86 106 37 q 47 199 47 136 q 110 351 47 294 q 302 427 172 407 q 486 467 433 448 l 486 480 q 455 567 486 543 q 363 590 424 590 q 284 568 316 590 q 236 500 252 547 l 62 526 q 168 685 91 635 q 375 736 245 736 q 546 709 480 736 q 644 624 612 682 q 676 471 676 566 l 676 178 q 684 92 676 126 q 718 0 691 57 m 340 309 q 238 210 238 288 q 263 142 238 165 q 335 118 288 118 q 421 142 382 118 q 461 176 448 158 q 480 224 475 194 q 486 310 486 255 l 486 345 q 340 309 435 326 z "},"b":{"ha":850,"x_min":94,"x_max":802,"o":"m 288 639 q 496 736 372 736 q 655 691 585 736 q 763 564 724 647 q 802 367 802 480 q 763 164 802 251 q 654 30 723 77 q 498 -17 585 -17 q 370 9 423 -17 q 275 95 317 35 l 272 95 l 272 0 l 94 0 l 94 994 l 285 994 l 285 639 l 288 639 m 445 584 q 361 559 397 584 q 304 488 324 535 q 283 375 283 441 q 328 196 283 257 q 452 135 373 135 q 534 161 499 135 q 588 237 569 186 q 607 357 607 287 q 566 525 607 467 q 445 584 524 584 z "},"c":{"ha":764,"x_min":47,"x_max":720,"o":"m 395 584 q 282 525 321 584 q 243 359 243 465 q 282 200 243 260 q 399 139 321 139 q 487 175 452 139 q 533 277 522 210 l 720 244 q 608 47 690 111 q 389 -17 526 -17 q 202 32 279 -17 q 86 166 125 81 q 47 360 47 252 q 87 557 47 472 q 205 689 127 642 q 394 736 283 736 q 599 679 517 736 q 710 504 680 622 l 524 470 q 479 555 512 526 q 395 584 446 584 z "},"d":{"ha":850,"x_min":47,"x_max":755,"o":"m 755 0 l 578 0 l 578 87 l 575 87 q 481 8 534 33 q 359 -17 428 -17 q 198 30 269 -17 q 87 163 127 77 q 47 367 47 250 q 86 561 47 477 q 195 690 125 644 q 358 736 266 736 q 474 712 421 736 q 563 643 526 688 l 565 643 l 565 994 l 755 994 l 755 0 m 406 584 q 286 523 328 584 q 243 357 243 463 q 262 237 243 287 q 317 161 281 187 q 401 135 353 135 q 524 193 481 135 q 566 361 566 252 q 546 478 566 427 q 489 556 526 528 q 406 584 452 584 z "},"e":{"ha":794,"x_min":47,"x_max":747,"o":"m 394 129 q 493 156 454 129 q 547 229 532 184 l 737 199 q 614 39 699 94 q 404 -17 528 -17 q 208 29 288 -17 q 87 159 127 75 q 47 355 47 243 q 89 546 47 459 q 211 684 131 633 q 401 736 291 736 q 584 691 507 736 q 705 561 662 647 q 747 354 747 475 l 747 296 l 241 296 q 288 172 248 216 q 394 129 328 129 m 242 435 l 557 435 q 510 550 551 510 q 402 590 469 590 q 294 549 338 590 q 242 435 250 508 z "},"f":{"ha":463,"x_min":17,"x_max":514,"o":"m 389 865 q 344 856 360 865 q 320 823 328 846 q 313 758 313 800 l 313 720 l 452 720 l 452 568 l 313 568 l 313 0 l 122 0 l 122 568 l 17 568 l 17 720 l 122 720 l 122 764 q 139 890 122 837 q 208 977 157 943 q 355 1011 259 1011 q 438 1004 391 1011 q 514 990 486 998 l 478 848 q 431 861 455 857 q 389 865 406 865 z "},"g":{"ha":850,"x_min":47,"x_max":755,"o":"m 755 720 l 755 66 q 718 -141 755 -62 q 601 -256 680 -220 q 399 -292 523 -292 q 72 -47 94 -292 l 269 -79 q 308 -130 276 -114 q 406 -146 340 -146 q 526 -106 484 -146 q 568 22 568 -66 l 568 98 l 565 98 q 480 27 536 55 q 356 0 424 0 q 195 46 265 0 q 86 176 125 93 q 47 365 47 259 q 85 565 47 481 q 192 692 122 648 q 355 736 261 736 q 484 709 427 736 q 575 632 541 682 l 578 632 l 578 720 l 755 720 m 397 584 q 313 558 348 584 q 261 484 279 532 q 243 374 243 437 q 262 256 243 308 q 316 175 281 204 q 400 146 352 146 q 487 174 450 146 q 546 254 525 203 q 566 371 566 304 q 546 480 566 432 q 487 556 525 529 q 397 584 448 584 z "},"h":{"ha":827,"x_min":94,"x_max":736,"o":"m 491 736 q 673 672 610 736 q 736 494 736 609 l 736 0 l 545 0 l 545 450 q 519 554 545 519 q 433 590 494 590 q 387 582 412 590 q 345 558 362 574 q 311 522 323 541 q 292 473 298 503 q 285 399 285 444 l 285 0 l 94 0 l 94 994 l 285 994 l 285 640 q 379 712 323 688 q 491 736 434 736 z "},"i":{"ha":379,"x_min":94,"x_max":285,"o":"m 94 818 l 94 994 l 285 994 l 285 818 l 94 818 m 94 0 l 94 720 l 285 720 l 285 0 l 94 0 z "},"j":{"ha":381,"x_min":-63,"x_max":287,"o":"m 96 818 l 96 994 l 287 994 l 287 818 l 96 818 m 71 -292 q 4 -286 41 -292 q -63 -271 -33 -279 l -33 -118 q 18 -123 -4 -123 q 66 -112 50 -123 q 90 -78 83 -100 q 96 -19 96 -56 l 96 720 l 287 720 l 287 -18 q 262 -180 287 -119 q 190 -266 237 -240 q 71 -292 142 -292 z "},"k":{"ha":774,"x_min":94,"x_max":760,"o":"m 512 720 l 743 720 l 497 457 l 760 0 l 544 0 l 368 325 l 285 237 l 285 0 l 94 0 l 94 994 l 285 994 l 285 467 l 512 720 z "},"l":{"ha":379,"x_min":94,"x_max":285,"o":"m 94 0 l 94 994 l 285 994 l 285 0 l 94 0 z "},"m":{"ha":1221,"x_min":94,"x_max":1130,"o":"m 900 736 q 1071 672 1013 736 q 1130 469 1130 608 l 1130 0 l 939 0 l 939 465 q 916 557 939 525 q 843 590 892 590 q 772 567 802 590 q 724 499 741 543 q 707 393 707 455 l 707 0 l 517 0 l 517 455 q 496 554 517 519 q 423 590 475 590 q 285 393 285 590 l 285 0 l 94 0 l 94 720 l 272 720 l 272 628 l 273 628 q 367 709 315 682 q 489 736 419 736 q 686 623 625 736 q 785 708 732 680 q 900 736 838 736 z "},"n":{"ha":827,"x_min":94,"x_max":736,"o":"m 545 450 q 519 554 545 519 q 433 590 494 590 q 326 543 368 590 q 285 399 284 496 l 285 0 l 94 0 l 94 720 l 272 720 l 272 625 q 367 708 311 680 q 491 736 423 736 q 673 672 610 736 q 736 494 736 609 l 736 0 l 545 0 l 545 450 z "},"o":{"ha":822,"x_min":47,"x_max":774,"o":"m 47 364 q 91 555 47 470 q 216 688 134 640 q 410 736 298 736 q 606 687 523 736 q 731 554 688 639 q 774 363 774 470 q 731 166 774 252 q 606 32 688 80 q 411 -17 524 -17 q 216 32 298 -17 q 91 166 134 80 q 47 364 47 252 m 409 581 q 324 554 361 581 q 264 477 286 528 q 243 359 243 427 q 263 242 243 292 q 321 166 283 193 q 410 139 359 139 q 499 165 460 139 q 558 242 537 192 q 579 361 579 292 q 559 476 579 427 q 500 553 538 526 q 409 581 462 581 z "},"p":{"ha":850,"x_min":94,"x_max":802,"o":"m 288 77 l 285 77 l 285 -275 l 94 -275 l 94 720 l 272 720 l 272 614 l 275 614 q 372 706 313 676 q 499 736 431 736 q 655 689 586 736 q 763 555 724 642 q 802 353 802 468 q 764 155 802 239 q 656 27 725 71 q 497 -17 587 -17 q 381 3 427 -17 q 288 77 334 24 m 453 584 q 331 527 379 584 q 283 344 283 469 q 303 232 283 279 q 360 160 323 185 q 446 135 397 135 q 566 193 525 135 q 607 361 607 251 q 566 525 607 467 q 453 584 525 584 z "},"q":{"ha":850,"x_min":47,"x_max":755,"o":"m 578 720 l 755 720 l 755 -275 l 565 -275 l 565 79 l 562 79 q 468 6 519 30 q 353 -17 416 -17 q 195 27 264 -17 q 86 155 125 71 q 47 353 47 239 q 87 555 47 468 q 195 689 126 642 q 351 736 264 736 q 473 706 416 736 q 574 614 530 677 l 575 614 l 578 614 l 578 720 m 395 585 q 315 558 349 585 q 262 481 281 532 q 243 361 243 431 q 284 190 243 251 q 403 129 325 129 q 489 155 452 129 q 546 229 526 180 q 566 344 566 277 q 544 481 566 427 q 483 560 521 535 q 395 585 444 585 z "},"r":{"ha":581,"x_min":94,"x_max":583,"o":"m 433 564 q 323 505 361 564 q 285 340 285 447 l 285 0 l 94 0 l 94 720 l 271 720 l 271 618 l 273 618 q 354 708 311 681 q 457 736 397 736 q 524 727 494 736 q 583 704 554 719 l 522 534 q 480 554 507 545 q 433 564 454 564 z "},"s":{"ha":711,"x_min":41,"x_max":667,"o":"m 347 600 q 273 584 301 600 q 245 541 245 568 q 259 505 245 519 q 306 478 272 490 q 399 456 339 467 q 602 379 536 433 q 667 225 667 324 q 630 101 667 156 q 525 14 593 45 q 363 -17 456 -17 q 140 40 221 -17 q 41 205 58 96 l 220 234 q 266 148 232 177 q 363 119 300 119 q 450 140 417 119 q 482 196 482 160 q 471 230 482 216 q 431 254 460 243 q 348 273 402 265 q 130 357 198 296 q 62 520 62 418 q 97 635 62 586 q 196 710 132 684 q 350 736 261 736 q 553 686 476 736 q 647 543 631 635 l 465 517 q 426 578 457 557 q 347 600 394 600 z "},"t":{"ha":484,"x_min":14,"x_max":458,"o":"m 440 720 l 440 568 l 306 568 l 306 218 q 310 171 306 186 q 326 148 315 155 q 359 142 337 142 q 435 153 395 142 l 458 5 q 389 -11 427 -5 q 313 -17 351 -17 q 194 4 237 -17 q 133 73 151 25 q 115 205 115 121 l 115 568 l 14 568 l 14 720 l 115 720 l 115 851 l 306 986 l 306 720 l 440 720 z "},"u":{"ha":827,"x_min":91,"x_max":732,"o":"m 394 129 q 463 145 429 129 q 519 205 496 162 q 542 319 542 248 l 542 720 l 732 720 l 732 0 l 555 0 l 555 94 q 460 12 517 41 q 336 -17 404 -17 q 154 47 216 -17 q 91 226 91 111 l 91 720 l 281 720 l 281 270 q 309 163 281 198 q 394 129 336 129 z "},"v":{"ha":762,"x_min":14,"x_max":749,"o":"m 380 231 l 383 231 q 422 353 406 305 l 553 720 l 749 720 l 469 0 l 297 0 l 14 720 l 214 720 l 343 352 q 380 231 364 292 z "},"w":{"ha":1093,"x_min":16,"x_max":1076,"o":"m 319 290 q 332 235 328 248 l 334 235 q 364 370 351 317 l 454 720 l 639 720 l 728 364 q 755 235 743 306 l 758 235 q 789 363 769 292 l 886 720 l 1076 720 l 852 0 l 669 0 l 573 366 q 547 484 557 424 l 545 484 q 519 366 534 425 l 423 0 l 239 0 l 16 720 l 207 720 l 300 368 q 319 290 307 340 z "},"x":{"ha":764,"x_min":16,"x_max":747,"o":"m 376 512 l 378 512 q 441 621 428 600 l 505 720 l 725 720 l 491 379 l 747 0 l 517 0 l 430 140 q 378 234 395 195 l 376 234 q 321 136 359 195 l 235 0 l 16 0 l 266 371 l 28 720 l 258 720 l 317 622 q 376 512 340 583 z "},"y":{"ha":772,"x_min":12,"x_max":753,"o":"m 386 208 l 389 208 q 417 305 410 283 l 555 720 l 753 720 l 476 -21 q 353 -240 412 -190 q 184 -292 293 -292 q 53 -273 134 -292 l 85 -127 q 152 -140 127 -140 q 209 -130 186 -140 q 249 -89 231 -119 q 288 -1 267 -60 l 12 720 l 215 720 l 355 310 q 386 208 368 273 z "},"z":{"ha":699,"x_min":26,"x_max":669,"o":"m 284 168 l 669 168 l 669 0 l 26 0 l 26 149 l 389 561 l 52 561 l 52 720 l 646 720 l 646 585 l 284 168 z "},"{":{"ha":541,"x_min":38,"x_max":503,"o":"m 361 91 l 361 24 q 369 -75 361 -44 q 398 -119 376 -106 q 469 -132 420 -132 l 503 -132 l 503 -292 l 461 -292 q 297 -265 357 -292 q 211 -178 237 -238 q 185 -12 185 -117 l 185 83 q 171 195 185 153 q 124 257 156 237 q 38 277 92 277 l 38 443 q 123 463 91 443 q 170 525 155 482 q 185 637 185 567 l 185 732 q 211 897 185 837 q 297 984 237 958 q 461 1011 357 1011 l 503 1011 l 503 851 l 469 851 q 398 839 420 851 q 369 795 376 826 q 361 696 361 764 l 361 629 q 351 505 361 553 q 311 421 340 456 q 223 360 281 387 q 311 299 281 334 q 351 216 340 264 q 361 91 361 168 z "},"|":{"ha":390,"x_min":119,"x_max":271,"o":"m 119 -273 l 119 994 l 271 994 l 271 -273 l 119 -273 z "},"}":{"ha":541,"x_min":38,"x_max":503,"o":"m 179 629 l 179 696 q 172 795 179 764 q 142 839 164 826 q 71 851 120 851 l 38 851 l 38 1011 l 79 1011 q 243 984 184 1011 q 329 897 303 958 q 355 732 355 837 l 355 637 q 370 525 355 567 q 417 463 385 482 q 503 443 450 443 l 503 277 q 416 257 448 277 q 370 195 385 237 q 355 83 355 153 l 355 -12 q 329 -178 355 -117 q 243 -265 303 -238 q 79 -292 184 -292 l 38 -292 l 38 -132 l 71 -132 q 142 -119 120 -132 q 172 -75 164 -106 q 179 24 179 -44 l 179 91 q 190 216 179 168 q 230 299 200 264 q 317 360 260 334 q 230 421 260 387 q 190 505 200 456 q 179 629 179 553 z "},"~":{"ha":811,"x_min":58,"x_max":753,"o":"m 557 357 q 394 403 488 357 q 237 449 300 449 q 146 426 190 449 q 58 354 102 402 l 58 530 q 146 601 100 577 q 254 624 193 624 q 431 578 329 624 q 576 532 535 532 q 656 554 610 532 q 753 629 702 576 l 753 447 q 711 411 743 433 q 638 373 680 389 q 557 357 597 357 z "},"":{"ha":0,"x_min":0,"x_max":0,"o":""}," ":{"ha":347,"x_min":0,"x_max":0,"o":""},"¡":{"ha":463,"x_min":127,"x_max":335,"o":"m 329 720 l 329 524 l 134 524 l 134 720 l 329 720 m 176 463 l 286 463 l 335 -41 l 335 -275 l 127 -275 l 127 -41 l 176 463 z "},"¢":{"ha":789,"x_min":51,"x_max":724,"o":"m 51 360 q 91 557 51 472 q 209 689 131 642 q 397 736 287 736 q 463 731 427 736 l 541 987 l 623 964 l 545 709 q 657 630 612 682 q 723 504 703 578 l 536 470 q 496 547 527 517 l 374 141 q 402 139 387 139 q 491 175 456 139 q 536 277 526 210 l 724 244 q 611 47 694 111 q 393 -17 529 -17 q 328 -12 363 -17 l 249 -273 l 167 -250 l 245 11 q 101 144 151 52 q 51 360 51 237 m 298 184 l 418 583 q 402 584 413 584 q 287 524 328 584 q 246 359 246 465 q 259 258 246 303 q 298 184 272 213 z "},"£":{"ha":789,"x_min":28,"x_max":771,"o":"m 418 840 q 353 824 381 840 q 309 781 324 808 q 293 719 293 753 q 302 646 293 691 q 327 556 311 602 l 537 556 l 537 418 l 357 418 q 360 379 360 396 q 331 270 360 323 q 254 175 302 218 l 256 172 q 349 192 288 192 q 392 187 366 192 q 461 172 417 182 q 558 155 537 155 q 696 193 612 155 l 771 33 q 675 -4 725 9 q 583 -17 626 -17 q 422 12 520 -17 q 269 41 323 41 q 186 27 227 41 q 101 -17 145 14 l 28 147 l 30 148 q 169 375 169 249 q 165 418 169 397 l 28 418 l 28 556 l 132 556 q 111 637 119 590 q 102 722 102 684 q 139 859 102 795 q 245 961 175 922 q 413 999 315 999 q 633 931 552 999 q 733 736 715 864 l 549 710 q 504 809 537 778 q 418 840 471 840 z "},"¤":{"ha":789,"x_min":41,"x_max":747,"o":"m 394 794 q 474 785 436 794 q 541 755 511 775 l 633 847 l 747 732 l 656 642 q 696 494 696 568 q 656 346 696 418 l 747 256 l 635 140 l 541 232 q 473 203 510 214 q 394 193 435 193 q 248 231 317 193 l 159 142 l 44 257 l 133 346 q 94 494 94 416 q 130 638 94 572 l 130 639 l 41 726 l 154 847 l 245 755 q 394 794 311 794 m 393 631 q 327 612 358 631 q 277 562 296 593 q 258 494 258 530 q 277 427 258 458 q 326 376 295 395 q 394 357 357 357 q 462 376 431 357 q 513 426 494 395 q 532 494 532 458 q 512 563 532 531 q 461 612 493 594 q 393 631 429 631 z "},"¥":{"ha":789,"x_min":12,"x_max":776,"o":"m 53 422 l 53 527 l 256 527 l 12 981 l 220 981 l 356 707 q 379 655 370 677 q 391 610 387 633 l 394 610 q 431 707 404 653 l 568 981 l 776 981 l 528 527 l 735 527 l 735 422 l 487 422 l 487 330 l 735 330 l 735 225 l 487 225 l 487 0 l 297 0 l 297 225 l 53 225 l 53 330 l 297 330 l 297 422 l 53 422 z "},"¦":{"ha":390,"x_min":119,"x_max":271,"o":"m 119 475 l 119 994 l 271 994 l 271 475 l 119 475 m 119 -273 l 119 245 l 271 245 l 271 -273 l 119 -273 z "},"§":{"ha":772,"x_min":49,"x_max":724,"o":"m 386 865 q 324 846 347 865 q 301 797 301 827 q 317 749 301 770 q 368 705 332 728 q 539 593 420 672 q 647 508 608 547 q 705 426 687 469 q 724 329 724 384 q 692 210 724 264 q 600 117 660 155 q 675 -57 675 46 q 641 -177 675 -123 q 539 -261 606 -231 q 384 -292 473 -292 q 230 -262 297 -292 q 121 -177 162 -233 q 69 -46 79 -122 l 256 -23 q 302 -114 269 -83 q 389 -146 336 -146 q 457 -124 431 -146 q 483 -66 483 -102 q 474 -30 483 -47 q 443 7 465 -13 q 392 46 425 24 q 294 109 359 68 q 134 225 186 177 q 65 314 81 273 q 49 413 49 355 q 84 539 49 483 q 175 633 119 596 q 109 793 109 697 q 141 905 109 855 q 236 983 174 954 q 382 1011 298 1011 q 585 952 513 1011 q 675 783 658 894 l 488 760 q 458 837 484 808 q 386 865 433 865 m 550 304 q 536 353 550 330 q 481 404 522 376 l 284 544 q 239 502 256 527 q 222 451 222 477 q 230 407 222 427 q 259 363 237 387 q 324 311 281 340 l 490 204 q 535 251 519 225 q 550 304 550 277 z "},"¨":{"ha":463,"x_min":3,"x_max":460,"o":"m 3 831 l 3 994 l 167 994 l 167 831 l 3 831 m 296 831 l 296 994 l 460 994 l 460 831 l 296 831 z "},"©":{"ha":1095,"x_min":27,"x_max":1067,"o":"m 547 1012 q 808 942 689 1012 q 998 752 928 871 q 1067 491 1067 633 q 998 230 1067 349 q 808 41 928 111 q 547 -28 689 -28 q 286 41 406 -28 q 97 230 167 111 q 27 491 27 349 q 97 752 27 633 q 286 942 167 871 q 547 1012 406 1012 m 547 73 q 757 130 661 73 q 909 282 853 186 q 966 492 966 378 q 909 702 966 606 q 757 854 853 798 q 547 910 661 910 q 337 854 433 910 q 185 702 241 798 q 129 492 129 606 q 185 282 129 378 q 337 130 241 186 q 547 73 433 73 m 551 694 q 447 642 484 694 q 411 501 411 591 q 448 359 411 409 q 551 309 486 309 q 624 335 595 309 q 672 422 653 361 l 782 388 q 698 258 758 304 q 554 212 639 212 q 420 245 479 212 q 326 343 360 279 q 292 498 292 408 q 323 652 292 585 q 413 754 355 718 q 549 791 471 791 q 696 750 637 791 q 782 627 755 709 l 672 597 q 626 669 657 644 q 551 694 595 694 z "},"ª":{"ha":538,"x_min":39,"x_max":502,"o":"m 502 514 l 365 514 q 354 545 358 527 q 350 568 351 564 q 276 518 315 535 q 188 501 237 501 q 111 520 145 501 q 58 571 77 539 q 39 642 39 604 q 53 719 39 688 q 100 768 67 749 q 193 797 134 787 q 334 832 286 812 q 316 888 334 870 q 262 905 298 905 q 206 892 225 905 q 179 852 186 878 l 52 875 q 118 976 66 941 q 260 1011 170 1011 q 422 965 371 1011 q 474 815 474 919 l 474 654 q 481 569 474 602 q 502 514 488 536 m 249 722 q 197 698 215 715 q 179 658 179 681 q 195 616 179 632 q 233 600 211 600 q 274 607 258 600 q 306 629 290 614 q 328 661 321 643 q 334 709 334 678 l 334 747 q 249 722 316 734 z "},"«":{"ha":749,"x_min":58,"x_max":708,"o":"m 423 47 l 273 47 l 60 359 l 58 360 l 273 667 l 423 667 l 247 361 l 423 47 m 708 47 l 557 47 l 344 361 l 557 667 l 708 667 l 532 361 l 708 47 z "},"¬":{"ha":811,"x_min":58,"x_max":746,"o":"m 567 253 l 567 550 l 58 550 l 58 729 l 746 729 l 746 253 l 567 253 z "},"­":{"ha":503,"x_min":64,"x_max":438,"o":"m 64 265 l 64 456 l 438 456 l 438 265 l 64 265 z "},"®":{"ha":1095,"x_min":27,"x_max":1067,"o":"m 547 1012 q 808 942 689 1012 q 998 752 928 871 q 1067 491 1067 633 q 998 230 1067 349 q 808 41 928 111 q 547 -28 689 -28 q 286 41 406 -28 q 97 230 167 111 q 27 491 27 349 q 97 752 27 633 q 286 942 167 871 q 547 1012 406 1012 m 547 73 q 757 130 661 73 q 909 282 853 186 q 966 492 966 378 q 909 702 966 606 q 757 854 853 798 q 547 910 661 910 q 337 854 433 910 q 185 702 241 798 q 129 492 129 606 q 185 282 129 378 q 337 130 241 186 q 547 73 433 73 m 765 618 q 725 515 765 559 q 616 461 686 472 q 664 432 646 450 q 702 384 683 415 l 799 220 l 665 220 l 599 344 q 560 405 578 383 q 520 437 543 427 q 463 447 497 447 l 432 447 l 432 220 l 318 220 l 318 772 l 568 772 q 716 734 667 772 q 765 618 765 696 m 646 611 q 621 666 646 648 q 541 684 595 684 l 432 684 l 432 534 l 543 534 q 646 611 646 534 z "},"¯":{"ha":694,"x_min":-8,"x_max":703,"o":"m -8 1099 l -8 1168 l 703 1168 l 703 1099 l -8 1099 z "},"°":{"ha":556,"x_min":62,"x_max":494,"o":"m 278 999 q 386 970 336 999 q 465 891 435 941 q 494 783 494 842 q 465 675 494 725 q 386 596 435 625 q 278 568 336 568 q 170 596 220 568 q 92 675 121 625 q 62 783 62 725 q 92 891 62 842 q 170 970 121 941 q 278 999 220 999 m 278 679 q 331 693 307 679 q 369 731 355 707 q 382 783 382 755 q 369 836 382 812 q 331 874 355 860 q 278 888 307 888 q 225 874 250 888 q 188 836 201 860 q 174 783 174 812 q 188 731 174 755 q 225 693 201 707 q 278 679 250 679 z "},"±":{"ha":811,"x_min":58,"x_max":753,"o":"m 753 677 l 753 500 l 494 500 l 494 240 l 317 240 l 317 500 l 58 500 l 58 677 l 317 677 l 317 936 l 494 936 l 494 677 l 753 677 m 58 0 l 58 178 l 753 178 l 753 0 l 58 0 z "},"²":{"ha":463,"x_min":17,"x_max":428,"o":"m 17 478 q 40 567 22 527 q 94 645 58 607 q 191 726 130 684 q 271 790 249 766 q 292 838 292 815 q 229 897 292 897 q 179 878 197 897 q 158 820 161 858 l 158 819 l 31 830 q 235 994 50 994 q 339 974 296 994 q 403 919 382 954 q 425 840 425 884 q 394 745 425 787 q 309 669 363 703 q 206 585 232 620 l 428 585 l 428 478 l 17 478 z "},"³":{"ha":463,"x_min":30,"x_max":431,"o":"m 431 630 q 407 544 431 582 q 336 486 382 507 q 229 465 290 465 q 92 506 144 465 q 30 621 40 547 l 155 634 q 174 581 155 601 q 228 562 194 562 q 280 582 262 562 q 299 635 299 602 q 281 686 299 667 q 220 705 263 705 q 176 701 196 705 l 189 793 q 262 808 241 793 q 283 850 283 823 q 268 886 283 874 q 227 897 253 897 q 159 829 168 897 l 41 846 q 101 956 56 917 q 231 994 146 994 q 363 956 316 994 q 410 853 410 918 q 345 755 410 791 q 431 630 431 723 z "},"´":{"ha":463,"x_min":126,"x_max":433,"o":"m 126 811 l 221 1011 l 433 1011 l 248 811 l 126 811 z "},"µ":{"ha":846,"x_min":94,"x_max":751,"o":"m 420 135 q 523 179 484 135 q 561 306 561 223 l 561 720 l 751 720 l 751 0 l 574 0 l 574 87 q 428 -17 515 -17 q 346 6 379 -17 q 285 87 312 29 l 285 -273 l 94 -273 l 94 720 l 285 720 l 285 312 q 320 180 285 226 q 420 135 355 135 z "},"¶":{"ha":772,"x_min":27,"x_max":763,"o":"m 687 838 l 687 -273 l 526 -273 l 526 838 l 425 838 l 425 -273 l 263 -273 l 263 436 q 88 519 149 446 q 27 714 27 591 q 63 881 27 820 q 168 968 99 943 q 343 994 237 994 l 763 994 l 763 838 l 687 838 z "},"·":{"ha":385,"x_min":95,"x_max":290,"o":"m 95 390 l 95 585 l 290 585 l 290 390 l 95 390 z "},"¸":{"ha":463,"x_min":51,"x_max":396,"o":"m 136 -198 q 211 -189 186 -198 q 235 -159 235 -180 q 220 -131 235 -140 q 183 -122 205 -122 q 142 -127 162 -122 l 176 16 l 271 16 l 254 -58 q 361 -89 326 -63 q 396 -165 396 -115 q 370 -230 396 -201 q 290 -275 344 -258 q 158 -292 237 -292 q 106 -289 138 -292 q 51 -284 74 -287 l 60 -193 q 136 -198 100 -198 z "},"¹":{"ha":463,"x_min":61,"x_max":336,"o":"m 207 478 l 207 832 q 135 787 173 805 q 61 762 98 770 l 61 866 q 169 917 123 882 q 232 994 215 951 l 336 994 l 336 478 l 207 478 z "},"º":{"ha":577,"x_min":39,"x_max":538,"o":"m 39 757 q 70 890 39 833 q 156 980 100 948 q 288 1011 212 1011 q 419 980 362 1011 q 507 890 476 948 q 538 757 538 833 q 508 622 538 680 q 421 533 477 564 q 288 501 364 501 q 156 532 212 501 q 70 622 100 564 q 39 757 39 680 m 286 897 q 210 858 237 897 q 183 754 183 819 q 210 652 183 690 q 286 615 237 615 q 365 653 336 615 q 394 755 394 692 q 366 860 394 822 q 286 897 338 897 z "},"»":{"ha":748,"x_min":41,"x_max":690,"o":"m 191 47 l 41 47 l 218 353 l 41 667 l 191 667 l 405 353 l 191 47 m 476 47 l 326 47 l 502 353 l 326 667 l 476 667 l 690 353 l 476 47 z "},"¼":{"ha":1100,"x_min":61,"x_max":1082,"o":"m 207 478 l 207 832 q 135 787 173 805 q 61 762 98 770 l 61 866 q 169 917 123 882 q 232 994 215 951 l 336 994 l 336 478 l 207 478 m 216 -17 l 804 999 l 911 999 l 323 -17 l 216 -17 m 1082 191 l 1082 92 l 1010 92 l 1010 0 l 886 0 l 886 92 l 651 92 l 651 187 l 903 516 l 1010 516 l 1010 191 l 1082 191 m 886 345 l 765 191 l 886 191 l 886 345 z "},"½":{"ha":1100,"x_min":61,"x_max":1065,"o":"m 207 478 l 207 832 q 135 787 173 805 q 61 762 98 770 l 61 866 q 169 917 123 882 q 232 994 215 951 l 336 994 l 336 478 l 207 478 m 195 -17 l 784 999 l 891 999 l 302 -17 l 195 -17 m 654 0 q 678 89 660 49 q 732 167 696 129 q 828 248 768 205 q 908 312 886 288 q 930 359 930 337 q 867 419 930 419 q 817 399 835 419 q 795 342 798 380 l 795 341 l 668 352 q 872 516 687 516 q 977 496 934 516 q 1041 441 1019 476 q 1062 362 1062 406 q 1031 267 1062 309 q 946 191 1001 225 q 844 107 869 142 l 1065 107 l 1065 0 l 654 0 z "},"¾":{"ha":1100,"x_min":30,"x_max":1082,"o":"m 431 630 q 407 544 431 582 q 336 486 382 507 q 229 465 290 465 q 92 506 144 465 q 30 621 40 547 l 155 634 q 174 581 155 601 q 228 562 194 562 q 280 582 262 562 q 299 635 299 602 q 281 686 299 667 q 220 705 263 705 q 176 701 196 705 l 189 793 q 262 808 241 793 q 283 850 283 823 q 268 886 283 874 q 227 897 253 897 q 159 829 168 897 l 41 846 q 101 956 56 917 q 231 994 146 994 q 363 956 316 994 q 410 853 410 918 q 345 755 410 791 q 431 630 431 723 m 236 -17 l 825 999 l 932 999 l 343 -17 l 236 -17 m 1082 191 l 1082 92 l 1010 92 l 1010 0 l 886 0 l 886 92 l 651 92 l 651 187 l 903 516 l 1010 516 l 1010 191 l 1082 191 m 886 345 l 765 191 l 886 191 l 886 345 z "},"¿":{"ha":756,"x_min":62,"x_max":707,"o":"m 499 720 l 499 524 l 304 524 l 304 720 l 499 720 m 488 439 q 479 315 488 350 q 437 226 467 271 q 359 142 407 180 q 278 63 302 98 q 253 -7 253 27 q 270 -77 253 -47 q 317 -121 288 -106 q 381 -136 347 -136 q 480 -95 442 -136 q 530 24 517 -55 l 707 3 q 657 -155 700 -88 q 545 -256 615 -221 q 385 -292 475 -292 q 220 -256 294 -292 q 104 -156 146 -221 q 62 -3 62 -90 q 76 82 62 45 q 125 159 90 119 q 226 255 159 199 q 286 315 267 290 q 309 366 304 340 q 315 441 315 393 l 315 463 l 488 463 l 488 439 z "},"À":{"ha":990,"x_min":3,"x_max":987,"o":"m 768 0 l 682 225 l 298 225 l 216 0 l 3 0 l 390 994 l 589 994 l 987 0 l 768 0 m 441 618 l 359 393 l 618 393 l 534 618 q 506 707 518 661 q 489 781 493 752 l 484 781 q 441 618 471 699 m 474 1063 l 298 1263 l 521 1263 l 606 1063 l 474 1063 z "},"Á":{"ha":990,"x_min":3,"x_max":987,"o":"m 768 0 l 682 225 l 298 225 l 216 0 l 3 0 l 390 994 l 589 994 l 987 0 l 768 0 m 441 618 l 359 393 l 618 393 l 534 618 q 506 707 518 661 q 489 781 493 752 l 484 781 q 441 618 471 699 m 380 1063 l 465 1263 l 688 1263 l 512 1063 l 380 1063 z "},"Â":{"ha":990,"x_min":3,"x_max":987,"o":"m 768 0 l 682 225 l 298 225 l 216 0 l 3 0 l 390 994 l 589 994 l 987 0 l 768 0 m 441 618 l 359 393 l 618 393 l 534 618 q 506 707 518 661 q 489 781 493 752 l 484 781 q 441 618 471 699 m 566 1063 l 488 1158 l 411 1063 l 252 1063 l 401 1263 l 576 1263 l 725 1063 l 566 1063 z "},"Ã":{"ha":990,"x_min":3,"x_max":987,"o":"m 768 0 l 682 225 l 298 225 l 216 0 l 3 0 l 390 994 l 589 994 l 987 0 l 768 0 m 441 618 l 359 393 l 618 393 l 534 618 q 506 707 518 661 q 489 781 493 752 l 484 781 q 441 618 471 699 m 589 1077 q 535 1085 562 1077 q 477 1107 509 1093 q 434 1124 451 1118 q 402 1129 416 1129 q 371 1115 381 1129 q 361 1071 361 1101 l 361 1069 l 256 1069 l 256 1073 q 291 1211 256 1162 q 394 1259 326 1259 q 444 1252 420 1259 q 494 1232 467 1245 q 540 1213 522 1219 q 579 1207 558 1207 q 610 1222 598 1207 q 623 1266 623 1237 l 727 1266 q 692 1125 727 1173 q 589 1077 657 1077 z "},"Ä":{"ha":990,"x_min":3,"x_max":987,"o":"m 768 0 l 682 225 l 298 225 l 216 0 l 3 0 l 390 994 l 589 994 l 987 0 l 768 0 m 441 618 l 359 393 l 618 393 l 534 618 q 506 707 518 661 q 489 781 493 752 l 484 781 q 441 618 471 699 m 255 1082 l 255 1253 l 426 1253 l 426 1082 l 255 1082 m 547 1082 l 547 1253 l 718 1253 l 718 1082 l 547 1082 z "},"Å":{"ha":990,"x_min":3,"x_max":987,"o":"m 355 1081 q 373 1150 355 1120 q 421 1197 391 1180 q 488 1214 452 1214 q 554 1197 524 1214 q 603 1150 585 1180 q 621 1081 621 1120 q 588 994 621 1031 l 589 994 l 987 0 l 768 0 l 682 225 l 298 225 l 216 0 l 3 0 l 389 991 q 363 1032 372 1009 q 355 1081 355 1055 m 488 1142 q 444 1125 460 1142 q 427 1081 427 1107 q 444 1038 427 1055 q 488 1021 460 1021 q 531 1038 515 1021 q 548 1081 548 1054 q 531 1124 548 1107 q 488 1142 515 1142 m 441 625 l 359 393 l 618 393 l 534 625 q 506 716 519 667 q 489 794 493 765 l 484 794 q 441 625 470 706 z "},"Æ":{"ha":1403,"x_min":-8,"x_max":1337,"o":"m 858 826 l 858 599 l 1276 599 l 1276 431 l 858 431 l 858 168 l 1337 168 l 1337 0 l 661 0 l 661 225 l 313 225 l 214 0 l -8 0 l 456 994 l 1313 994 l 1313 826 l 858 826 m 663 393 l 663 833 l 578 833 l 385 393 l 663 393 z "},"Ç":{"ha":1007,"x_min":60,"x_max":951,"o":"m 407 -198 q 481 -189 456 -198 q 507 -159 507 -180 q 492 -131 507 -140 q 454 -122 477 -122 q 413 -127 433 -122 l 441 -11 q 235 73 320 6 q 104 249 149 139 q 60 505 60 359 q 116 775 60 661 q 278 950 173 889 q 525 1011 383 1011 q 793 938 688 1011 q 940 720 898 864 l 742 672 q 522 839 692 839 q 382 795 440 839 q 296 676 325 752 q 267 501 267 600 q 296 318 267 396 q 383 198 326 240 q 519 155 440 155 q 623 180 575 155 q 704 250 670 204 q 753 357 737 295 l 951 310 q 872 141 928 214 q 730 26 817 68 q 534 -16 644 -15 l 525 -58 q 632 -89 597 -63 q 667 -165 667 -115 q 641 -230 667 -201 q 562 -275 615 -258 q 429 -292 508 -292 q 377 -289 410 -292 q 322 -284 345 -287 l 332 -193 q 407 -198 371 -198 z "},"È":{"ha":850,"x_min":104,"x_max":783,"o":"m 304 826 l 304 599 l 722 599 l 722 431 l 304 431 l 304 168 l 783 168 l 783 0 l 104 0 l 104 994 l 760 994 l 760 826 l 304 826 m 407 1063 l 231 1263 l 454 1263 l 538 1063 l 407 1063 z "},"É":{"ha":850,"x_min":104,"x_max":783,"o":"m 304 826 l 304 599 l 722 599 l 722 431 l 304 431 l 304 168 l 783 168 l 783 0 l 104 0 l 104 994 l 760 994 l 760 826 l 304 826 m 330 1063 l 414 1263 l 637 1263 l 461 1063 l 330 1063 z "},"Ê":{"ha":850,"x_min":104,"x_max":783,"o":"m 304 826 l 304 599 l 722 599 l 722 431 l 304 431 l 304 168 l 783 168 l 783 0 l 104 0 l 104 994 l 760 994 l 760 826 l 304 826 m 511 1063 l 433 1158 l 356 1063 l 197 1063 l 346 1263 l 521 1263 l 670 1063 l 511 1063 z "},"Ë":{"ha":850,"x_min":104,"x_max":783,"o":"m 304 826 l 304 599 l 722 599 l 722 431 l 304 431 l 304 168 l 783 168 l 783 0 l 104 0 l 104 994 l 760 994 l 760 826 l 304 826 m 210 1082 l 210 1253 l 381 1253 l 381 1082 l 210 1082 m 502 1082 l 502 1253 l 673 1253 l 673 1082 l 502 1082 z "},"Ì":{"ha":409,"x_min":3,"x_max":311,"o":"m 104 0 l 104 994 l 304 994 l 304 0 l 104 0 m 179 1063 l 3 1263 l 226 1263 l 311 1063 l 179 1063 z "},"Í":{"ha":409,"x_min":101,"x_max":408,"o":"m 104 0 l 104 994 l 304 994 l 304 0 l 104 0 m 101 1063 l 186 1263 l 408 1263 l 233 1063 l 101 1063 z "},"Î":{"ha":409,"x_min":-31,"x_max":442,"o":"m 104 0 l 104 994 l 304 994 l 304 0 l 104 0 m 283 1063 l 205 1158 l 128 1063 l -31 1063 l 118 1263 l 293 1263 l 442 1063 l 283 1063 z "},"Ï":{"ha":409,"x_min":-26,"x_max":436,"o":"m 104 0 l 104 994 l 304 994 l 304 0 l 104 0 m -26 1082 l -26 1253 l 144 1253 l 144 1082 l -26 1082 m 265 1082 l 265 1253 l 436 1253 l 436 1082 l 265 1082 z "},"Ð":{"ha":998,"x_min":1,"x_max":938,"o":"m 938 490 q 829 131 938 262 q 493 0 720 0 l 104 0 l 104 427 l 1 427 l 1 566 l 104 566 l 104 994 l 495 994 q 938 490 938 994 m 730 496 q 703 690 730 618 q 617 794 675 762 q 463 826 559 826 l 304 826 l 304 566 l 517 566 l 517 427 l 304 427 l 304 168 l 465 168 q 622 199 565 168 q 705 301 680 230 q 730 496 730 372 z "},"Ñ":{"ha":996,"x_min":104,"x_max":892,"o":"m 705 994 l 892 994 l 892 0 l 690 0 l 291 648 l 291 0 l 104 0 l 104 994 l 299 994 l 705 330 l 705 994 m 598 1077 q 544 1085 570 1077 q 486 1107 517 1093 q 443 1124 460 1118 q 411 1129 425 1129 q 380 1115 390 1129 q 370 1071 370 1101 l 370 1069 l 265 1069 l 265 1073 q 300 1211 265 1162 q 403 1259 335 1259 q 452 1252 429 1259 q 503 1232 475 1245 q 549 1213 530 1219 q 588 1207 567 1207 q 619 1222 607 1207 q 631 1266 631 1237 l 736 1266 q 701 1125 736 1173 q 598 1077 666 1077 z "},"Ò":{"ha":1090,"x_min":60,"x_max":1031,"o":"m 60 492 q 119 766 60 649 q 288 947 178 883 q 545 1011 398 1011 q 802 947 692 1011 q 971 767 911 884 q 1031 496 1031 650 q 972 229 1031 345 q 804 48 913 113 q 547 -17 695 -17 q 289 47 399 -17 q 119 227 178 111 q 60 492 60 342 m 545 839 q 396 795 459 839 q 300 674 334 751 q 267 497 267 597 q 300 320 267 397 q 395 199 332 243 q 546 155 458 155 q 695 199 632 155 q 790 320 758 242 q 823 500 823 398 q 790 674 823 597 q 695 795 758 751 q 545 839 632 839 m 515 1063 l 339 1263 l 562 1263 l 646 1063 l 515 1063 z "},"Ó":{"ha":1090,"x_min":60,"x_max":1031,"o":"m 60 492 q 119 766 60 649 q 288 947 178 883 q 545 1011 398 1011 q 802 947 692 1011 q 971 767 911 884 q 1031 496 1031 650 q 972 229 1031 345 q 804 48 913 113 q 547 -17 695 -17 q 289 47 399 -17 q 119 227 178 111 q 60 492 60 342 m 545 839 q 396 795 459 839 q 300 674 334 751 q 267 497 267 597 q 300 320 267 397 q 395 199 332 243 q 546 155 458 155 q 695 199 632 155 q 790 320 758 242 q 823 500 823 398 q 790 674 823 597 q 695 795 758 751 q 545 839 632 839 m 437 1063 l 522 1263 l 745 1263 l 569 1063 l 437 1063 z "},"Ô":{"ha":1090,"x_min":60,"x_max":1031,"o":"m 60 492 q 119 766 60 649 q 288 947 178 883 q 545 1011 398 1011 q 802 947 692 1011 q 971 767 911 884 q 1031 496 1031 650 q 972 229 1031 345 q 804 48 913 113 q 547 -17 695 -17 q 289 47 399 -17 q 119 227 178 111 q 60 492 60 342 m 545 839 q 396 795 459 839 q 300 674 334 751 q 267 497 267 597 q 300 320 267 397 q 395 199 332 243 q 546 155 458 155 q 695 199 632 155 q 790 320 758 242 q 823 500 823 398 q 790 674 823 597 q 695 795 758 751 q 545 839 632 839 m 618 1063 l 541 1158 l 464 1063 l 304 1063 l 454 1263 l 629 1263 l 778 1063 l 618 1063 z "},"Õ":{"ha":1090,"x_min":60,"x_max":1031,"o":"m 60 492 q 119 766 60 649 q 288 947 178 883 q 545 1011 398 1011 q 802 947 692 1011 q 971 767 911 884 q 1031 496 1031 650 q 972 229 1031 345 q 804 48 913 113 q 547 -17 695 -17 q 289 47 399 -17 q 119 227 178 111 q 60 492 60 342 m 545 839 q 396 795 459 839 q 300 674 334 751 q 267 497 267 597 q 300 320 267 397 q 395 199 332 243 q 546 155 458 155 q 695 199 632 155 q 790 320 758 242 q 823 500 823 398 q 790 674 823 597 q 695 795 758 751 q 545 839 632 839 m 644 1077 q 590 1085 616 1077 q 532 1107 564 1093 q 489 1124 506 1118 q 457 1129 471 1129 q 426 1115 436 1129 q 416 1071 416 1101 l 416 1069 l 311 1069 l 311 1073 q 346 1211 311 1162 q 449 1259 381 1259 q 498 1252 475 1259 q 549 1232 522 1245 q 595 1213 576 1219 q 634 1207 613 1207 q 665 1222 653 1207 q 677 1266 677 1237 l 782 1266 q 747 1125 782 1173 q 644 1077 712 1077 z "},"Ö":{"ha":1090,"x_min":60,"x_max":1031,"o":"m 60 492 q 119 766 60 649 q 288 947 178 883 q 545 1011 398 1011 q 802 947 692 1011 q 971 767 911 884 q 1031 496 1031 650 q 972 229 1031 345 q 804 48 913 113 q 547 -17 695 -17 q 289 47 399 -17 q 119 227 178 111 q 60 492 60 342 m 545 839 q 396 795 459 839 q 300 674 334 751 q 267 497 267 597 q 300 320 267 397 q 395 199 332 243 q 546 155 458 155 q 695 199 632 155 q 790 320 758 242 q 823 500 823 398 q 790 674 823 597 q 695 795 758 751 q 545 839 632 839 m 309 1082 l 309 1253 l 479 1253 l 479 1082 l 309 1082 m 600 1082 l 600 1253 l 771 1253 l 771 1082 l 600 1082 z "},"×":{"ha":811,"x_min":75,"x_max":736,"o":"m 612 821 l 734 697 l 530 492 l 736 286 l 610 160 l 404 367 l 199 161 l 76 285 l 281 489 l 75 696 l 201 821 l 406 615 l 612 821 z "},"Ø":{"ha":1090,"x_min":45,"x_max":1042,"o":"m 60 492 q 119 767 60 649 q 288 948 178 884 q 545 1011 398 1011 q 706 988 631 1011 q 841 922 781 965 l 947 1042 l 1042 958 l 930 833 q 1005 682 979 767 q 1031 496 1031 596 q 972 229 1031 345 q 804 48 913 113 q 547 -17 695 -17 q 387 5 461 -17 q 254 70 313 28 l 139 -60 l 45 24 l 163 157 q 86 308 113 223 q 60 492 60 393 m 302 314 l 715 779 q 545 839 644 839 q 396 795 459 839 q 300 674 334 751 q 267 497 267 597 q 302 314 267 394 m 790 675 l 379 211 q 546 155 446 155 q 695 199 632 155 q 790 320 758 242 q 823 500 823 398 q 790 675 823 597 z "},"Ù":{"ha":991,"x_min":99,"x_max":892,"o":"m 501 155 q 619 180 578 155 q 676 259 660 205 q 692 405 692 312 l 692 994 l 892 994 l 892 410 q 856 165 892 258 q 735 27 819 72 q 506 -17 651 -17 q 264 30 353 -17 q 137 169 175 77 q 99 408 99 262 l 99 994 l 299 994 l 299 402 q 320 259 299 313 q 385 180 340 205 q 501 155 429 155 m 471 1063 l 295 1263 l 517 1263 l 602 1063 l 471 1063 z "},"Ú":{"ha":991,"x_min":99,"x_max":892,"o":"m 501 155 q 619 180 578 155 q 676 259 660 205 q 692 405 692 312 l 692 994 l 892 994 l 892 410 q 856 165 892 258 q 735 27 819 72 q 506 -17 651 -17 q 264 30 353 -17 q 137 169 175 77 q 99 408 99 262 l 99 994 l 299 994 l 299 402 q 320 259 299 313 q 385 180 340 205 q 501 155 429 155 m 394 1063 l 479 1263 l 701 1263 l 526 1063 l 394 1063 z "},"Û":{"ha":991,"x_min":99,"x_max":892,"o":"m 501 155 q 619 180 578 155 q 676 259 660 205 q 692 405 692 312 l 692 994 l 892 994 l 892 410 q 856 165 892 258 q 735 27 819 72 q 506 -17 651 -17 q 264 30 353 -17 q 137 169 175 77 q 99 408 99 262 l 99 994 l 299 994 l 299 402 q 320 259 299 313 q 385 180 340 205 q 501 155 429 155 m 574 1063 l 497 1158 l 420 1063 l 260 1063 l 410 1263 l 585 1263 l 734 1063 l 574 1063 z "},"Ü":{"ha":991,"x_min":99,"x_max":892,"o":"m 501 155 q 619 180 578 155 q 676 259 660 205 q 692 405 692 312 l 692 994 l 892 994 l 892 410 q 856 165 892 258 q 735 27 819 72 q 506 -17 651 -17 q 264 30 353 -17 q 137 169 175 77 q 99 408 99 262 l 99 994 l 299 994 l 299 402 q 320 259 299 313 q 385 180 340 205 q 501 155 429 155 m 267 1082 l 267 1253 l 437 1253 l 437 1082 l 267 1082 m 558 1082 l 558 1253 l 729 1253 l 729 1082 l 558 1082 z "},"Ý":{"ha":909,"x_min":-3,"x_max":912,"o":"m 456 585 l 459 585 q 532 726 486 643 l 682 994 l 912 994 l 554 416 l 554 0 l 354 0 l 354 418 l -3 994 l 231 994 l 383 726 q 456 585 427 649 m 351 1063 l 435 1263 l 658 1263 l 482 1063 l 351 1063 z "},"Þ":{"ha":873,"x_min":104,"x_max":827,"o":"m 456 806 q 737 729 648 806 q 827 500 827 652 q 736 263 827 340 q 456 186 645 186 l 304 186 l 304 0 l 104 0 l 104 994 l 304 994 l 304 806 l 456 806 m 619 497 q 578 602 619 565 q 452 638 538 638 l 304 638 l 304 355 l 452 355 q 581 391 543 355 q 619 497 619 427 z "},"ß":{"ha":845,"x_min":94,"x_max":800,"o":"m 638 479 q 720 395 687 433 q 777 310 753 357 q 800 214 800 263 q 770 92 800 144 q 685 11 740 39 q 558 -17 631 -17 q 417 13 469 -17 q 326 106 364 42 l 472 189 q 504 149 486 162 q 546 135 522 135 q 588 153 571 135 q 605 197 605 171 q 593 244 605 222 q 563 288 582 267 q 506 347 545 309 q 449 405 476 376 q 380 529 380 477 q 394 590 380 559 q 441 668 408 621 q 478 729 468 705 q 488 780 488 753 q 463 838 488 817 q 397 859 438 859 q 329 842 353 859 q 294 788 304 824 q 285 692 285 752 l 285 0 l 94 0 l 94 711 q 124 878 94 812 q 222 978 155 944 q 400 1011 289 1011 q 554 984 490 1011 q 650 908 618 957 q 683 796 683 860 q 631 657 683 722 q 578 562 578 591 q 592 529 578 547 q 638 479 606 510 z "},"à":{"ha":764,"x_min":47,"x_max":718,"o":"m 718 0 l 530 0 q 507 79 516 31 q 283 -17 412 -17 q 159 10 213 -17 q 77 86 106 37 q 47 199 47 136 q 110 351 47 294 q 302 427 172 407 q 486 467 433 448 l 486 480 q 455 567 486 543 q 363 590 424 590 q 284 568 316 590 q 236 500 252 547 l 62 526 q 168 685 91 635 q 375 736 245 736 q 546 709 480 736 q 644 624 612 682 q 676 471 676 566 l 676 178 q 684 92 676 126 q 718 0 691 57 m 340 309 q 238 210 238 288 q 263 142 238 165 q 335 118 288 118 q 421 142 382 118 q 461 176 448 158 q 480 224 475 194 q 486 310 486 255 l 486 345 q 340 309 435 326 m 366 811 l 180 1011 l 393 1011 l 488 811 l 366 811 z "},"á":{"ha":764,"x_min":47,"x_max":718,"o":"m 718 0 l 530 0 q 507 79 516 31 q 283 -17 412 -17 q 159 10 213 -17 q 77 86 106 37 q 47 199 47 136 q 110 351 47 294 q 302 427 172 407 q 486 467 433 448 l 486 480 q 455 567 486 543 q 363 590 424 590 q 284 568 316 590 q 236 500 252 547 l 62 526 q 168 685 91 635 q 375 736 245 736 q 546 709 480 736 q 644 624 612 682 q 676 471 676 566 l 676 178 q 684 92 676 126 q 718 0 691 57 m 340 309 q 238 210 238 288 q 263 142 238 165 q 335 118 288 118 q 421 142 382 118 q 461 176 448 158 q 480 224 475 194 q 486 310 486 255 l 486 345 q 340 309 435 326 m 281 811 l 376 1011 l 588 1011 l 402 811 l 281 811 z "},"â":{"ha":764,"x_min":47,"x_max":718,"o":"m 718 0 l 530 0 q 507 79 516 31 q 283 -17 412 -17 q 159 10 213 -17 q 77 86 106 37 q 47 199 47 136 q 110 351 47 294 q 302 427 172 407 q 486 467 433 448 l 486 480 q 455 567 486 543 q 363 590 424 590 q 284 568 316 590 q 236 500 252 547 l 62 526 q 168 685 91 635 q 375 736 245 736 q 546 709 480 736 q 644 624 612 682 q 676 471 676 566 l 676 178 q 684 92 676 126 q 718 0 691 57 m 340 309 q 238 210 238 288 q 263 142 238 165 q 335 118 288 118 q 421 142 382 118 q 461 176 448 158 q 480 224 475 194 q 486 310 486 255 l 486 345 q 340 309 435 326 m 461 811 l 384 913 l 307 811 l 154 811 l 296 1011 l 471 1011 l 614 811 l 461 811 z "},"ã":{"ha":764,"x_min":47,"x_max":718,"o":"m 718 0 l 530 0 q 507 79 516 31 q 283 -17 412 -17 q 159 10 213 -17 q 77 86 106 37 q 47 199 47 136 q 110 351 47 294 q 302 427 172 407 q 486 467 433 448 l 486 480 q 455 567 486 543 q 363 590 424 590 q 284 568 316 590 q 236 500 252 547 l 62 526 q 168 685 91 635 q 375 736 245 736 q 546 709 480 736 q 644 624 612 682 q 676 471 676 566 l 676 178 q 684 92 676 126 q 718 0 691 57 m 340 309 q 238 210 238 288 q 263 142 238 165 q 335 118 288 118 q 421 142 382 118 q 461 176 448 158 q 480 224 475 194 q 486 310 486 255 l 486 345 q 340 309 435 326 m 503 825 q 448 833 473 825 q 391 855 422 841 q 348 872 365 867 q 315 878 330 878 q 284 864 294 878 q 274 819 274 850 l 274 818 l 176 818 l 176 821 q 208 958 176 911 q 307 1004 240 1004 q 357 997 335 1004 q 408 977 380 990 q 453 958 434 964 q 492 952 471 952 q 524 967 511 952 q 536 1011 536 982 l 633 1011 q 602 871 633 917 q 503 825 570 825 z "},"ä":{"ha":764,"x_min":47,"x_max":718,"o":"m 718 0 l 530 0 q 507 79 516 31 q 283 -17 412 -17 q 159 10 213 -17 q 77 86 106 37 q 47 199 47 136 q 110 351 47 294 q 302 427 172 407 q 486 467 433 448 l 486 480 q 455 567 486 543 q 363 590 424 590 q 284 568 316 590 q 236 500 252 547 l 62 526 q 168 685 91 635 q 375 736 245 736 q 546 709 480 736 q 644 624 612 682 q 676 471 676 566 l 676 178 q 684 92 676 126 q 718 0 691 57 m 340 309 q 238 210 238 288 q 263 142 238 165 q 335 118 288 118 q 421 142 382 118 q 461 176 448 158 q 480 224 475 194 q 486 310 486 255 l 486 345 q 340 309 435 326 m 155 831 l 155 994 l 319 994 l 319 831 l 155 831 m 448 831 l 448 994 l 612 994 l 612 831 l 448 831 z "},"å":{"ha":764,"x_min":47,"x_max":718,"o":"m 718 0 l 530 0 q 507 79 516 31 q 283 -17 412 -17 q 159 10 213 -17 q 77 86 106 37 q 47 199 47 136 q 110 351 47 294 q 302 427 172 407 q 486 467 433 448 l 486 480 q 455 567 486 543 q 363 590 424 590 q 284 568 316 590 q 236 500 252 547 l 62 526 q 168 685 91 635 q 375 736 245 736 q 546 709 480 736 q 644 624 612 682 q 676 471 676 566 l 676 178 q 684 92 676 126 q 718 0 691 57 m 340 309 q 238 210 238 288 q 263 142 238 165 q 335 118 288 118 q 421 142 382 118 q 461 176 448 158 q 480 224 475 194 q 486 310 486 255 l 486 345 q 340 309 435 326 m 304 827 q 265 920 265 866 q 304 1014 265 975 q 399 1053 343 1053 q 492 1013 454 1053 q 531 920 531 975 q 492 827 531 866 q 399 787 453 787 q 304 827 344 787 m 398 981 q 356 962 374 981 q 338 920 338 944 q 356 877 338 895 q 399 860 374 860 q 441 878 423 860 q 458 920 458 895 q 441 963 458 945 q 398 981 423 981 z "},"æ":{"ha":1192,"x_min":47,"x_max":1145,"o":"m 822 129 q 898 157 865 129 q 945 229 931 184 l 1135 199 q 1016 39 1098 94 q 815 -17 934 -17 q 566 104 644 -17 q 283 -17 447 -17 q 159 10 213 -17 q 77 86 106 37 q 47 199 47 136 q 110 351 47 294 q 302 427 172 407 q 482 467 427 447 l 482 480 q 453 567 482 543 q 363 590 423 590 q 284 568 316 590 q 236 500 252 547 l 62 526 q 168 685 91 635 q 375 736 245 736 q 597 646 525 736 q 689 712 635 689 q 813 736 743 736 q 988 691 913 736 q 1104 561 1063 647 q 1145 354 1145 475 l 1145 296 l 666 296 q 714 170 673 210 q 822 129 755 129 m 813 590 q 712 550 753 590 q 666 435 672 510 l 956 435 q 913 551 951 513 q 813 590 876 590 m 340 309 q 237 210 237 288 q 263 142 237 165 q 335 118 288 118 q 408 142 374 118 q 462 210 441 166 q 482 310 482 254 l 482 345 q 340 309 428 325 z "},"ç":{"ha":764,"x_min":47,"x_max":720,"o":"m 298 -198 q 373 -189 347 -198 q 398 -159 398 -180 q 383 -131 398 -140 q 346 -122 368 -122 q 304 -127 325 -122 l 332 -13 q 175 51 239 -1 q 79 181 111 102 q 47 360 47 261 q 87 557 47 472 q 205 689 127 642 q 394 736 283 736 q 599 679 517 736 q 710 504 680 622 l 524 470 q 479 555 512 526 q 395 584 446 584 q 282 525 321 584 q 243 359 243 465 q 282 200 243 260 q 399 139 321 139 q 487 175 452 139 q 533 277 522 210 l 720 244 q 619 57 692 121 q 427 -16 546 -7 l 416 -58 q 524 -89 488 -63 q 559 -165 559 -115 q 533 -230 559 -201 q 453 -275 507 -258 q 321 -292 399 -292 q 269 -289 301 -292 q 214 -284 237 -287 l 223 -193 q 298 -198 262 -198 z "},"è":{"ha":794,"x_min":47,"x_max":747,"o":"m 394 129 q 493 156 454 129 q 547 229 532 184 l 737 199 q 614 39 699 94 q 404 -17 528 -17 q 208 29 288 -17 q 87 159 127 75 q 47 355 47 243 q 89 546 47 459 q 211 684 131 633 q 401 736 291 736 q 584 691 507 736 q 705 561 662 647 q 747 354 747 475 l 747 296 l 241 296 q 288 172 248 216 q 394 129 328 129 m 242 435 l 557 435 q 510 550 551 510 q 402 590 469 590 q 294 549 338 590 q 242 435 250 508 m 366 811 l 180 1011 l 393 1011 l 488 811 l 366 811 z "},"é":{"ha":794,"x_min":47,"x_max":747,"o":"m 394 129 q 493 156 454 129 q 547 229 532 184 l 737 199 q 614 39 699 94 q 404 -17 528 -17 q 208 29 288 -17 q 87 159 127 75 q 47 355 47 243 q 89 546 47 459 q 211 684 131 633 q 401 736 291 736 q 584 691 507 736 q 705 561 662 647 q 747 354 747 475 l 747 296 l 241 296 q 288 172 248 216 q 394 129 328 129 m 242 435 l 557 435 q 510 550 551 510 q 402 590 469 590 q 294 549 338 590 q 242 435 250 508 m 281 811 l 376 1011 l 588 1011 l 402 811 l 281 811 z "},"ê":{"ha":794,"x_min":47,"x_max":747,"o":"m 394 129 q 493 156 454 129 q 547 229 532 184 l 737 199 q 614 39 699 94 q 404 -17 528 -17 q 208 29 288 -17 q 87 159 127 75 q 47 355 47 243 q 89 546 47 459 q 211 684 131 633 q 401 736 291 736 q 584 691 507 736 q 705 561 662 647 q 747 354 747 475 l 747 296 l 241 296 q 288 172 248 216 q 394 129 328 129 m 242 435 l 557 435 q 510 550 551 510 q 402 590 469 590 q 294 549 338 590 q 242 435 250 508 m 461 811 l 384 913 l 307 811 l 154 811 l 296 1011 l 471 1011 l 614 811 l 461 811 z "},"ë":{"ha":794,"x_min":47,"x_max":747,"o":"m 394 129 q 493 156 454 129 q 547 229 532 184 l 737 199 q 614 39 699 94 q 404 -17 528 -17 q 208 29 288 -17 q 87 159 127 75 q 47 355 47 243 q 89 546 47 459 q 211 684 131 633 q 401 736 291 736 q 584 691 507 736 q 705 561 662 647 q 747 354 747 475 l 747 296 l 241 296 q 288 172 248 216 q 394 129 328 129 m 242 435 l 557 435 q 510 550 551 510 q 402 590 469 590 q 294 549 338 590 q 242 435 250 508 m 155 831 l 155 994 l 319 994 l 319 831 l 155 831 m 448 831 l 448 994 l 612 994 l 612 831 l 448 831 z "},"ì":{"ha":379,"x_min":-14,"x_max":293,"o":"m 94 0 l 94 720 l 285 720 l 285 0 l 94 0 m 172 811 l -14 1011 l 198 1011 l 293 811 l 172 811 z "},"í":{"ha":379,"x_min":86,"x_max":393,"o":"m 94 0 l 94 720 l 285 720 l 285 0 l 94 0 m 86 811 l 181 1011 l 393 1011 l 208 811 l 86 811 z "},"î":{"ha":379,"x_min":-40,"x_max":420,"o":"m 94 0 l 94 720 l 285 720 l 285 0 l 94 0 m 267 811 l 190 913 l 113 811 l -40 811 l 102 1011 l 277 1011 l 420 811 l 267 811 z "},"ï":{"ha":379,"x_min":-39,"x_max":418,"o":"m 94 0 l 94 720 l 285 720 l 285 0 l 94 0 m -39 831 l -39 994 l 125 994 l 125 831 l -39 831 m 254 831 l 254 994 l 418 994 l 418 831 l 254 831 z "},"ð":{"ha":822,"x_min":47,"x_max":774,"o":"m 411 -17 q 216 31 298 -17 q 91 162 134 78 q 47 355 47 246 q 90 538 47 458 q 208 664 132 619 q 385 709 285 709 q 427 706 402 709 q 471 696 451 703 q 383 812 433 753 l 235 744 l 203 810 l 335 871 q 202 994 248 957 l 402 994 q 438 965 415 983 q 474 936 460 947 l 598 994 l 629 928 l 531 882 q 713 627 651 760 q 774 364 774 494 q 731 166 774 252 q 606 32 688 80 q 411 -17 524 -17 m 409 564 q 324 538 361 564 q 264 465 286 513 q 243 351 243 416 q 263 238 243 286 q 321 165 283 191 q 410 139 359 139 q 499 164 460 139 q 558 238 537 190 q 579 352 579 286 q 409 564 579 564 z "},"ñ":{"ha":827,"x_min":94,"x_max":736,"o":"m 545 450 q 519 554 545 519 q 433 590 494 590 q 326 543 368 590 q 285 399 284 496 l 285 0 l 94 0 l 94 720 l 272 720 l 272 625 q 367 708 311 680 q 491 736 423 736 q 673 672 610 736 q 736 494 736 609 l 736 0 l 545 0 l 545 450 m 517 825 q 463 833 488 825 q 406 855 437 841 q 362 872 380 867 q 330 878 345 878 q 299 864 309 878 q 289 819 289 850 l 289 818 l 191 818 l 191 821 q 223 958 191 911 q 322 1004 255 1004 q 372 997 350 1004 q 422 977 395 990 q 468 958 449 964 q 507 952 486 952 q 538 967 526 952 q 551 1011 551 982 l 648 1011 q 617 871 648 917 q 517 825 585 825 z "},"ò":{"ha":822,"x_min":47,"x_max":774,"o":"m 47 364 q 91 555 47 470 q 216 688 134 640 q 410 736 298 736 q 606 687 523 736 q 731 554 688 639 q 774 363 774 470 q 731 166 774 252 q 606 32 688 80 q 411 -17 524 -17 q 216 32 298 -17 q 91 166 134 80 q 47 364 47 252 m 409 581 q 324 554 361 581 q 264 477 286 528 q 243 359 243 427 q 263 242 243 292 q 321 166 283 193 q 410 139 359 139 q 499 165 460 139 q 558 242 537 192 q 579 361 579 292 q 559 476 579 427 q 500 553 538 526 q 409 581 462 581 m 410 811 l 224 1011 l 436 1011 l 531 811 l 410 811 z "},"ó":{"ha":822,"x_min":47,"x_max":774,"o":"m 47 364 q 91 555 47 470 q 216 688 134 640 q 410 736 298 736 q 606 687 523 736 q 731 554 688 639 q 774 363 774 470 q 731 166 774 252 q 606 32 688 80 q 411 -17 524 -17 q 216 32 298 -17 q 91 166 134 80 q 47 364 47 252 m 409 581 q 324 554 361 581 q 264 477 286 528 q 243 359 243 427 q 263 242 243 292 q 321 166 283 193 q 410 139 359 139 q 499 165 460 139 q 558 242 537 192 q 579 361 579 292 q 559 476 579 427 q 500 553 538 526 q 409 581 462 581 m 323 811 l 418 1011 l 631 1011 l 445 811 l 323 811 z "},"ô":{"ha":822,"x_min":47,"x_max":774,"o":"m 47 364 q 91 555 47 470 q 216 688 134 640 q 410 736 298 736 q 606 687 523 736 q 731 554 688 639 q 774 363 774 470 q 731 166 774 252 q 606 32 688 80 q 411 -17 524 -17 q 216 32 298 -17 q 91 166 134 80 q 47 364 47 252 m 409 581 q 324 554 361 581 q 264 477 286 528 q 243 359 243 427 q 263 242 243 292 q 321 166 283 193 q 410 139 359 139 q 499 165 460 139 q 558 242 537 192 q 579 361 579 292 q 559 476 579 427 q 500 553 538 526 q 409 581 462 581 m 505 811 l 427 913 l 350 811 l 197 811 l 340 1011 l 515 1011 l 657 811 l 505 811 z "},"õ":{"ha":822,"x_min":47,"x_max":774,"o":"m 47 364 q 91 555 47 470 q 216 688 134 640 q 410 736 298 736 q 606 687 523 736 q 731 554 688 639 q 774 363 774 470 q 731 166 774 252 q 606 32 688 80 q 411 -17 524 -17 q 216 32 298 -17 q 91 166 134 80 q 47 364 47 252 m 409 581 q 324 554 361 581 q 264 477 286 528 q 243 359 243 427 q 263 242 243 292 q 321 166 283 193 q 410 139 359 139 q 499 165 460 139 q 558 242 537 192 q 579 361 579 292 q 559 476 579 427 q 500 553 538 526 q 409 581 462 581 m 532 825 q 477 833 503 825 q 420 855 451 841 q 377 872 394 867 q 345 878 359 878 q 313 864 323 878 q 303 819 303 850 l 303 818 l 205 818 l 205 821 q 237 958 205 911 q 336 1004 269 1004 q 387 997 364 1004 q 437 977 409 990 q 482 958 463 964 q 522 952 500 952 q 553 967 541 952 q 565 1011 565 982 l 663 1011 q 631 871 663 917 q 532 825 600 825 z "},"ö":{"ha":822,"x_min":47,"x_max":774,"o":"m 47 364 q 91 555 47 470 q 216 688 134 640 q 410 736 298 736 q 606 687 523 736 q 731 554 688 639 q 774 363 774 470 q 731 166 774 252 q 606 32 688 80 q 411 -17 524 -17 q 216 32 298 -17 q 91 166 134 80 q 47 364 47 252 m 409 581 q 324 554 361 581 q 264 477 286 528 q 243 359 243 427 q 263 242 243 292 q 321 166 283 193 q 410 139 359 139 q 499 165 460 139 q 558 242 537 192 q 579 361 579 292 q 559 476 579 427 q 500 553 538 526 q 409 581 462 581 m 199 831 l 199 994 l 363 994 l 363 831 l 199 831 m 492 831 l 492 994 l 656 994 l 656 831 l 492 831 z "},"÷":{"ha":811,"x_min":58,"x_max":753,"o":"m 311 665 l 311 856 l 500 856 l 500 665 l 311 665 m 58 401 l 58 579 l 753 579 l 753 401 l 58 401 m 311 125 l 311 315 l 500 315 l 500 125 l 311 125 z "},"ø":{"ha":822,"x_min":47,"x_max":774,"o":"m 206 37 l 132 -50 l 57 16 l 132 103 q 69 220 90 153 q 47 364 47 286 q 91 555 47 470 q 216 688 134 640 q 410 736 298 736 q 619 679 530 736 l 688 760 l 764 694 l 694 612 q 754 499 733 563 q 774 363 774 436 q 731 166 774 252 q 606 32 688 80 q 411 -17 524 -17 q 206 37 292 -17 m 259 254 l 508 547 q 409 581 466 581 q 324 554 361 581 q 264 477 286 528 q 243 359 243 427 q 259 254 243 298 m 565 460 l 317 168 q 410 139 357 139 q 499 165 460 139 q 558 242 537 192 q 579 361 579 292 q 565 460 579 416 z "},"ù":{"ha":827,"x_min":91,"x_max":732,"o":"m 394 129 q 463 145 429 129 q 519 205 496 162 q 542 319 542 248 l 542 720 l 732 720 l 732 0 l 555 0 l 555 94 q 460 12 517 41 q 336 -17 404 -17 q 154 47 216 -17 q 91 226 91 111 l 91 720 l 281 720 l 281 270 q 309 163 281 198 q 394 129 336 129 m 393 811 l 207 1011 l 419 1011 l 514 811 l 393 811 z "},"ú":{"ha":827,"x_min":91,"x_max":732,"o":"m 394 129 q 463 145 429 129 q 519 205 496 162 q 542 319 542 248 l 542 720 l 732 720 l 732 0 l 555 0 l 555 94 q 460 12 517 41 q 336 -17 404 -17 q 154 47 216 -17 q 91 226 91 111 l 91 720 l 281 720 l 281 270 q 309 163 281 198 q 394 129 336 129 m 320 811 l 415 1011 l 627 1011 l 441 811 l 320 811 z "},"û":{"ha":827,"x_min":91,"x_max":732,"o":"m 394 129 q 463 145 429 129 q 519 205 496 162 q 542 319 542 248 l 542 720 l 732 720 l 732 0 l 555 0 l 555 94 q 460 12 517 41 q 336 -17 404 -17 q 154 47 216 -17 q 91 226 91 111 l 91 720 l 281 720 l 281 270 q 309 163 281 198 q 394 129 336 129 m 501 811 l 424 913 l 347 811 l 194 811 l 336 1011 l 511 1011 l 654 811 l 501 811 z "},"ü":{"ha":827,"x_min":91,"x_max":732,"o":"m 394 129 q 463 145 429 129 q 519 205 496 162 q 542 319 542 248 l 542 720 l 732 720 l 732 0 l 555 0 l 555 94 q 460 12 517 41 q 336 -17 404 -17 q 154 47 216 -17 q 91 226 91 111 l 91 720 l 281 720 l 281 270 q 309 163 281 198 q 394 129 336 129 m 188 831 l 188 994 l 352 994 l 352 831 l 188 831 m 481 831 l 481 994 l 645 994 l 645 831 l 481 831 z "},"ý":{"ha":772,"x_min":12,"x_max":753,"o":"m 386 208 l 389 208 q 417 305 410 283 l 555 720 l 753 720 l 476 -21 q 353 -240 412 -190 q 184 -292 293 -292 q 53 -273 134 -292 l 85 -127 q 152 -140 127 -140 q 209 -130 186 -140 q 249 -89 231 -119 q 288 -1 267 -60 l 12 720 l 215 720 l 355 310 q 386 208 368 273 m 281 811 l 376 1011 l 588 1011 l 402 811 l 281 811 z "},"þ":{"ha":850,"x_min":94,"x_max":802,"o":"m 802 366 q 764 159 802 245 q 656 28 726 73 q 497 -17 587 -17 q 380 6 429 -17 q 285 83 332 29 l 285 -275 l 94 -275 l 94 994 l 285 994 l 285 635 q 381 711 328 686 q 500 736 434 736 q 655 689 586 736 q 763 559 724 643 q 802 366 802 475 m 453 584 q 283 361 283 584 q 327 194 283 252 q 446 135 370 135 q 566 193 525 135 q 607 361 607 251 q 566 525 607 467 q 453 584 525 584 z "},"ÿ":{"ha":772,"x_min":12,"x_max":753,"o":"m 386 208 l 389 208 q 417 305 410 283 l 555 720 l 753 720 l 476 -21 q 353 -240 412 -190 q 184 -292 293 -292 q 53 -273 134 -292 l 85 -127 q 152 -140 127 -140 q 209 -130 186 -140 q 249 -89 231 -119 q 288 -1 267 -60 l 12 720 l 215 720 l 355 310 q 386 208 368 273 m 155 831 l 155 994 l 319 994 l 319 831 l 155 831 m 448 831 l 448 994 l 612 994 l 612 831 l 448 831 z "},"Ā":{"ha":990,"x_min":3,"x_max":987,"o":"m 768 0 l 682 225 l 298 225 l 216 0 l 3 0 l 390 994 l 589 994 l 987 0 l 768 0 m 441 618 l 359 393 l 618 393 l 534 618 q 506 707 518 661 q 489 781 493 752 l 484 781 q 441 618 471 699 m 269 1096 l 269 1230 l 707 1230 l 707 1096 l 269 1096 z "},"ā":{"ha":764,"x_min":47,"x_max":718,"o":"m 718 0 l 530 0 q 507 79 516 31 q 283 -17 412 -17 q 159 10 213 -17 q 77 86 106 37 q 47 199 47 136 q 110 351 47 294 q 302 427 172 407 q 486 467 433 448 l 486 480 q 455 567 486 543 q 363 590 424 590 q 284 568 316 590 q 236 500 252 547 l 62 526 q 168 685 91 635 q 375 736 245 736 q 546 709 480 736 q 644 624 612 682 q 676 471 676 566 l 676 178 q 684 92 676 126 q 718 0 691 57 m 340 309 q 238 210 238 288 q 263 142 238 165 q 335 118 288 118 q 421 142 382 118 q 461 176 448 158 q 480 224 475 194 q 486 310 486 255 l 486 345 q 340 309 435 326 m 183 847 l 183 974 l 594 974 l 594 847 l 183 847 z "},"Ă":{"ha":990,"x_min":3,"x_max":987,"o":"m 768 0 l 682 225 l 298 225 l 216 0 l 3 0 l 390 994 l 589 994 l 987 0 l 768 0 m 441 618 l 359 393 l 618 393 l 534 618 q 506 707 518 661 q 489 781 493 752 l 484 781 q 441 618 471 699 m 482 1174 q 553 1197 530 1174 q 584 1263 577 1220 l 703 1263 q 636 1111 694 1164 q 482 1057 579 1057 q 328 1108 385 1057 q 261 1263 271 1158 l 380 1263 q 413 1196 386 1219 q 482 1174 439 1174 z "},"ă":{"ha":764,"x_min":47,"x_max":718,"o":"m 718 0 l 530 0 q 507 79 516 31 q 283 -17 412 -17 q 159 10 213 -17 q 77 86 106 37 q 47 199 47 136 q 110 351 47 294 q 302 427 172 407 q 486 467 433 448 l 486 480 q 455 567 486 543 q 363 590 424 590 q 284 568 316 590 q 236 500 252 547 l 62 526 q 168 685 91 635 q 375 736 245 736 q 546 709 480 736 q 644 624 612 682 q 676 471 676 566 l 676 178 q 684 92 676 126 q 718 0 691 57 m 340 309 q 238 210 238 288 q 263 142 238 165 q 335 118 288 118 q 421 142 382 118 q 461 176 448 158 q 480 224 475 194 q 486 310 486 255 l 486 345 q 340 309 435 326 m 380 916 q 452 940 429 916 q 482 1011 475 964 l 595 1011 q 531 859 585 911 q 380 806 476 806 q 230 856 284 806 q 166 1011 176 906 l 279 1011 q 311 939 284 963 q 380 916 337 916 z "},"Ą":{"ha":990,"x_min":3,"x_max":994,"o":"m 994 -171 l 994 -264 q 935 -284 968 -277 q 865 -292 901 -292 q 747 -257 784 -292 q 710 -157 710 -222 q 725 -76 710 -116 q 768 1 740 -36 l 682 225 l 298 225 l 216 0 l 3 0 l 390 994 l 589 994 l 987 0 l 873 0 q 832 -121 832 -62 q 849 -172 832 -156 q 902 -187 866 -187 q 948 -183 922 -187 q 994 -171 974 -179 m 534 618 q 506 707 518 661 q 489 781 493 752 l 484 781 q 441 618 471 699 l 359 393 l 618 393 l 534 618 z "},"ą":{"ha":764,"x_min":47,"x_max":757,"o":"m 757 -171 l 757 -264 q 697 -284 731 -277 q 628 -292 663 -292 q 510 -257 547 -292 q 473 -157 473 -222 q 487 -77 473 -117 q 530 0 502 -37 q 507 79 516 31 q 283 -17 412 -17 q 159 10 213 -17 q 77 86 106 37 q 47 199 47 136 q 110 351 47 294 q 302 427 172 407 q 486 467 433 448 l 486 480 q 455 567 486 543 q 363 590 424 590 q 284 568 316 590 q 236 500 252 547 l 62 526 q 168 685 91 635 q 375 736 245 736 q 546 709 480 736 q 644 624 612 682 q 676 471 676 566 l 676 178 q 684 92 676 126 q 718 0 691 57 l 635 0 q 595 -121 595 -62 q 612 -172 595 -156 q 665 -187 629 -187 q 710 -183 684 -187 q 757 -171 736 -179 m 340 309 q 238 210 238 288 q 263 142 238 165 q 335 118 288 118 q 421 142 382 118 q 461 176 448 158 q 480 224 475 194 q 486 310 486 255 l 486 345 q 340 309 435 326 z "},"Ć":{"ha":1007,"x_min":60,"x_max":951,"o":"m 522 839 q 382 795 440 839 q 296 676 325 752 q 267 501 267 600 q 296 318 267 396 q 383 198 326 240 q 519 155 440 155 q 623 180 575 155 q 704 250 670 204 q 753 357 737 295 l 951 310 q 871 138 928 212 q 726 24 814 64 q 525 -17 637 -17 q 274 45 378 -17 q 115 225 170 108 q 60 505 60 343 q 116 775 60 661 q 278 950 173 889 q 525 1011 383 1011 q 793 938 688 1011 q 940 720 898 864 l 742 672 q 522 839 692 839 m 408 1063 l 493 1263 l 715 1263 l 540 1063 l 408 1063 z "},"ć":{"ha":764,"x_min":47,"x_max":720,"o":"m 395 584 q 282 525 321 584 q 243 359 243 465 q 282 200 243 260 q 399 139 321 139 q 487 175 452 139 q 533 277 522 210 l 720 244 q 608 47 690 111 q 389 -17 526 -17 q 202 32 279 -17 q 86 166 125 81 q 47 360 47 252 q 87 557 47 472 q 205 689 127 642 q 394 736 283 736 q 599 679 517 736 q 710 504 680 622 l 524 470 q 479 555 512 526 q 395 584 446 584 m 289 811 l 384 1011 l 596 1011 l 410 811 l 289 811 z "},"Ċ":{"ha":1007,"x_min":60,"x_max":951,"o":"m 522 839 q 382 795 440 839 q 296 676 325 752 q 267 501 267 600 q 296 318 267 396 q 383 198 326 240 q 519 155 440 155 q 623 180 575 155 q 704 250 670 204 q 753 357 737 295 l 951 310 q 871 138 928 212 q 726 24 814 64 q 525 -17 637 -17 q 274 45 378 -17 q 115 225 170 108 q 60 505 60 343 q 116 775 60 661 q 278 950 173 889 q 525 1011 383 1011 q 793 938 688 1011 q 940 720 898 864 l 742 672 q 522 839 692 839 m 418 1082 l 418 1266 l 616 1266 l 616 1082 l 418 1082 z "},"ċ":{"ha":764,"x_min":47,"x_max":720,"o":"m 395 584 q 282 525 321 584 q 243 359 243 465 q 282 200 243 260 q 399 139 321 139 q 487 175 452 139 q 533 277 522 210 l 720 244 q 608 47 690 111 q 389 -17 526 -17 q 202 32 279 -17 q 86 166 125 81 q 47 360 47 252 q 87 557 47 472 q 205 689 127 642 q 394 736 283 736 q 599 679 517 736 q 710 504 680 622 l 524 470 q 479 555 512 526 q 395 584 446 584 m 287 831 l 287 1008 l 477 1008 l 477 831 l 287 831 z "},"Č":{"ha":1007,"x_min":60,"x_max":951,"o":"m 522 839 q 382 795 440 839 q 296 676 325 752 q 267 501 267 600 q 296 318 267 396 q 383 198 326 240 q 519 155 440 155 q 623 180 575 155 q 704 250 670 204 q 753 357 737 295 l 951 310 q 871 138 928 212 q 726 24 814 64 q 525 -17 637 -17 q 274 45 378 -17 q 115 225 170 108 q 60 505 60 343 q 116 775 60 661 q 278 950 173 889 q 525 1011 383 1011 q 793 938 688 1011 q 940 720 898 864 l 742 672 q 522 839 692 839 m 446 1263 l 523 1168 l 600 1263 l 760 1263 l 610 1063 l 435 1063 l 286 1263 l 446 1263 z "},"č":{"ha":764,"x_min":47,"x_max":720,"o":"m 395 584 q 282 525 321 584 q 243 359 243 465 q 282 200 243 260 q 399 139 321 139 q 487 175 452 139 q 533 277 522 210 l 720 244 q 608 47 690 111 q 389 -17 526 -17 q 202 32 279 -17 q 86 166 125 81 q 47 360 47 252 q 87 557 47 472 q 205 689 127 642 q 394 736 283 736 q 599 679 517 736 q 710 504 680 622 l 524 470 q 479 555 512 526 q 395 584 446 584 m 310 1011 l 387 909 l 465 1011 l 617 1011 l 475 811 l 300 811 l 157 1011 l 310 1011 z "},"Ď":{"ha":998,"x_min":104,"x_max":938,"o":"m 938 490 q 829 131 938 262 q 493 0 720 0 l 104 0 l 104 994 l 495 994 q 938 490 938 994 m 730 496 q 703 690 730 618 q 617 794 675 762 q 463 826 559 826 l 304 826 l 304 168 l 465 168 q 622 199 565 168 q 705 301 680 230 q 730 496 730 372 m 398 1263 l 475 1168 l 553 1263 l 712 1263 l 563 1063 l 388 1063 l 239 1263 l 398 1263 z "},"ď":{"ha":1031,"x_min":47,"x_max":1031,"o":"m 755 0 l 578 0 l 578 87 l 575 87 q 481 8 534 33 q 359 -17 428 -17 q 198 30 269 -17 q 87 163 127 77 q 47 367 47 250 q 86 561 47 477 q 195 690 125 644 q 358 736 266 736 q 474 712 421 736 q 563 643 526 688 l 565 643 l 565 994 l 755 994 l 755 0 m 406 584 q 286 523 328 584 q 243 357 243 463 q 262 237 243 287 q 317 161 281 187 q 401 135 353 135 q 524 193 481 135 q 566 361 566 252 q 546 478 566 427 q 489 556 526 528 q 406 584 452 584 m 872 633 l 836 711 q 913 750 890 725 q 938 820 936 776 l 850 820 l 850 994 l 1031 994 l 1031 863 q 1018 756 1031 798 q 970 686 1004 715 q 872 633 936 656 z "},"Đ":{"ha":998,"x_min":1,"x_max":938,"o":"m 938 490 q 829 131 938 262 q 493 0 720 0 l 104 0 l 104 427 l 1 427 l 1 566 l 104 566 l 104 994 l 495 994 q 938 490 938 994 m 730 496 q 703 690 730 618 q 617 794 675 762 q 463 826 559 826 l 304 826 l 304 566 l 517 566 l 517 427 l 304 427 l 304 168 l 465 168 q 622 199 565 168 q 705 301 680 230 q 730 496 730 372 z "},"đ":{"ha":850,"x_min":47,"x_max":850,"o":"m 850 924 l 850 798 l 755 798 l 755 0 l 578 0 l 578 87 l 575 87 q 481 8 534 33 q 359 -17 428 -17 q 198 30 269 -17 q 87 163 127 77 q 47 367 47 250 q 86 561 47 477 q 195 690 125 644 q 358 736 266 736 q 475 711 422 736 q 565 640 528 686 l 565 798 l 366 798 l 366 924 l 565 924 l 565 994 l 755 994 l 755 924 l 850 924 m 406 584 q 286 523 328 584 q 243 357 243 463 q 262 237 243 287 q 317 161 281 187 q 401 135 353 135 q 524 193 481 135 q 566 361 566 252 q 546 478 566 427 q 489 556 526 528 q 406 584 452 584 z "},"Ē":{"ha":850,"x_min":104,"x_max":783,"o":"m 304 826 l 304 599 l 722 599 l 722 431 l 304 431 l 304 168 l 783 168 l 783 0 l 104 0 l 104 994 l 760 994 l 760 826 l 304 826 m 214 1096 l 214 1230 l 652 1230 l 652 1096 l 214 1096 z "},"ē":{"ha":794,"x_min":47,"x_max":747,"o":"m 394 129 q 493 156 454 129 q 547 229 532 184 l 737 199 q 614 39 699 94 q 404 -17 528 -17 q 208 29 288 -17 q 87 159 127 75 q 47 355 47 243 q 89 546 47 459 q 211 684 131 633 q 401 736 291 736 q 584 691 507 736 q 705 561 662 647 q 747 354 747 475 l 747 296 l 241 296 q 288 172 248 216 q 394 129 328 129 m 242 435 l 557 435 q 510 550 551 510 q 402 590 469 590 q 294 549 338 590 q 242 435 250 508 m 176 847 l 176 974 l 587 974 l 587 847 l 176 847 z "},"Ė":{"ha":850,"x_min":104,"x_max":783,"o":"m 304 826 l 304 599 l 722 599 l 722 431 l 304 431 l 304 168 l 783 168 l 783 0 l 104 0 l 104 994 l 760 994 l 760 826 l 304 826 m 349 1082 l 349 1266 l 547 1266 l 547 1082 l 349 1082 z "},"ė":{"ha":794,"x_min":47,"x_max":747,"o":"m 394 129 q 493 156 454 129 q 547 229 532 184 l 737 199 q 614 39 699 94 q 404 -17 528 -17 q 208 29 288 -17 q 87 159 127 75 q 47 355 47 243 q 89 546 47 459 q 211 684 131 633 q 401 736 291 736 q 584 691 507 736 q 705 561 662 647 q 747 354 747 475 l 747 296 l 241 296 q 288 172 248 216 q 394 129 328 129 m 242 435 l 557 435 q 510 550 551 510 q 402 590 469 590 q 294 549 338 590 q 242 435 250 508 m 302 831 l 302 1008 l 492 1008 l 492 831 l 302 831 z "},"Ę":{"ha":850,"x_min":104,"x_max":783,"o":"m 621 -121 q 638 -172 621 -156 q 691 -187 655 -187 q 737 -183 711 -187 q 783 -171 763 -179 l 783 -264 q 724 -284 758 -277 q 654 -292 690 -292 q 536 -257 573 -292 q 499 -157 499 -222 q 514 -77 499 -117 q 557 0 528 -37 l 104 0 l 104 994 l 760 994 l 760 826 l 304 826 l 304 599 l 722 599 l 722 431 l 304 431 l 304 168 l 783 168 l 783 0 l 662 0 q 621 -121 621 -62 z "},"ę":{"ha":794,"x_min":47,"x_max":747,"o":"m 241 296 q 288 172 248 216 q 394 129 328 129 q 493 156 454 129 q 547 229 532 184 l 737 199 q 639 57 705 111 q 478 -12 573 3 q 445 -121 445 -68 q 462 -172 445 -156 q 515 -187 479 -187 q 561 -183 534 -187 q 607 -171 587 -179 l 607 -264 q 547 -284 581 -277 q 478 -292 513 -292 q 360 -257 397 -292 q 323 -157 323 -222 q 369 -16 323 -83 q 192 39 264 -9 q 84 168 120 87 q 47 355 47 249 q 89 546 47 459 q 211 684 131 633 q 401 736 291 736 q 584 691 507 736 q 705 561 662 647 q 747 354 747 475 l 747 296 l 241 296 m 402 590 q 294 549 338 590 q 242 435 250 508 l 557 435 q 510 550 551 510 q 402 590 469 590 z "},"Ě":{"ha":850,"x_min":104,"x_max":783,"o":"m 304 826 l 304 599 l 722 599 l 722 431 l 304 431 l 304 168 l 783 168 l 783 0 l 104 0 l 104 994 l 760 994 l 760 826 l 304 826 m 362 1263 l 439 1168 l 517 1263 l 676 1263 l 527 1063 l 352 1063 l 203 1263 l 362 1263 z "},"ě":{"ha":794,"x_min":47,"x_max":747,"o":"m 394 129 q 493 156 454 129 q 547 229 532 184 l 737 199 q 614 39 699 94 q 404 -17 528 -17 q 208 29 288 -17 q 87 159 127 75 q 47 355 47 243 q 89 546 47 459 q 211 684 131 633 q 401 736 291 736 q 584 691 507 736 q 705 561 662 647 q 747 354 747 475 l 747 296 l 241 296 q 288 172 248 216 q 394 129 328 129 m 242 435 l 557 435 q 510 550 551 510 q 402 590 469 590 q 294 549 338 590 q 242 435 250 508 m 304 1011 l 381 909 l 458 1011 l 611 1011 l 469 811 l 294 811 l 151 1011 l 304 1011 z "},"Ğ":{"ha":1056,"x_min":60,"x_max":972,"o":"m 544 839 q 341 755 414 839 q 267 509 267 672 q 299 319 267 399 q 392 198 330 240 q 542 155 454 155 q 666 174 605 155 q 772 229 728 193 l 772 366 l 540 366 l 540 534 l 972 534 l 972 138 q 858 59 926 94 q 708 3 789 24 q 543 -17 626 -17 q 282 48 391 -17 q 116 229 173 113 q 60 500 60 346 q 120 769 60 654 q 290 948 180 885 q 544 1011 400 1011 q 817 938 714 1011 q 960 720 919 865 l 760 682 q 684 799 738 759 q 544 839 629 839 m 550 1174 q 621 1197 597 1174 q 652 1263 645 1220 l 771 1263 q 704 1111 762 1164 q 550 1057 647 1057 q 396 1108 452 1057 q 329 1263 339 1158 l 448 1263 q 480 1196 454 1219 q 550 1174 507 1174 z "},"ğ":{"ha":850,"x_min":47,"x_max":755,"o":"m 755 720 l 755 66 q 718 -141 755 -62 q 601 -256 680 -220 q 399 -292 523 -292 q 72 -47 94 -292 l 269 -79 q 308 -130 276 -114 q 406 -146 340 -146 q 526 -106 484 -146 q 568 22 568 -66 l 568 98 l 565 98 q 480 27 536 55 q 356 0 424 0 q 195 46 265 0 q 86 176 125 93 q 47 365 47 259 q 85 565 47 481 q 192 692 122 648 q 355 736 261 736 q 484 709 427 736 q 575 632 541 682 l 578 632 l 578 720 l 755 720 m 397 584 q 313 558 348 584 q 261 484 279 532 q 243 374 243 437 q 262 256 243 308 q 316 175 281 204 q 400 146 352 146 q 487 174 450 146 q 546 254 525 203 q 566 371 566 304 q 546 480 566 432 q 487 556 525 529 q 397 584 448 584 m 401 916 q 472 940 449 916 q 503 1011 496 964 l 615 1011 q 551 859 606 911 q 401 806 496 806 q 251 856 304 806 q 186 1011 197 906 l 299 1011 q 331 939 304 963 q 401 916 357 916 z "},"Ġ":{"ha":1056,"x_min":60,"x_max":972,"o":"m 544 839 q 341 755 414 839 q 267 509 267 672 q 299 319 267 399 q 392 198 330 240 q 542 155 454 155 q 666 174 605 155 q 772 229 728 193 l 772 366 l 540 366 l 540 534 l 972 534 l 972 138 q 858 59 926 94 q 708 3 789 24 q 543 -17 626 -17 q 282 48 391 -17 q 116 229 173 113 q 60 500 60 346 q 120 769 60 654 q 290 948 180 885 q 544 1011 400 1011 q 817 938 714 1011 q 960 720 919 865 l 760 682 q 684 799 738 759 q 544 839 629 839 m 443 1082 l 443 1266 l 640 1266 l 640 1082 l 443 1082 z "},"ġ":{"ha":850,"x_min":47,"x_max":755,"o":"m 755 720 l 755 66 q 718 -141 755 -62 q 601 -256 680 -220 q 399 -292 523 -292 q 72 -47 94 -292 l 269 -79 q 308 -130 276 -114 q 406 -146 340 -146 q 526 -106 484 -146 q 568 22 568 -66 l 568 98 l 565 98 q 480 27 536 55 q 356 0 424 0 q 195 46 265 0 q 86 176 125 93 q 47 365 47 259 q 85 565 47 481 q 192 692 122 648 q 355 736 261 736 q 484 709 427 736 q 575 632 541 682 l 578 632 l 578 720 l 755 720 m 397 584 q 313 558 348 584 q 261 484 279 532 q 243 374 243 437 q 262 256 243 308 q 316 175 281 204 q 400 146 352 146 q 487 174 450 146 q 546 254 525 203 q 566 371 566 304 q 546 480 566 432 q 487 556 525 529 q 397 584 448 584 m 309 831 l 309 1008 l 500 1008 l 500 831 l 309 831 z "},"Ģ":{"ha":1056,"x_min":60,"x_max":972,"o":"m 544 839 q 341 755 414 839 q 267 509 267 672 q 299 319 267 399 q 392 198 330 240 q 542 155 454 155 q 666 174 605 155 q 772 229 728 193 l 772 366 l 540 366 l 540 534 l 972 534 l 972 138 q 858 59 926 94 q 708 3 789 24 q 543 -17 626 -17 q 282 48 391 -17 q 116 229 173 113 q 60 500 60 346 q 120 769 60 654 q 290 948 180 885 q 544 1011 400 1011 q 817 938 714 1011 q 960 720 919 865 l 760 682 q 684 799 738 759 q 544 839 629 839 m 547 -172 l 452 -172 l 452 -51 l 648 -51 l 648 -140 q 628 -235 648 -201 q 568 -284 608 -269 q 463 -302 528 -299 l 452 -227 q 526 -212 505 -226 q 547 -172 547 -197 z "},"ģ":{"ha":850,"x_min":47,"x_max":755,"o":"m 755 720 l 755 66 q 718 -141 755 -62 q 601 -256 680 -220 q 399 -292 523 -292 q 72 -47 94 -292 l 269 -79 q 308 -130 276 -114 q 406 -146 340 -146 q 526 -106 484 -146 q 568 22 568 -66 l 568 98 l 565 98 q 480 27 536 55 q 356 0 424 0 q 195 46 265 0 q 86 176 125 93 q 47 365 47 259 q 85 565 47 481 q 192 692 122 648 q 355 736 261 736 q 484 709 427 736 q 575 632 541 682 l 578 632 l 578 720 l 755 720 m 397 584 q 313 558 348 584 q 261 484 279 532 q 243 374 243 437 q 262 256 243 308 q 316 175 281 204 q 400 146 352 146 q 487 174 450 146 q 546 254 525 203 q 566 371 566 304 q 546 480 566 432 q 487 556 525 529 q 397 584 448 584 m 387 918 l 481 918 l 481 791 l 286 791 l 286 890 q 305 983 286 950 q 365 1032 325 1017 q 471 1052 405 1047 l 481 977 q 422 966 444 974 q 394 947 401 959 q 387 918 387 936 z "},"Ħ":{"ha":1002,"x_min":26,"x_max":975,"o":"m 104 871 l 104 994 l 304 994 l 304 871 l 697 871 l 697 994 l 897 994 l 897 871 l 975 871 l 975 703 l 897 703 l 897 0 l 697 0 l 697 443 l 304 443 l 304 0 l 104 0 l 104 703 l 26 703 l 26 871 l 104 871 m 697 611 l 697 703 l 304 703 l 304 611 l 697 611 z "},"ħ":{"ha":827,"x_min":1,"x_max":736,"o":"m 94 924 l 94 994 l 285 994 l 285 924 l 450 924 l 450 798 l 285 798 l 285 640 q 380 713 326 690 q 491 736 434 736 q 671 674 606 736 q 736 494 736 612 l 736 0 l 545 0 l 545 450 q 517 556 545 523 q 433 590 490 590 q 332 548 380 590 q 285 399 285 505 l 285 0 l 94 0 l 94 798 l 1 798 l 1 924 l 94 924 z "},"Ī":{"ha":409,"x_min":-14,"x_max":425,"o":"m 104 0 l 104 994 l 304 994 l 304 0 l 104 0 m -14 1096 l -14 1230 l 425 1230 l 425 1096 l -14 1096 z "},"ī":{"ha":379,"x_min":-16,"x_max":395,"o":"m 94 0 l 94 720 l 285 720 l 285 0 l 94 0 m -16 847 l -16 974 l 395 974 l 395 847 l -16 847 z "},"Į":{"ha":409,"x_min":47,"x_max":331,"o":"m 331 -171 l 331 -264 q 271 -284 305 -277 q 202 -292 237 -292 q 84 -257 121 -292 q 47 -157 47 -222 q 61 -77 47 -117 q 104 0 76 -37 l 104 994 l 304 994 l 304 0 l 210 0 q 169 -121 169 -62 q 186 -172 169 -156 q 239 -187 203 -187 q 284 -183 258 -187 q 331 -171 311 -179 z "},"į":{"ha":379,"x_min":37,"x_max":321,"o":"m 94 818 l 94 994 l 285 994 l 285 818 l 94 818 m 321 -171 l 321 -264 q 261 -284 295 -277 q 192 -292 227 -292 q 74 -257 111 -292 q 37 -157 37 -222 q 51 -77 37 -117 q 94 0 66 -37 l 94 720 l 285 720 l 285 0 l 199 0 q 159 -121 159 -62 q 176 -172 159 -156 q 229 -187 193 -187 q 274 -183 248 -187 q 321 -171 300 -179 z "},"İ":{"ha":409,"x_min":104,"x_max":304,"o":"m 104 0 l 104 994 l 304 994 l 304 0 l 104 0 m 105 1082 l 105 1266 l 302 1266 l 302 1082 l 105 1082 z "},"ı":{"ha":379,"x_min":94,"x_max":285,"o":"m 94 0 l 94 720 l 285 720 l 285 0 l 94 0 z "},"Ķ":{"ha":985,"x_min":104,"x_max":981,"o":"m 704 994 l 954 994 l 593 600 l 981 0 l 732 0 l 454 459 l 304 300 l 304 0 l 104 0 l 104 994 l 304 994 l 304 553 l 704 994 m 497 -172 l 403 -172 l 403 -51 l 598 -51 l 598 -140 q 578 -235 598 -201 q 519 -284 559 -269 q 413 -302 479 -299 l 403 -227 q 476 -212 455 -226 q 497 -172 497 -197 z "},"ķ":{"ha":774,"x_min":94,"x_max":760,"o":"m 512 720 l 743 720 l 497 457 l 760 0 l 544 0 l 368 325 l 285 237 l 285 0 l 94 0 l 94 994 l 285 994 l 285 467 l 512 720 m 402 -172 l 308 -172 l 308 -51 l 503 -51 l 503 -140 q 484 -235 503 -201 q 424 -284 464 -269 q 318 -302 384 -299 l 308 -227 q 381 -212 360 -226 q 402 -172 402 -197 z "},"Ĺ":{"ha":785,"x_min":99,"x_max":749,"o":"m 749 168 l 749 0 l 104 0 l 104 994 l 304 994 l 304 168 l 749 168 m 99 1063 l 184 1263 l 406 1263 l 231 1063 l 99 1063 z "},"ĺ":{"ha":379,"x_min":80,"x_max":387,"o":"m 94 0 l 94 994 l 285 994 l 285 0 l 94 0 m 80 1047 l 175 1247 l 387 1247 l 201 1047 l 80 1047 z "},"Ļ":{"ha":785,"x_min":104,"x_max":749,"o":"m 749 168 l 749 0 l 104 0 l 104 994 l 304 994 l 304 168 l 749 168 m 436 -172 l 342 -172 l 342 -51 l 537 -51 l 537 -140 q 517 -235 537 -201 q 458 -284 498 -269 q 352 -302 418 -299 l 342 -227 q 415 -212 394 -226 q 436 -172 436 -197 z "},"ļ":{"ha":379,"x_min":94,"x_max":289,"o":"m 94 0 l 94 994 l 285 994 l 285 0 l 94 0 m 188 -172 l 94 -172 l 94 -51 l 289 -51 l 289 -140 q 269 -235 289 -201 q 210 -284 250 -269 q 104 -302 170 -299 l 94 -227 q 167 -212 146 -226 q 188 -172 188 -197 z "},"Ľ":{"ha":785,"x_min":104,"x_max":749,"o":"m 749 168 l 749 0 l 104 0 l 104 994 l 304 994 l 304 168 l 749 168 m 490 576 l 452 659 q 534 710 509 677 q 561 799 559 743 l 467 799 l 467 994 l 662 994 l 662 846 q 647 721 662 770 q 596 637 633 672 q 490 576 559 603 z "},"ľ":{"ha":559,"x_min":94,"x_max":559,"o":"m 94 0 l 94 994 l 285 994 l 285 0 l 94 0 m 399 633 l 363 711 q 440 750 417 725 q 465 820 463 776 l 377 820 l 377 994 l 559 994 l 559 863 q 545 756 559 798 q 497 686 532 715 q 399 633 463 656 z "},"Ł":{"ha":785,"x_min":7,"x_max":749,"o":"m 536 852 l 536 688 l 304 494 l 304 168 l 749 168 l 749 0 l 104 0 l 104 338 l 7 258 l 7 418 l 104 500 l 104 994 l 304 994 l 304 659 l 536 852 z "},"ł":{"ha":379,"x_min":1,"x_max":378,"o":"m 378 729 l 378 600 l 285 521 l 285 0 l 94 0 l 94 366 l 1 288 l 1 416 l 94 495 l 94 994 l 285 994 l 285 650 l 378 729 z "},"Ń":{"ha":996,"x_min":104,"x_max":892,"o":"m 705 994 l 892 994 l 892 0 l 690 0 l 291 648 l 291 0 l 104 0 l 104 994 l 299 994 l 705 330 l 705 994 m 391 1063 l 476 1263 l 699 1263 l 523 1063 l 391 1063 z "},"ń":{"ha":827,"x_min":94,"x_max":736,"o":"m 545 450 q 519 554 545 519 q 433 590 494 590 q 326 543 368 590 q 285 399 284 496 l 285 0 l 94 0 l 94 720 l 272 720 l 272 625 q 367 708 311 680 q 491 736 423 736 q 673 672 610 736 q 736 494 736 609 l 736 0 l 545 0 l 545 450 m 322 811 l 417 1011 l 629 1011 l 444 811 l 322 811 z "},"Ņ":{"ha":996,"x_min":104,"x_max":892,"o":"m 705 994 l 892 994 l 892 0 l 690 0 l 291 648 l 291 0 l 104 0 l 104 994 l 299 994 l 705 330 l 705 994 m 487 -172 l 393 -172 l 393 -51 l 588 -51 l 588 -140 q 568 -235 588 -201 q 509 -284 549 -269 q 403 -302 469 -299 l 393 -227 q 466 -212 445 -226 q 487 -172 487 -197 z "},"ņ":{"ha":827,"x_min":94,"x_max":736,"o":"m 545 450 q 519 554 545 519 q 433 590 494 590 q 326 543 368 590 q 285 399 284 496 l 285 0 l 94 0 l 94 720 l 272 720 l 272 625 q 367 708 311 680 q 491 736 423 736 q 673 672 610 736 q 736 494 736 609 l 736 0 l 545 0 l 545 450 m 405 -172 l 311 -172 l 311 -51 l 506 -51 l 506 -140 q 486 -235 506 -201 q 427 -284 467 -269 q 321 -302 387 -299 l 311 -227 q 384 -212 363 -226 q 405 -172 405 -197 z "},"Ň":{"ha":996,"x_min":104,"x_max":892,"o":"m 705 994 l 892 994 l 892 0 l 690 0 l 291 648 l 291 0 l 104 0 l 104 994 l 299 994 l 705 330 l 705 994 m 422 1263 l 499 1168 l 576 1263 l 736 1263 l 587 1063 l 412 1063 l 262 1263 l 422 1263 z "},"ň":{"ha":827,"x_min":94,"x_max":736,"o":"m 545 450 q 519 554 545 519 q 433 590 494 590 q 326 543 368 590 q 285 399 284 496 l 285 0 l 94 0 l 94 720 l 272 720 l 272 625 q 367 708 311 680 q 491 736 423 736 q 673 672 610 736 q 736 494 736 609 l 736 0 l 545 0 l 545 450 m 350 1011 l 427 909 l 505 1011 l 657 1011 l 515 811 l 340 811 l 197 1011 l 350 1011 z "},"Ŋ":{"ha":996,"x_min":104,"x_max":892,"o":"m 299 994 l 705 330 l 705 994 l 892 994 l 892 -18 q 842 -224 892 -157 q 675 -292 792 -292 q 607 -285 643 -292 q 542 -271 570 -279 l 572 -115 q 596 -118 583 -117 q 623 -120 608 -120 q 688 -94 671 -120 q 705 -16 705 -67 l 705 -7 l 291 648 l 291 0 l 104 0 l 104 994 l 299 994 z "},"ŋ":{"ha":827,"x_min":94,"x_max":736,"o":"m 545 450 q 517 556 545 523 q 433 590 490 590 q 325 541 364 590 q 285 399 285 491 l 285 0 l 94 0 l 94 720 l 272 720 l 272 625 q 367 708 311 680 q 491 736 423 736 q 671 674 606 736 q 736 494 736 612 l 736 -18 q 686 -224 736 -157 q 519 -292 636 -292 q 451 -285 487 -292 q 386 -271 414 -279 l 416 -118 q 440 -122 427 -120 q 467 -123 452 -123 q 526 -102 507 -123 q 545 -19 545 -81 l 545 450 z "},"Ō":{"ha":1090,"x_min":60,"x_max":1031,"o":"m 60 492 q 119 766 60 649 q 288 947 178 883 q 545 1011 398 1011 q 802 947 692 1011 q 971 767 911 884 q 1031 496 1031 650 q 972 229 1031 345 q 804 48 913 113 q 547 -17 695 -17 q 289 47 399 -17 q 119 227 178 111 q 60 492 60 342 m 545 839 q 396 795 459 839 q 300 674 334 751 q 267 497 267 597 q 300 320 267 397 q 395 199 332 243 q 546 155 458 155 q 695 199 632 155 q 790 320 758 242 q 823 500 823 398 q 790 674 823 597 q 695 795 758 751 q 545 839 632 839 m 321 1096 l 321 1230 l 759 1230 l 759 1096 l 321 1096 z "},"ō":{"ha":822,"x_min":47,"x_max":774,"o":"m 47 364 q 91 555 47 470 q 216 688 134 640 q 410 736 298 736 q 606 687 523 736 q 731 554 688 639 q 774 363 774 470 q 731 166 774 252 q 606 32 688 80 q 411 -17 524 -17 q 216 32 298 -17 q 91 166 134 80 q 47 364 47 252 m 409 581 q 324 554 361 581 q 264 477 286 528 q 243 359 243 427 q 263 242 243 292 q 321 166 283 193 q 410 139 359 139 q 499 165 460 139 q 558 242 537 192 q 579 361 579 292 q 559 476 579 427 q 500 553 538 526 q 409 581 462 581 m 222 847 l 222 974 l 633 974 l 633 847 l 222 847 z "},"Ő":{"ha":1090,"x_min":60,"x_max":1031,"o":"m 60 492 q 119 766 60 649 q 288 947 178 883 q 545 1011 398 1011 q 802 947 692 1011 q 971 767 911 884 q 1031 496 1031 650 q 972 229 1031 345 q 804 48 913 113 q 547 -17 695 -17 q 289 47 399 -17 q 119 227 178 111 q 60 492 60 342 m 545 839 q 396 795 459 839 q 300 674 334 751 q 267 497 267 597 q 300 320 267 397 q 395 199 332 243 q 546 155 458 155 q 695 199 632 155 q 790 320 758 242 q 823 500 823 398 q 790 674 823 597 q 695 795 758 751 q 545 839 632 839 m 333 1063 l 421 1263 l 633 1263 l 454 1063 l 333 1063 m 591 1063 l 680 1263 l 892 1263 l 713 1063 l 591 1063 z "},"ő":{"ha":822,"x_min":47,"x_max":774,"o":"m 47 364 q 91 555 47 470 q 216 688 134 640 q 410 736 298 736 q 606 687 523 736 q 731 554 688 639 q 774 363 774 470 q 731 166 774 252 q 606 32 688 80 q 411 -17 524 -17 q 216 32 298 -17 q 91 166 134 80 q 47 364 47 252 m 409 581 q 324 554 361 581 q 264 477 286 528 q 243 359 243 427 q 263 242 243 292 q 321 166 283 193 q 410 139 359 139 q 499 165 460 139 q 558 242 537 192 q 579 361 579 292 q 559 476 579 427 q 500 553 538 526 q 409 581 462 581 m 214 811 l 309 1011 l 515 1011 l 328 811 l 214 811 m 473 811 l 568 1011 l 773 1011 l 587 811 l 473 811 z "},"Œ":{"ha":1525,"x_min":60,"x_max":1458,"o":"m 979 826 l 979 599 l 1397 599 l 1397 431 l 979 431 l 979 168 l 1458 168 l 1458 0 l 789 0 l 789 122 q 708 40 750 70 q 613 -4 665 9 q 491 -17 561 -17 q 268 48 366 -17 q 115 228 170 113 q 60 492 60 344 q 116 766 60 648 q 272 947 172 884 q 504 1011 373 1011 q 789 872 692 1011 l 789 994 l 1434 994 l 1434 826 l 979 826 m 522 839 q 385 797 443 839 q 297 677 328 754 q 267 497 267 600 q 297 317 267 395 q 385 198 327 240 q 523 155 442 155 q 660 199 602 155 q 747 320 717 242 q 777 500 777 398 q 747 674 777 597 q 659 795 717 751 q 522 839 602 839 z "},"œ":{"ha":1268,"x_min":47,"x_max":1221,"o":"m 899 129 q 975 157 942 129 q 1021 229 1008 184 l 1211 199 q 1093 39 1175 94 q 891 -17 1010 -17 q 748 12 810 -17 q 642 95 685 41 q 533 12 596 41 q 397 -17 471 -17 q 210 32 289 -17 q 89 166 131 80 q 47 364 47 252 q 89 554 47 470 q 210 687 131 639 q 396 736 289 736 q 539 705 474 736 q 650 618 604 674 q 753 705 693 673 q 889 736 814 736 q 1065 691 990 736 q 1180 561 1139 647 q 1221 354 1221 475 l 1221 296 l 743 296 q 791 170 749 210 q 899 129 832 129 m 890 590 q 789 550 829 590 q 743 435 749 510 l 1032 435 q 990 551 1027 513 q 890 590 953 590 m 395 581 q 317 554 352 581 q 263 477 283 528 q 243 359 243 427 q 261 242 243 292 q 315 166 280 193 q 396 139 349 139 q 478 165 443 139 q 533 242 513 192 q 552 361 552 292 q 533 476 552 427 q 479 553 515 526 q 395 581 444 581 z "},"Ŕ":{"ha":936,"x_min":104,"x_max":922,"o":"m 865 715 q 812 543 865 610 q 648 443 759 475 l 648 440 q 695 413 674 431 q 739 361 716 395 q 791 267 762 327 l 922 0 l 703 0 l 608 199 q 524 346 557 304 q 479 388 501 374 q 424 409 457 403 q 332 415 390 415 l 304 415 l 304 0 l 104 0 l 104 994 l 517 994 q 774 922 684 994 q 865 715 865 850 m 659 703 q 620 798 659 768 q 498 827 581 827 l 304 827 l 304 574 l 475 574 q 612 603 566 574 q 659 703 659 632 m 357 1063 l 441 1263 l 664 1263 l 488 1063 l 357 1063 z "},"ŕ":{"ha":581,"x_min":94,"x_max":583,"o":"m 433 564 q 323 505 361 564 q 285 340 285 447 l 285 0 l 94 0 l 94 720 l 271 720 l 271 618 l 273 618 q 354 708 311 681 q 457 736 397 736 q 524 727 494 736 q 583 704 554 719 l 522 534 q 480 554 507 545 q 433 564 454 564 m 221 811 l 316 1011 l 528 1011 l 342 811 l 221 811 z "},"Ŗ":{"ha":936,"x_min":104,"x_max":922,"o":"m 865 715 q 812 543 865 610 q 648 443 759 475 l 648 440 q 695 413 674 431 q 739 361 716 395 q 791 267 762 327 l 922 0 l 703 0 l 608 199 q 524 346 557 304 q 479 388 501 374 q 424 409 457 403 q 332 415 390 415 l 304 415 l 304 0 l 104 0 l 104 994 l 517 994 q 774 922 684 994 q 865 715 865 850 m 659 703 q 620 798 659 768 q 498 827 581 827 l 304 827 l 304 574 l 475 574 q 612 603 566 574 q 659 703 659 632 m 477 -172 l 382 -172 l 382 -51 l 578 -51 l 578 -140 q 558 -235 578 -201 q 498 -284 538 -269 q 393 -302 458 -299 l 382 -227 q 456 -212 435 -226 q 477 -172 477 -197 z "},"ŗ":{"ha":581,"x_min":93,"x_max":583,"o":"m 433 564 q 323 505 361 564 q 285 340 285 447 l 285 0 l 94 0 l 94 720 l 271 720 l 271 618 l 273 618 q 354 708 311 681 q 457 736 397 736 q 524 727 494 736 q 583 704 554 719 l 522 534 q 480 554 507 545 q 433 564 454 564 m 187 -172 l 93 -172 l 93 -51 l 288 -51 l 288 -140 q 269 -235 288 -201 q 209 -284 249 -269 q 103 -302 169 -299 l 93 -227 q 166 -212 145 -226 q 187 -172 187 -197 z "},"Ř":{"ha":936,"x_min":104,"x_max":922,"o":"m 865 715 q 812 543 865 610 q 648 443 759 475 l 648 440 q 695 413 674 431 q 739 361 716 395 q 791 267 762 327 l 922 0 l 703 0 l 608 199 q 524 346 557 304 q 479 388 501 374 q 424 409 457 403 q 332 415 390 415 l 304 415 l 304 0 l 104 0 l 104 994 l 517 994 q 774 922 684 994 q 865 715 865 850 m 659 703 q 620 798 659 768 q 498 827 581 827 l 304 827 l 304 574 l 475 574 q 612 603 566 574 q 659 703 659 632 m 385 1263 l 462 1168 l 539 1263 l 699 1263 l 549 1063 l 374 1063 l 225 1263 l 385 1263 z "},"ř":{"ha":581,"x_min":83,"x_max":583,"o":"m 433 564 q 323 505 361 564 q 285 340 285 447 l 285 0 l 94 0 l 94 720 l 271 720 l 271 618 l 273 618 q 354 708 311 681 q 457 736 397 736 q 524 727 494 736 q 583 704 554 719 l 522 534 q 480 554 507 545 q 433 564 454 564 m 236 1011 l 313 909 l 391 1011 l 543 1011 l 401 811 l 226 811 l 83 1011 l 236 1011 z "},"Ś":{"ha":897,"x_min":47,"x_max":838,"o":"m 428 846 q 321 820 364 846 q 278 747 278 794 q 298 694 278 716 q 365 654 317 672 q 500 615 412 635 q 705 542 631 585 q 808 438 779 498 q 838 290 838 378 q 784 118 838 186 q 642 16 730 49 q 448 -17 553 -17 q 175 69 279 -17 q 47 317 71 155 l 248 341 q 314 197 265 243 q 454 151 363 151 q 550 166 508 151 q 614 210 591 182 q 637 275 637 237 q 621 343 637 319 q 556 388 604 368 q 404 432 507 408 q 212 504 283 461 q 112 602 142 547 q 83 732 83 658 q 124 877 83 814 q 246 976 166 940 q 437 1011 326 1011 q 692 938 597 1011 q 810 724 787 864 l 610 701 q 556 812 600 779 q 428 846 512 846 m 347 1063 l 431 1263 l 654 1263 l 478 1063 l 347 1063 z "},"ś":{"ha":711,"x_min":41,"x_max":667,"o":"m 347 600 q 273 584 301 600 q 245 541 245 568 q 259 505 245 519 q 306 478 272 490 q 399 456 339 467 q 602 379 536 433 q 667 225 667 324 q 630 101 667 156 q 525 14 593 45 q 363 -17 456 -17 q 140 40 221 -17 q 41 205 58 96 l 220 234 q 266 148 232 177 q 363 119 300 119 q 450 140 417 119 q 482 196 482 160 q 471 230 482 216 q 431 254 460 243 q 348 273 402 265 q 130 357 198 296 q 62 520 62 418 q 97 635 62 586 q 196 710 132 684 q 350 736 261 736 q 553 686 476 736 q 647 543 631 635 l 465 517 q 426 578 457 557 q 347 600 394 600 m 278 811 l 373 1011 l 585 1011 l 399 811 l 278 811 z "},"Ş":{"ha":897,"x_min":47,"x_max":838,"o":"m 363 -198 q 438 -189 412 -198 q 463 -159 463 -180 q 448 -131 463 -140 q 411 -122 433 -122 q 370 -127 390 -122 l 397 -14 q 159 83 250 -2 q 47 317 68 168 l 248 341 q 314 197 265 243 q 454 151 363 151 q 550 166 508 151 q 614 210 591 182 q 637 275 637 237 q 621 343 637 319 q 556 388 604 368 q 404 432 507 408 q 212 504 283 461 q 112 602 142 547 q 83 732 83 658 q 124 877 83 814 q 246 976 166 940 q 437 1011 326 1011 q 692 938 597 1011 q 810 724 787 864 l 610 701 q 556 812 600 779 q 428 846 512 846 q 321 820 364 846 q 278 747 278 794 q 298 694 278 716 q 365 654 317 672 q 500 615 412 635 q 705 542 631 585 q 808 438 779 498 q 838 290 838 378 q 791 127 838 193 q 666 26 744 61 q 492 -15 588 -9 l 481 -58 q 589 -89 553 -63 q 624 -165 624 -115 q 598 -230 624 -201 q 518 -275 572 -258 q 386 -292 465 -292 q 334 -289 366 -292 q 279 -284 302 -287 l 288 -193 q 363 -198 328 -198 z "},"ş":{"ha":711,"x_min":41,"x_max":667,"o":"m 271 -198 q 346 -189 320 -198 q 371 -159 371 -180 q 356 -131 371 -140 q 319 -122 341 -122 q 277 -127 298 -122 l 304 -14 q 123 52 189 -3 q 41 205 56 108 l 220 234 q 266 148 232 177 q 363 119 300 119 q 450 140 417 119 q 482 196 482 160 q 471 230 482 216 q 431 254 460 243 q 348 273 402 265 q 130 357 198 296 q 62 520 62 418 q 97 635 62 586 q 196 710 132 684 q 350 736 261 736 q 553 686 476 736 q 647 543 631 635 l 465 517 q 426 578 457 557 q 347 600 394 600 q 273 584 301 600 q 245 541 245 568 q 259 505 245 519 q 306 478 272 490 q 399 456 339 467 q 602 379 536 433 q 667 225 667 324 q 635 108 667 160 q 543 23 603 56 q 399 -16 482 -9 l 389 -58 q 496 -89 461 -63 q 532 -165 532 -115 q 506 -230 532 -201 q 426 -275 479 -258 q 294 -292 372 -292 q 242 -289 274 -292 q 186 -284 210 -287 l 196 -193 q 271 -198 235 -198 z "},"Š":{"ha":897,"x_min":47,"x_max":838,"o":"m 428 846 q 321 820 364 846 q 278 747 278 794 q 298 694 278 716 q 365 654 317 672 q 500 615 412 635 q 705 542 631 585 q 808 438 779 498 q 838 290 838 378 q 784 118 838 186 q 642 16 730 49 q 448 -17 553 -17 q 175 69 279 -17 q 47 317 71 155 l 248 341 q 314 197 265 243 q 454 151 363 151 q 550 166 508 151 q 614 210 591 182 q 637 275 637 237 q 621 343 637 319 q 556 388 604 368 q 404 432 507 408 q 212 504 283 461 q 112 602 142 547 q 83 732 83 658 q 124 877 83 814 q 246 976 166 940 q 437 1011 326 1011 q 692 938 597 1011 q 810 724 787 864 l 610 701 q 556 812 600 779 q 428 846 512 846 m 373 1263 l 450 1168 l 528 1263 l 687 1263 l 538 1063 l 363 1063 l 214 1263 l 373 1263 z "},"š":{"ha":711,"x_min":41,"x_max":667,"o":"m 347 600 q 273 584 301 600 q 245 541 245 568 q 259 505 245 519 q 306 478 272 490 q 399 456 339 467 q 602 379 536 433 q 667 225 667 324 q 630 101 667 156 q 525 14 593 45 q 363 -17 456 -17 q 140 40 221 -17 q 41 205 58 96 l 220 234 q 266 148 232 177 q 363 119 300 119 q 450 140 417 119 q 482 196 482 160 q 471 230 482 216 q 431 254 460 243 q 348 273 402 265 q 130 357 198 296 q 62 520 62 418 q 97 635 62 586 q 196 710 132 684 q 350 736 261 736 q 553 686 476 736 q 647 543 631 635 l 465 517 q 426 578 457 557 q 347 600 394 600 m 271 1011 l 349 909 l 426 1011 l 578 1011 l 436 811 l 261 811 l 119 1011 l 271 1011 z "},"Ţ":{"ha":843,"x_min":34,"x_max":809,"o":"m 437 -58 q 544 -89 509 -63 q 579 -165 579 -115 q 553 -230 579 -201 q 473 -275 527 -258 q 341 -292 420 -292 q 289 -289 321 -292 q 234 -284 257 -287 l 243 -193 q 319 -198 283 -198 q 393 -189 368 -198 q 418 -159 418 -180 q 404 -131 418 -140 q 366 -122 389 -122 q 325 -127 345 -122 l 355 0 l 321 0 l 321 826 l 34 826 l 34 994 l 809 994 l 809 826 l 522 826 l 522 0 l 450 0 l 437 -58 z "},"ţ":{"ha":484,"x_min":14,"x_max":458,"o":"m 448 -165 q 422 -230 448 -201 q 342 -275 396 -258 q 210 -292 289 -292 q 158 -289 191 -292 q 103 -284 126 -287 l 113 -193 q 188 -198 152 -198 q 262 -189 237 -198 q 288 -159 288 -180 q 273 -131 288 -140 q 235 -122 258 -122 q 194 -127 214 -122 l 223 -7 q 139 59 163 9 q 115 205 115 109 l 115 568 l 14 568 l 14 720 l 115 720 l 115 851 l 306 986 l 306 720 l 440 720 l 440 568 l 306 568 l 306 218 q 310 171 306 186 q 326 148 315 155 q 359 142 337 142 q 435 153 395 142 l 458 5 q 315 -17 395 -16 l 306 -58 q 413 -89 378 -63 q 448 -165 448 -115 z "},"Ť":{"ha":843,"x_min":34,"x_max":809,"o":"m 522 826 l 522 0 l 321 0 l 321 826 l 34 826 l 34 994 l 809 994 l 809 826 l 522 826 m 345 1263 l 422 1168 l 499 1263 l 659 1263 l 509 1063 l 334 1063 l 185 1263 l 345 1263 z "},"ť":{"ha":570,"x_min":14,"x_max":570,"o":"m 440 720 l 440 568 l 306 568 l 306 218 q 310 171 306 186 q 326 148 315 155 q 359 142 337 142 q 435 153 395 142 l 458 5 q 389 -11 427 -5 q 313 -17 351 -17 q 194 4 237 -17 q 133 73 151 25 q 115 205 115 121 l 115 568 l 14 568 l 14 720 l 115 720 l 115 851 l 306 986 l 306 720 l 440 720 m 411 749 l 375 826 q 452 866 429 840 q 477 935 475 891 l 389 935 l 389 1109 l 570 1109 l 570 979 q 557 872 570 913 q 509 801 543 830 q 411 749 475 772 z "},"Ū":{"ha":991,"x_min":99,"x_max":892,"o":"m 501 155 q 619 180 578 155 q 676 259 660 205 q 692 405 692 312 l 692 994 l 892 994 l 892 410 q 856 165 892 258 q 735 27 819 72 q 506 -17 651 -17 q 264 30 353 -17 q 137 169 175 77 q 99 408 99 262 l 99 994 l 299 994 l 299 402 q 320 259 299 313 q 385 180 340 205 q 501 155 429 155 m 277 1096 l 277 1230 l 715 1230 l 715 1096 l 277 1096 z "},"ū":{"ha":827,"x_min":91,"x_max":732,"o":"m 394 129 q 463 145 429 129 q 519 205 496 162 q 542 319 542 248 l 542 720 l 732 720 l 732 0 l 555 0 l 555 94 q 460 12 517 41 q 336 -17 404 -17 q 154 47 216 -17 q 91 226 91 111 l 91 720 l 281 720 l 281 270 q 309 163 281 198 q 394 129 336 129 m 210 847 l 210 974 l 621 974 l 621 847 l 210 847 z "},"Ŭ":{"ha":991,"x_min":99,"x_max":892,"o":"m 501 155 q 619 180 578 155 q 676 259 660 205 q 692 405 692 312 l 692 994 l 892 994 l 892 410 q 856 165 892 258 q 735 27 819 72 q 506 -17 651 -17 q 264 30 353 -17 q 137 169 175 77 q 99 408 99 262 l 99 994 l 299 994 l 299 402 q 320 259 299 313 q 385 180 340 205 q 501 155 429 155 m 496 1174 q 567 1197 543 1174 q 597 1263 591 1220 l 717 1263 q 650 1111 707 1164 q 496 1057 593 1057 q 341 1108 398 1057 q 275 1263 285 1158 l 394 1263 q 426 1196 399 1219 q 496 1174 453 1174 z "},"ŭ":{"ha":827,"x_min":91,"x_max":732,"o":"m 394 129 q 463 145 429 129 q 519 205 496 162 q 542 319 542 248 l 542 720 l 732 720 l 732 0 l 555 0 l 555 94 q 460 12 517 41 q 336 -17 404 -17 q 154 47 216 -17 q 91 226 91 111 l 91 720 l 281 720 l 281 270 q 309 163 281 198 q 394 129 336 129 m 413 916 q 485 940 461 916 q 515 1011 508 964 l 627 1011 q 563 859 618 911 q 413 806 509 806 q 263 856 317 806 q 199 1011 209 906 l 311 1011 q 343 939 317 963 q 413 916 370 916 z "},"Ů":{"ha":991,"x_min":99,"x_max":892,"o":"m 501 155 q 619 180 578 155 q 676 259 660 205 q 692 405 692 312 l 692 994 l 892 994 l 892 410 q 856 165 892 258 q 735 27 819 72 q 506 -17 651 -17 q 264 30 353 -17 q 137 169 175 77 q 99 408 99 262 l 99 994 l 299 994 l 299 402 q 320 259 299 313 q 385 180 340 205 q 501 155 429 155 m 363 1171 q 381 1240 363 1210 q 430 1287 399 1270 q 497 1304 460 1304 q 564 1287 533 1304 q 612 1240 594 1270 q 629 1171 629 1210 q 611 1104 629 1135 q 563 1056 593 1074 q 497 1039 532 1039 q 431 1056 461 1039 q 382 1104 400 1074 q 363 1171 363 1135 m 496 1232 q 453 1215 469 1232 q 436 1171 436 1198 q 453 1128 436 1145 q 497 1112 469 1112 q 540 1128 524 1112 q 557 1171 557 1144 q 540 1215 557 1197 q 496 1232 524 1232 z "},"ů":{"ha":827,"x_min":91,"x_max":732,"o":"m 394 129 q 463 145 429 129 q 519 205 496 162 q 542 319 542 248 l 542 720 l 732 720 l 732 0 l 555 0 l 555 94 q 460 12 517 41 q 336 -17 404 -17 q 154 47 216 -17 q 91 226 91 111 l 91 720 l 281 720 l 281 270 q 309 163 281 198 q 394 129 336 129 m 329 827 q 290 920 290 866 q 328 1014 290 975 q 423 1053 368 1053 q 517 1013 478 1053 q 555 920 555 975 q 516 827 555 866 q 423 787 477 787 q 329 827 368 787 m 422 981 q 380 962 398 981 q 362 920 362 944 q 380 877 362 895 q 423 860 398 860 q 465 878 448 860 q 483 920 483 895 q 465 963 483 945 q 422 981 448 981 z "},"Ű":{"ha":991,"x_min":99,"x_max":892,"o":"m 501 155 q 619 180 578 155 q 676 259 660 205 q 692 405 692 312 l 692 994 l 892 994 l 892 410 q 856 165 892 258 q 735 27 819 72 q 506 -17 651 -17 q 264 30 353 -17 q 137 169 175 77 q 99 408 99 262 l 99 994 l 299 994 l 299 402 q 320 259 299 313 q 385 180 340 205 q 501 155 429 155 m 309 1063 l 397 1263 l 610 1263 l 430 1063 l 309 1063 m 568 1063 l 656 1263 l 868 1263 l 689 1063 l 568 1063 z "},"ű":{"ha":827,"x_min":91,"x_max":791,"o":"m 394 129 q 463 145 429 129 q 519 205 496 162 q 542 319 542 248 l 542 720 l 732 720 l 732 0 l 555 0 l 555 94 q 460 12 517 41 q 336 -17 404 -17 q 154 47 216 -17 q 91 226 91 111 l 91 720 l 281 720 l 281 270 q 309 163 281 198 q 394 129 336 129 m 232 811 l 327 1011 l 532 1011 l 346 811 l 232 811 m 490 811 l 585 1011 l 791 1011 l 605 811 l 490 811 z "},"Ų":{"ha":991,"x_min":99,"x_max":892,"o":"m 892 410 q 865 190 892 277 q 775 54 838 103 q 608 -11 713 4 q 574 -121 574 -68 q 591 -172 574 -156 q 644 -187 608 -187 q 689 -183 663 -187 q 736 -171 715 -179 l 736 -264 q 676 -284 710 -277 q 607 -292 642 -292 q 489 -257 526 -292 q 452 -157 452 -222 q 497 -17 452 -84 q 261 32 348 -16 q 136 171 174 79 q 99 408 99 263 l 99 994 l 299 994 l 299 402 q 320 259 299 313 q 385 180 340 205 q 501 155 429 155 q 619 180 578 155 q 676 259 660 205 q 692 405 692 312 l 692 994 l 892 994 l 892 410 z "},"ų":{"ha":827,"x_min":91,"x_max":781,"o":"m 781 -171 l 781 -264 q 721 -284 755 -277 q 652 -292 687 -292 q 533 -257 570 -292 q 496 -157 496 -222 q 511 -76 496 -116 q 555 1 526 -36 l 555 94 q 460 12 517 41 q 336 -17 404 -17 q 154 47 216 -17 q 91 226 91 111 l 91 720 l 281 720 l 281 270 q 309 163 281 198 q 394 129 336 129 q 463 145 429 129 q 519 205 496 162 q 542 319 542 248 l 542 720 l 732 720 l 732 0 l 659 0 q 618 -121 618 -62 q 635 -172 618 -156 q 688 -187 652 -187 q 734 -183 708 -187 q 781 -171 760 -179 z "},"Ÿ":{"ha":909,"x_min":-3,"x_max":912,"o":"m 456 585 l 459 585 q 532 726 486 643 l 682 994 l 912 994 l 554 416 l 554 0 l 354 0 l 354 418 l -3 994 l 231 994 l 383 726 q 456 585 427 649 m 226 1082 l 226 1253 l 397 1253 l 397 1082 l 226 1082 m 517 1082 l 517 1253 l 688 1253 l 688 1082 l 517 1082 z "},"Ź":{"ha":848,"x_min":16,"x_max":823,"o":"m 258 168 l 823 168 l 823 0 l 16 0 l 16 180 l 538 826 l 75 826 l 75 994 l 802 994 l 802 838 l 258 168 m 342 1063 l 427 1263 l 650 1263 l 474 1063 l 342 1063 z "},"ź":{"ha":699,"x_min":26,"x_max":669,"o":"m 284 168 l 669 168 l 669 0 l 26 0 l 26 149 l 389 561 l 52 561 l 52 720 l 646 720 l 646 585 l 284 168 m 269 811 l 363 1011 l 576 1011 l 390 811 l 269 811 z "},"Ż":{"ha":848,"x_min":16,"x_max":823,"o":"m 258 168 l 823 168 l 823 0 l 16 0 l 16 180 l 538 826 l 75 826 l 75 994 l 802 994 l 802 838 l 258 168 m 329 1082 l 329 1266 l 526 1266 l 526 1082 l 329 1082 z "},"ż":{"ha":699,"x_min":26,"x_max":669,"o":"m 284 168 l 669 168 l 669 0 l 26 0 l 26 149 l 389 561 l 52 561 l 52 720 l 646 720 l 646 585 l 284 168 m 253 831 l 253 1008 l 444 1008 l 444 831 l 253 831 z "},"Ž":{"ha":848,"x_min":16,"x_max":823,"o":"m 258 168 l 823 168 l 823 0 l 16 0 l 16 180 l 538 826 l 75 826 l 75 994 l 802 994 l 802 838 l 258 168 m 356 1263 l 433 1168 l 511 1263 l 670 1263 l 521 1063 l 346 1063 l 197 1263 l 356 1263 z "},"ž":{"ha":699,"x_min":26,"x_max":669,"o":"m 284 168 l 669 168 l 669 0 l 26 0 l 26 149 l 389 561 l 52 561 l 52 720 l 646 720 l 646 585 l 284 168 m 272 1011 l 349 909 l 427 1011 l 579 1011 l 437 811 l 262 811 l 119 1011 l 272 1011 z "},"Ɓ":{"ha":1143,"x_min":0,"x_max":1082,"o":"m 21 638 q 7 706 14 662 q 0 780 0 751 q 60 941 0 887 q 248 994 121 994 l 718 994 q 956 929 877 994 q 1034 734 1034 863 q 997 611 1034 665 q 894 529 960 558 q 1034 439 985 503 q 1082 289 1082 376 q 986 73 1082 146 q 716 0 890 0 l 292 0 l 292 825 l 253 825 q 172 802 199 825 q 146 728 146 779 q 150 687 146 711 q 163 638 154 663 l 21 638 m 692 168 q 835 200 795 168 q 875 295 875 233 q 829 398 875 366 q 690 431 783 431 l 492 431 l 492 168 l 692 168 m 693 599 q 802 627 764 599 q 839 712 839 654 q 804 797 839 768 q 690 826 770 826 l 492 826 l 492 599 l 693 599 z "},"Ɔ":{"ha":1007,"x_min":56,"x_max":947,"o":"m 67 720 q 214 938 110 865 q 482 1011 319 1011 q 821 876 695 1011 q 947 505 947 740 q 824 121 947 258 q 482 -17 700 -17 q 204 71 317 -17 q 56 310 91 159 l 254 357 q 340 209 277 263 q 488 155 404 155 q 673 248 606 155 q 741 501 741 341 q 673 747 741 655 q 485 839 605 839 q 343 796 397 839 q 265 672 289 753 l 67 720 z "},"Ɖ":{"ha":998,"x_min":1,"x_max":938,"o":"m 938 490 q 829 131 938 262 q 493 0 720 0 l 104 0 l 104 427 l 1 427 l 1 566 l 104 566 l 104 994 l 495 994 q 938 490 938 994 m 730 496 q 703 690 730 618 q 617 794 675 762 q 463 826 559 826 l 304 826 l 304 566 l 517 566 l 517 427 l 304 427 l 304 168 l 465 168 q 622 199 565 168 q 705 301 680 230 q 730 496 730 372 z "},"Ɗ":{"ha":1184,"x_min":0,"x_max":1124,"o":"m 682 994 q 1014 867 903 994 q 1124 490 1124 741 q 1011 126 1124 253 q 680 0 897 0 l 291 0 l 291 825 l 253 825 q 172 802 199 825 q 146 728 146 779 q 150 687 146 711 q 163 638 154 663 l 21 638 q 7 706 14 662 q 0 780 0 751 q 60 941 0 887 q 248 994 121 994 l 682 994 m 652 168 q 860 241 803 168 q 917 496 917 314 q 858 748 917 671 q 649 826 798 826 l 491 826 l 491 168 l 652 168 z "},"Ǝ":{"ha":850,"x_min":66,"x_max":745,"o":"m 745 994 l 745 0 l 66 0 l 66 168 l 545 168 l 545 431 l 127 431 l 127 599 l 545 599 l 545 826 l 90 826 l 90 994 l 745 994 z "},"Ə":{"ha":1076,"x_min":60,"x_max":1017,"o":"m 60 585 l 802 585 q 720 773 789 707 q 538 839 651 839 q 373 799 439 839 q 279 684 306 758 l 74 716 q 246 937 127 861 q 538 1013 365 1013 q 891 878 765 1013 q 1017 503 1017 743 q 960 242 1017 361 q 792 53 903 123 q 532 -17 682 -17 q 187 120 314 -17 q 60 505 60 258 l 60 585 m 802 416 l 275 416 q 354 224 286 293 q 538 155 422 155 q 716 225 644 155 q 802 416 788 294 z "},"Ɛ":{"ha":933,"x_min":64,"x_max":883,"o":"m 250 541 q 144 627 179 574 q 109 741 109 680 q 204 944 109 877 q 487 1011 299 1011 q 705 966 605 1011 q 878 831 806 920 l 746 726 q 636 812 701 779 q 492 846 572 846 q 358 817 404 846 q 311 735 311 788 q 355 648 311 680 q 488 615 399 615 l 608 615 l 608 456 l 509 456 q 330 415 388 456 q 271 304 271 374 q 328 190 271 232 q 484 149 385 149 q 623 172 556 149 q 768 256 689 196 l 883 115 q 691 12 786 41 q 488 -17 596 -17 q 171 61 278 -17 q 64 296 64 140 q 114 453 64 386 q 250 538 165 519 l 250 541 z "},"Ƒ":{"ha":814,"x_min":-56,"x_max":771,"o":"m 771 994 l 771 826 l 302 826 l 302 580 l 720 580 l 720 412 l 302 412 l 302 -18 q 250 -225 302 -159 q 77 -292 197 -292 q 8 -285 45 -292 q -56 -271 -28 -279 l -26 -115 q -2 -118 -15 -117 q 24 -120 10 -120 q 84 -99 65 -120 q 103 -16 103 -77 l 103 994 l 771 994 z "},"ƒ":{"ha":789,"x_min":-41,"x_max":748,"o":"m 604 833 q 551 817 568 833 q 527 777 533 801 q 512 699 521 753 l 652 699 l 628 561 l 490 561 l 384 -26 q 330 -192 364 -134 q 247 -271 295 -250 q 126 -292 198 -292 q 46 -284 99 -292 q -41 -265 -7 -276 l -1 -115 q 88 -131 72 -131 q 141 -121 121 -131 q 174 -87 161 -111 q 195 -20 187 -63 l 296 561 l 160 561 l 184 699 l 320 699 l 329 746 q 371 885 344 831 q 449 968 397 939 q 587 997 500 997 q 661 988 610 997 q 748 968 713 979 l 710 815 q 651 829 675 825 q 604 833 627 833 z "},"Ɣ":{"ha":917,"x_min":3,"x_max":914,"o":"m 250 -102 q 277 42 250 -37 q 345 210 304 121 l 3 994 l 221 994 l 402 556 q 432 473 420 513 q 454 390 444 433 q 479 473 465 434 q 512 555 494 512 l 702 994 l 914 994 l 561 216 q 633 44 608 120 q 657 -104 657 -33 q 601 -241 657 -189 q 452 -293 545 -293 q 304 -242 359 -293 q 250 -102 250 -191 m 503 -98 q 490 -20 503 -66 q 453 64 477 25 q 418 -16 432 28 q 404 -95 404 -60 q 418 -151 404 -134 q 453 -168 431 -168 q 490 -152 477 -168 q 503 -98 503 -136 z "},"Ƙ":{"ha":985,"x_min":104,"x_max":981,"o":"m 548 823 q 718 980 663 949 q 839 1011 774 1011 q 905 1003 876 1011 q 953 986 933 995 l 909 822 q 879 833 892 829 q 850 837 865 837 q 802 821 825 837 q 751 773 780 805 l 593 600 l 981 0 l 732 0 l 454 459 l 304 300 l 304 0 l 104 0 l 104 994 l 304 994 l 304 553 l 548 823 z "},"ƙ":{"ha":774,"x_min":94,"x_max":760,"o":"m 285 467 l 512 720 l 743 720 l 497 457 l 760 0 l 544 0 l 368 325 l 285 237 l 285 0 l 94 0 l 94 764 q 153 956 94 901 q 328 1011 211 1011 q 410 1004 361 1011 q 486 990 458 998 l 450 848 q 402 861 426 857 q 361 865 378 865 q 301 842 317 865 q 285 758 285 819 l 285 467 z "},"Ơ":{"ha":1090,"x_min":60,"x_max":1124,"o":"m 60 492 q 119 767 60 649 q 288 948 178 884 q 545 1011 398 1011 q 719 984 640 1011 q 861 906 799 958 q 940 949 917 909 q 962 1074 962 989 l 1124 1074 q 1108 935 1124 989 q 1053 849 1091 880 q 949 806 1015 817 q 1010 664 989 743 q 1031 496 1031 586 q 972 229 1031 345 q 804 48 913 113 q 547 -17 695 -17 q 289 47 399 -17 q 119 227 178 111 q 60 492 60 342 m 545 839 q 396 795 459 839 q 300 674 334 751 q 267 497 267 597 q 300 320 267 397 q 395 199 332 243 q 546 155 458 155 q 695 199 632 155 q 790 320 758 242 q 823 500 823 398 q 790 674 823 597 q 695 795 758 751 q 545 839 632 839 z "},"ơ":{"ha":890,"x_min":47,"x_max":919,"o":"m 47 364 q 91 555 47 470 q 216 688 134 640 q 410 736 298 736 q 560 709 493 736 q 674 634 627 683 q 738 683 719 643 q 757 800 757 723 l 919 800 q 902 659 919 715 q 848 570 886 604 q 745 525 810 537 q 774 363 774 451 q 731 166 774 252 q 606 32 688 80 q 411 -17 524 -17 q 216 32 298 -17 q 91 166 134 80 q 47 364 47 252 m 409 581 q 324 554 361 581 q 264 477 286 528 q 243 359 243 427 q 263 242 243 292 q 321 166 283 193 q 410 139 359 139 q 499 165 460 139 q 558 242 537 192 q 579 361 579 292 q 559 476 579 427 q 500 553 538 526 q 409 581 462 581 z "},"Ư":{"ha":1117,"x_min":99,"x_max":1151,"o":"m 501 155 q 619 180 578 155 q 676 259 660 205 q 692 405 692 312 l 692 994 l 892 994 l 892 907 q 967 951 945 911 q 989 1074 989 991 l 1151 1074 q 1127 913 1151 973 q 1047 823 1103 852 q 892 791 991 793 l 892 410 q 856 165 892 258 q 735 27 819 72 q 506 -17 651 -17 q 264 30 353 -17 q 137 169 175 77 q 99 408 99 262 l 99 994 l 299 994 l 299 402 q 320 259 299 313 q 385 180 340 205 q 501 155 429 155 z "},"ư":{"ha":958,"x_min":91,"x_max":987,"o":"m 394 129 q 463 145 429 129 q 519 205 496 162 q 542 319 542 248 l 542 720 l 732 720 l 732 632 q 804 679 783 638 q 825 800 825 719 l 987 800 q 963 639 987 700 q 885 549 940 578 q 732 517 829 519 l 732 0 l 555 0 l 555 94 q 460 12 517 41 q 336 -17 404 -17 q 154 47 216 -17 q 91 226 91 111 l 91 720 l 281 720 l 281 270 q 309 163 281 198 q 394 129 336 129 z "},"Ʋ":{"ha":991,"x_min":99,"x_max":892,"o":"m 692 711 q 675 811 692 783 q 609 839 658 839 q 568 835 591 839 q 519 821 546 831 l 473 987 q 549 1003 498 995 q 643 1011 600 1011 q 831 945 770 1011 q 892 720 892 879 l 892 410 q 802 78 892 173 q 506 -17 712 -17 q 195 79 292 -17 q 99 408 99 176 l 99 994 l 299 994 l 299 402 q 346 212 299 269 q 501 155 393 155 q 651 208 609 155 q 692 405 692 261 l 692 711 z "},"Ƴ":{"ha":909,"x_min":-3,"x_max":919,"o":"m 554 416 l 554 0 l 354 0 l 354 418 l -3 994 l 231 994 l 383 726 q 422 655 403 692 q 456 585 441 619 l 459 585 l 492 656 q 526 729 509 694 l 572 816 q 686 975 635 939 q 814 1011 737 1011 q 879 1003 854 1011 q 919 985 903 994 l 876 827 q 853 835 863 833 q 833 837 844 837 q 791 818 808 837 q 757 768 775 798 l 554 416 z "},"ƴ":{"ha":772,"x_min":12,"x_max":789,"o":"m 493 575 q 564 699 518 661 q 686 736 609 736 q 742 730 713 736 q 789 716 770 724 l 753 575 q 739 579 745 578 q 725 581 732 581 q 681 554 696 581 q 642 458 665 527 l 476 -21 q 367 -226 427 -161 q 183 -292 307 -292 q 129 -288 159 -292 q 53 -273 99 -284 l 85 -127 q 120 -137 104 -133 q 151 -140 137 -140 q 234 -110 207 -140 q 288 -1 261 -79 l 12 720 l 215 720 l 355 310 q 374 251 367 276 q 386 208 380 226 l 389 208 l 404 269 q 416 318 410 298 l 493 575 z "},"Ʒ":{"ha":933,"x_min":50,"x_max":869,"o":"m 593 611 q 797 515 725 591 q 869 313 869 439 q 765 66 869 149 q 445 -17 661 -17 q 237 14 332 -17 q 50 115 141 44 l 165 256 q 310 173 243 197 q 449 149 376 149 q 605 190 549 149 q 662 304 662 232 q 604 415 662 374 q 424 456 545 456 l 325 456 l 325 614 l 522 826 l 144 826 l 144 994 l 811 994 l 811 838 l 593 611 z "},"ǝ":{"ha":794,"x_min":47,"x_max":747,"o":"m 47 423 l 553 423 q 507 547 547 505 q 401 590 467 590 q 300 562 338 590 q 248 490 262 533 l 58 519 q 181 681 96 625 q 391 736 266 736 q 654 637 560 736 q 747 363 747 538 q 650 91 747 198 q 393 -17 552 -17 q 140 84 233 -17 q 47 365 47 185 l 47 423 m 553 284 l 237 284 q 286 168 245 208 q 393 129 326 129 q 502 171 458 129 q 553 284 545 214 z "},"Ș":{"ha":897,"x_min":47,"x_max":838,"o":"m 428 846 q 321 820 364 846 q 278 747 278 794 q 298 694 278 716 q 365 654 317 672 q 500 615 412 635 q 705 542 631 585 q 808 438 779 498 q 838 290 838 378 q 784 118 838 186 q 642 16 730 49 q 448 -17 553 -17 q 175 69 279 -17 q 47 317 71 155 l 248 341 q 314 197 265 243 q 454 151 363 151 q 550 166 508 151 q 614 210 591 182 q 637 275 637 237 q 621 343 637 319 q 556 388 604 368 q 404 432 507 408 q 212 504 283 461 q 112 602 142 547 q 83 732 83 658 q 124 877 83 814 q 246 976 166 940 q 437 1011 326 1011 q 692 938 597 1011 q 810 724 787 864 l 610 701 q 556 812 600 779 q 428 846 512 846 m 445 -172 l 351 -172 l 351 -51 l 546 -51 l 546 -140 q 526 -235 546 -201 q 467 -284 507 -269 q 361 -302 427 -299 l 351 -227 q 424 -212 403 -226 q 445 -172 445 -197 z "},"ș":{"ha":711,"x_min":41,"x_max":667,"o":"m 347 600 q 273 584 301 600 q 245 541 245 568 q 259 505 245 519 q 306 478 272 490 q 399 456 339 467 q 602 379 536 433 q 667 225 667 324 q 630 101 667 156 q 525 14 593 45 q 363 -17 456 -17 q 140 40 221 -17 q 41 205 58 96 l 220 234 q 266 148 232 177 q 363 119 300 119 q 450 140 417 119 q 482 196 482 160 q 471 230 482 216 q 431 254 460 243 q 348 273 402 265 q 130 357 198 296 q 62 520 62 418 q 97 635 62 586 q 196 710 132 684 q 350 736 261 736 q 553 686 476 736 q 647 543 631 635 l 465 517 q 426 578 457 557 q 347 600 394 600 m 352 -172 l 258 -172 l 258 -51 l 453 -51 l 453 -140 q 433 -235 453 -201 q 374 -284 414 -269 q 268 -302 334 -299 l 258 -227 q 331 -212 310 -226 q 352 -172 352 -197 z "},"Ț":{"ha":843,"x_min":34,"x_max":809,"o":"m 522 826 l 522 0 l 321 0 l 321 826 l 34 826 l 34 994 l 809 994 l 809 826 l 522 826 m 418 -172 l 323 -172 l 323 -51 l 519 -51 l 519 -140 q 499 -235 519 -201 q 439 -284 479 -269 q 334 -302 399 -299 l 323 -227 q 397 -212 376 -226 q 418 -172 418 -197 z "},"ț":{"ha":484,"x_min":14,"x_max":458,"o":"m 440 720 l 440 568 l 306 568 l 306 218 q 310 171 306 186 q 326 148 315 155 q 359 142 337 142 q 435 153 395 142 l 458 5 q 389 -11 427 -5 q 313 -17 351 -17 q 194 4 237 -17 q 133 73 151 25 q 115 205 115 121 l 115 568 l 14 568 l 14 720 l 115 720 l 115 851 l 306 986 l 306 720 l 440 720 m 280 -172 l 186 -172 l 186 -51 l 381 -51 l 381 -140 q 361 -235 381 -201 q 302 -284 342 -269 q 196 -302 262 -299 l 186 -227 q 259 -212 238 -226 q 280 -172 280 -197 z "},"ɓ":{"ha":850,"x_min":94,"x_max":802,"o":"m 94 764 q 153 956 94 901 q 328 1011 211 1011 q 410 1004 361 1011 q 486 990 458 998 l 450 848 q 402 861 426 857 q 361 865 378 865 q 301 842 317 865 q 285 758 285 819 l 285 639 l 288 639 q 382 712 330 688 q 496 736 435 736 q 718 635 634 736 q 802 367 802 534 q 717 90 802 197 q 498 -17 632 -17 q 368 10 422 -17 q 275 95 315 37 l 272 95 l 272 0 l 94 0 l 94 764 m 445 584 q 328 528 372 584 q 283 375 283 472 q 329 195 283 254 q 452 135 375 135 q 565 194 524 135 q 607 357 607 253 q 566 525 607 467 q 445 584 525 584 z "},"ɔ":{"ha":764,"x_min":44,"x_max":717,"o":"m 54 504 q 162 676 82 617 q 370 736 243 736 q 624 635 531 736 q 717 360 717 535 q 626 86 717 189 q 375 -17 534 -17 q 157 46 239 -17 q 44 244 75 110 l 231 277 q 277 174 242 209 q 366 139 313 139 q 480 197 439 139 q 522 359 522 256 q 481 525 522 467 q 369 584 441 584 q 285 554 317 584 q 241 470 252 525 l 54 504 z "},"ɖ":{"ha":850,"x_min":47,"x_max":915,"o":"m 565 994 l 755 994 l 755 -19 q 774 -102 755 -81 q 834 -123 793 -123 q 861 -122 848 -123 q 884 -118 873 -120 l 915 -271 q 850 -285 886 -279 q 781 -292 814 -292 q 625 -224 671 -292 q 578 -18 578 -157 l 578 87 l 575 87 q 480 8 534 33 q 359 -17 427 -17 q 134 89 220 -17 q 47 367 47 195 q 133 634 47 532 q 358 736 219 736 q 474 712 422 736 q 563 643 526 688 l 565 643 l 565 994 m 406 584 q 286 524 330 584 q 243 357 243 463 q 285 194 243 253 q 401 135 327 135 q 525 193 483 135 q 566 361 566 252 q 522 522 566 460 q 406 584 477 584 z "},"ɗ":{"ha":850,"x_min":47,"x_max":878,"o":"m 565 767 q 607 956 565 901 q 757 1011 650 1011 q 823 1005 791 1011 q 878 989 854 998 l 851 857 q 829 861 843 859 q 806 863 816 863 q 767 841 779 863 q 755 759 755 820 l 755 0 l 578 0 l 578 87 l 575 87 q 480 8 534 33 q 359 -17 427 -17 q 134 89 220 -17 q 47 367 47 195 q 133 634 47 532 q 358 736 219 736 q 474 712 422 736 q 563 643 526 688 l 565 643 l 565 767 m 406 584 q 286 524 330 584 q 243 357 243 463 q 285 194 243 253 q 401 135 327 135 q 525 193 483 135 q 566 361 566 252 q 522 522 566 460 q 406 584 477 584 z "},"ə":{"ha":794,"x_min":47,"x_max":747,"o":"m 47 423 l 553 423 q 507 547 547 505 q 401 590 467 590 q 300 562 338 590 q 248 490 262 533 l 58 519 q 181 681 96 625 q 391 736 266 736 q 654 637 560 736 q 747 363 747 538 q 650 91 747 198 q 393 -17 552 -17 q 140 84 233 -17 q 47 365 47 185 l 47 423 m 553 284 l 237 284 q 286 168 245 208 q 393 129 326 129 q 502 171 458 129 q 553 284 545 214 z "},"ɛ":{"ha":684,"x_min":53,"x_max":650,"o":"m 365 591 q 284 570 309 591 q 260 519 260 549 q 284 466 260 486 q 362 447 309 447 l 450 447 l 450 301 l 364 301 q 275 276 302 301 q 248 214 248 252 q 275 153 248 177 q 359 130 302 130 q 547 207 470 130 l 650 80 q 361 -16 532 -16 q 191 10 260 -16 q 87 84 121 37 q 53 196 53 132 q 89 308 53 259 q 201 376 125 357 q 101 438 131 398 q 71 540 71 479 q 103 642 71 598 q 199 711 134 686 q 359 736 263 736 q 646 604 536 736 l 523 505 q 452 568 490 546 q 365 591 415 591 z "},"ɣ":{"ha":762,"x_min":14,"x_max":749,"o":"m 186 -112 q 203 -11 186 -66 q 277 161 219 45 l 14 720 l 212 720 l 342 420 q 365 356 356 387 q 380 292 374 326 l 383 292 q 398 356 390 327 q 422 420 407 385 l 550 720 l 749 720 l 478 152 q 542 9 517 78 q 566 -113 566 -60 q 513 -242 566 -191 q 375 -293 459 -293 q 239 -242 291 -293 q 186 -112 186 -192 m 423 -106 q 411 -41 423 -81 q 376 39 399 -1 q 341 -39 353 0 q 330 -104 330 -78 q 343 -155 330 -139 q 376 -172 357 -172 q 410 -156 396 -172 q 423 -106 423 -141 z "},"ʃ":{"ha":463,"x_min":-79,"x_max":514,"o":"m -43 -130 q 5 -143 -19 -139 q 46 -147 29 -147 q 106 -123 91 -147 q 122 -40 122 -99 l 122 764 q 180 956 122 901 q 355 1011 239 1011 q 437 1004 389 1011 q 514 990 486 998 l 478 848 q 430 861 454 857 q 389 865 406 865 q 329 842 345 865 q 313 758 313 819 l 313 -45 q 254 -238 313 -183 q 79 -293 196 -293 q -3 -286 46 -293 q -79 -272 -52 -279 l -43 -130 z "},"ʋ":{"ha":821,"x_min":91,"x_max":733,"o":"m 733 503 l 733 324 q 652 67 733 152 q 413 -17 572 -17 q 172 66 252 -17 q 91 324 91 149 l 91 720 l 281 720 l 281 321 q 311 170 281 211 q 416 128 340 128 q 512 168 481 128 q 542 327 542 208 l 542 500 q 486 581 542 581 q 458 578 471 581 q 433 570 446 575 l 395 715 q 455 729 419 724 q 528 734 490 734 q 684 678 635 734 q 733 503 733 622 z "},"ʒ":{"ha":789,"x_min":66,"x_max":723,"o":"m 498 334 q 667 230 612 304 q 723 37 723 156 q 634 -206 723 -119 q 385 -292 545 -292 q 207 -265 286 -292 q 66 -187 127 -237 l 178 -49 q 275 -114 224 -94 q 378 -133 327 -133 q 483 -87 444 -133 q 523 29 523 -41 q 484 138 523 98 q 373 177 446 177 l 261 177 l 261 326 l 442 561 l 121 561 l 121 720 l 688 720 l 688 585 l 498 334 z "},"ʻ":{"ha":385,"x_min":95,"x_max":305,"o":"m 267 1004 l 305 922 q 223 870 248 903 q 196 782 198 837 l 290 782 l 290 587 l 95 587 l 95 735 q 110 860 95 811 q 161 943 124 909 q 267 1004 198 978 z "},"ʼ":{"ha":385,"x_min":80,"x_max":290,"o":"m 119 576 l 80 659 q 162 710 138 677 q 189 799 187 743 l 95 799 l 95 994 l 290 994 l 290 846 q 276 721 290 770 q 224 637 261 672 q 119 576 187 603 z "},"ˆ":{"ha":463,"x_min":1,"x_max":461,"o":"m 309 811 l 231 913 l 154 811 l 1 811 l 144 1011 l 319 1011 l 461 811 l 309 811 z "},"ˇ":{"ha":463,"x_min":1,"x_max":461,"o":"m 154 1011 l 231 909 l 309 1011 l 461 1011 l 319 811 l 144 811 l 1 1011 l 154 1011 z "},"ˉ":{"ha":463,"x_min":26,"x_max":437,"o":"m 26 847 l 26 974 l 437 974 l 437 847 l 26 847 z "},"˘":{"ha":463,"x_min":17,"x_max":446,"o":"m 231 916 q 303 940 279 916 q 333 1011 326 964 l 446 1011 q 381 859 436 911 q 231 806 327 806 q 81 856 135 806 q 17 1011 27 906 l 130 1011 q 161 939 135 963 q 231 916 188 916 z "},"˙":{"ha":463,"x_min":136,"x_max":326,"o":"m 136 831 l 136 1008 l 326 1008 l 326 831 l 136 831 z "},"˛":{"ha":463,"x_min":102,"x_max":386,"o":"m 224 -121 q 241 -172 224 -156 q 294 -187 258 -187 q 339 -183 313 -187 q 386 -171 366 -179 l 386 -264 q 326 -284 360 -277 q 257 -292 292 -292 q 139 -257 176 -292 q 102 -157 102 -222 q 118 -71 102 -114 q 168 10 135 -28 l 271 10 q 224 -121 224 -58 z "},"˜":{"ha":463,"x_min":3,"x_max":460,"o":"m 329 825 q 274 833 300 825 q 217 855 248 841 q 174 872 191 867 q 142 878 157 878 q 111 864 121 878 q 100 819 100 850 l 100 818 l 3 818 l 3 821 q 35 958 3 911 q 134 1004 66 1004 q 184 997 161 1004 q 234 977 206 990 q 279 958 260 964 q 319 952 298 952 q 350 967 338 952 q 362 1011 362 982 l 460 1011 q 428 871 460 917 q 329 825 397 825 z "},"˝":{"ha":463,"x_min":38,"x_max":597,"o":"m 38 811 l 133 1011 l 338 1011 l 152 811 l 38 811 m 296 811 l 391 1011 l 597 1011 l 411 811 l 296 811 z "},"̀":{"ha":0,"x_min":-611,"x_max":-304,"o":"m -425 811 l -611 1011 l -399 1011 l -304 811 l -425 811 z "},"́":{"ha":0,"x_min":-514,"x_max":-207,"o":"m -514 811 l -419 1011 l -207 1011 l -393 811 l -514 811 z "},"̃":{"ha":0,"x_min":-637,"x_max":-180,"o":"m -311 825 q -366 833 -340 825 q -424 855 -392 841 q -466 872 -449 867 q -498 878 -484 878 q -530 864 -519 878 q -540 819 -540 850 l -540 818 l -637 818 l -637 821 q -606 958 -637 911 q -507 1004 -574 1004 q -457 997 -480 1004 q -406 977 -434 990 q -361 958 -379 964 q -321 952 -343 952 q -290 967 -302 952 q -278 1011 -278 982 l -180 1011 q -212 871 -180 917 q -311 825 -243 825 z "},"̉":{"ha":0,"x_min":-549,"x_max":-251,"o":"m -530 1040 q -488 1045 -507 1044 q -439 1047 -469 1047 q -297 1019 -343 1047 q -251 932 -251 990 q -285 853 -251 878 q -387 823 -319 829 l -387 791 l -481 791 l -481 878 q -412 914 -412 878 q -425 943 -412 933 q -464 954 -438 954 q -539 948 -500 954 l -549 1038 l -530 1040 z "},"̣":{"ha":0,"x_min":-505,"x_max":-314,"o":"m -505 -281 l -505 -104 l -314 -104 l -314 -281 l -505 -281 z "},"ʹ":{"ha":463,"x_min":146,"x_max":399,"o":"m 399 994 l 268 659 l 146 659 l 187 994 l 399 994 z "},"͵":{"ha":463,"x_min":63,"x_max":316,"o":"m 63 -213 l 195 123 l 316 123 l 275 -213 l 63 -213 z "},"΄":{"ha":463,"x_min":146,"x_max":399,"o":"m 146 794 l 187 994 l 399 994 l 268 794 l 146 794 z "},"΅":{"ha":463,"x_min":-48,"x_max":511,"o":"m 150 808 l 170 1008 l 349 1008 l 258 808 l 150 808 m -48 831 l -48 981 l 96 981 l 96 831 l -48 831 m 367 831 l 367 981 l 511 981 l 511 831 l 367 831 z "},"Ά":{"ha":990,"x_min":0,"x_max":987,"o":"m 768 0 l 682 225 l 298 225 l 216 0 l 3 0 l 390 994 l 589 994 l 987 0 l 768 0 m 441 618 l 359 393 l 618 393 l 534 618 q 506 707 518 661 q 489 781 493 752 l 484 781 q 441 618 471 699 m 0 794 l 41 994 l 253 994 l 121 794 l 0 794 z "},"Έ":{"ha":1044,"x_min":0,"x_max":977,"o":"m 0 794 l 41 994 l 253 994 l 121 794 l 0 794 m 498 826 l 498 599 l 916 599 l 916 431 l 498 431 l 498 168 l 977 168 l 977 0 l 298 0 l 298 994 l 954 994 l 954 826 l 498 826 z "},"Ή":{"ha":1196,"x_min":0,"x_max":1091,"o":"m 0 794 l 41 994 l 253 994 l 121 794 l 0 794 m 891 611 l 891 994 l 1091 994 l 1091 0 l 891 0 l 891 443 l 498 443 l 498 0 l 298 0 l 298 994 l 498 994 l 498 611 l 891 611 z "},"Ί":{"ha":603,"x_min":0,"x_max":498,"o":"m 0 794 l 41 994 l 253 994 l 121 794 l 0 794 m 298 0 l 298 994 l 498 994 l 498 0 l 298 0 z "},"Ό":{"ha":1251,"x_min":0,"x_max":1191,"o":"m 0 794 l 41 994 l 253 994 l 121 794 l 0 794 m 220 492 q 279 766 220 649 q 448 947 338 883 q 705 1011 558 1011 q 962 947 852 1011 q 1131 767 1072 884 q 1191 496 1191 650 q 1132 229 1191 345 q 964 48 1074 113 q 707 -17 855 -17 q 449 47 559 -17 q 279 227 338 111 q 220 492 220 342 m 705 839 q 556 795 619 839 q 460 674 494 751 q 427 497 427 597 q 460 320 427 397 q 555 199 492 243 q 706 155 618 155 q 855 199 792 155 q 950 320 918 242 q 983 500 983 398 q 950 674 983 597 q 855 795 918 751 q 705 839 792 839 z "},"Ύ":{"ha":1184,"x_min":0,"x_max":1187,"o":"m 0 794 l 41 994 l 253 994 l 121 794 l 0 794 m 732 585 l 734 585 q 808 726 762 643 l 957 994 l 1187 994 l 829 416 l 829 0 l 629 0 l 629 418 l 272 994 l 507 994 l 659 726 q 732 585 703 649 z "},"Ώ":{"ha":1262,"x_min":0,"x_max":1201,"o":"m 759 0 l 759 160 q 923 300 867 206 q 979 532 979 395 q 946 693 979 624 q 853 801 913 763 q 711 839 792 839 q 568 801 629 839 q 476 695 508 764 q 444 535 444 627 q 499 303 444 397 q 663 160 554 209 l 663 0 l 221 0 l 221 168 l 420 168 q 279 336 322 248 q 236 545 236 425 q 296 792 236 686 q 464 955 356 898 q 711 1011 572 1011 q 960 952 852 1011 q 1127 787 1068 893 q 1186 545 1186 682 q 1141 341 1186 435 q 1002 168 1097 248 l 1201 168 l 1201 0 l 759 0 m 0 794 l 41 994 l 253 994 l 121 794 l 0 794 z "},"ΐ":{"ha":420,"x_min":-93,"x_max":466,"o":"m 349 151 q 397 157 368 151 l 420 1 q 300 -17 360 -17 q 143 39 195 -17 q 91 220 91 95 l 91 720 l 281 720 l 281 240 q 286 191 281 210 q 306 162 291 172 q 349 151 320 151 m 105 808 l 125 1008 l 304 1008 l 213 808 l 105 808 m -93 831 l -93 981 l 51 981 l 51 831 l -93 831 m 322 831 l 322 981 l 466 981 l 466 831 l 322 831 z "},"Α":{"ha":990,"x_min":3,"x_max":987,"o":"m 768 0 l 682 225 l 298 225 l 216 0 l 3 0 l 390 994 l 589 994 l 987 0 l 768 0 m 441 618 l 359 393 l 618 393 l 534 618 q 506 707 518 661 q 489 781 493 752 l 484 781 q 441 618 471 699 z "},"Β":{"ha":956,"x_min":104,"x_max":895,"o":"m 847 734 q 809 609 847 660 q 707 529 771 557 q 847 439 798 503 q 895 289 895 376 q 794 70 895 139 q 543 0 692 0 l 104 0 l 104 994 l 544 994 q 763 933 680 994 q 847 734 847 871 m 652 712 q 610 803 652 779 q 503 826 568 826 l 304 826 l 304 599 l 506 599 q 615 627 578 599 q 652 712 652 656 m 688 295 q 646 395 688 360 q 503 431 604 431 l 304 431 l 304 168 l 508 168 q 595 177 556 168 q 661 213 634 185 q 688 295 688 241 z "},"Γ":{"ha":749,"x_min":104,"x_max":715,"o":"m 715 994 l 715 826 l 304 826 l 304 0 l 104 0 l 104 994 l 715 994 z "},"Δ":{"ha":989,"x_min":56,"x_max":931,"o":"m 931 0 l 56 0 l 56 139 l 389 994 l 589 994 l 931 138 l 931 0 m 530 633 q 507 707 518 666 q 488 783 495 747 l 485 783 q 443 633 467 697 l 276 168 l 703 168 l 530 633 z "},"Ε":{"ha":850,"x_min":104,"x_max":783,"o":"m 304 826 l 304 599 l 722 599 l 722 431 l 304 431 l 304 168 l 783 168 l 783 0 l 104 0 l 104 994 l 760 994 l 760 826 l 304 826 z "},"Ζ":{"ha":848,"x_min":16,"x_max":823,"o":"m 258 168 l 823 168 l 823 0 l 16 0 l 16 180 l 538 826 l 75 826 l 75 994 l 802 994 l 802 838 l 258 168 z "},"Η":{"ha":1002,"x_min":104,"x_max":897,"o":"m 697 611 l 697 994 l 897 994 l 897 0 l 697 0 l 697 443 l 304 443 l 304 0 l 104 0 l 104 994 l 304 994 l 304 611 l 697 611 z "},"Θ":{"ha":1090,"x_min":60,"x_max":1031,"o":"m 60 492 q 119 767 60 649 q 289 948 179 884 q 545 1011 399 1011 q 802 947 692 1011 q 971 767 911 884 q 1031 496 1031 650 q 972 229 1031 345 q 804 48 913 113 q 547 -17 695 -17 q 289 47 399 -17 q 119 227 178 111 q 60 492 60 342 m 545 843 q 395 799 459 843 q 297 677 332 755 q 263 497 263 598 q 297 318 263 396 q 394 195 330 239 q 546 151 458 151 q 696 195 633 151 q 793 317 760 239 q 827 500 827 396 q 794 677 827 599 q 696 799 760 755 q 545 843 632 843 m 735 417 l 355 417 l 355 585 l 735 585 l 735 417 z "},"Ι":{"ha":409,"x_min":104,"x_max":304,"o":"m 104 0 l 104 994 l 304 994 l 304 0 l 104 0 z "},"Κ":{"ha":985,"x_min":104,"x_max":981,"o":"m 704 994 l 954 994 l 593 600 l 981 0 l 732 0 l 454 459 l 304 300 l 304 0 l 104 0 l 104 994 l 304 994 l 304 553 l 704 994 z "},"Λ":{"ha":917,"x_min":3,"x_max":914,"o":"m 450 743 l 215 0 l 3 0 l 355 994 l 564 994 l 914 0 l 696 0 l 453 743 l 450 743 z "},"Μ":{"ha":1210,"x_min":104,"x_max":1105,"o":"m 804 994 l 1105 994 l 1105 0 l 919 0 l 919 783 l 703 0 l 510 0 l 291 783 l 291 0 l 104 0 l 104 994 l 405 994 l 607 290 l 804 994 z "},"Ν":{"ha":996,"x_min":104,"x_max":892,"o":"m 705 994 l 892 994 l 892 0 l 690 0 l 291 648 l 291 0 l 104 0 l 104 994 l 299 994 l 705 330 l 705 994 z "},"Ξ":{"ha":871,"x_min":62,"x_max":809,"o":"m 785 826 l 86 826 l 86 994 l 785 994 l 785 826 m 728 431 l 144 431 l 144 599 l 728 599 l 728 431 m 809 0 l 62 0 l 62 168 l 809 168 l 809 0 z "},"Ο":{"ha":1090,"x_min":60,"x_max":1031,"o":"m 60 492 q 119 766 60 649 q 288 947 178 883 q 545 1011 398 1011 q 802 947 692 1011 q 971 767 911 884 q 1031 496 1031 650 q 972 229 1031 345 q 804 48 913 113 q 547 -17 695 -17 q 289 47 399 -17 q 119 227 178 111 q 60 492 60 342 m 545 839 q 396 795 459 839 q 300 674 334 751 q 267 497 267 597 q 300 320 267 397 q 395 199 332 243 q 546 155 458 155 q 695 199 632 155 q 790 320 758 242 q 823 500 823 398 q 790 674 823 597 q 695 795 758 751 q 545 839 632 839 z "},"Π":{"ha":1002,"x_min":104,"x_max":897,"o":"m 697 0 l 697 826 l 304 826 l 304 0 l 104 0 l 104 994 l 897 994 l 897 0 l 697 0 z "},"Ρ":{"ha":873,"x_min":104,"x_max":827,"o":"m 827 688 q 736 451 827 528 q 456 374 645 374 l 304 374 l 304 0 l 104 0 l 104 994 l 456 994 q 737 917 648 994 q 827 688 827 840 m 619 685 q 578 789 619 753 q 452 826 538 826 l 304 826 l 304 543 l 452 543 q 581 579 543 543 q 619 685 619 615 z "},"Σ":{"ha":813,"x_min":34,"x_max":772,"o":"m 741 994 l 741 826 l 304 826 l 555 513 l 275 168 l 772 168 l 772 0 l 34 0 l 34 180 l 304 513 l 41 838 l 41 994 l 741 994 z "},"Τ":{"ha":843,"x_min":34,"x_max":809,"o":"m 522 826 l 522 0 l 321 0 l 321 826 l 34 826 l 34 994 l 809 994 l 809 826 l 522 826 z "},"Υ":{"ha":909,"x_min":-3,"x_max":912,"o":"m 456 585 l 459 585 q 532 726 486 643 l 682 994 l 912 994 l 554 416 l 554 0 l 354 0 l 354 418 l -3 994 l 231 994 l 383 726 q 456 585 427 649 z "},"Φ":{"ha":1117,"x_min":56,"x_max":1061,"o":"m 56 503 q 103 704 56 619 q 242 837 151 789 q 463 892 334 884 l 463 994 l 654 994 l 654 892 q 874 837 783 884 q 1014 704 966 789 q 1061 503 1061 619 q 1014 304 1061 388 q 875 172 966 220 q 654 116 783 123 l 654 0 l 463 0 l 463 116 q 242 172 334 123 q 103 304 151 220 q 56 503 56 388 m 463 270 l 463 738 q 307 673 358 730 q 256 501 256 616 q 307 341 256 402 q 463 270 357 279 m 654 738 l 654 270 q 810 341 760 279 q 861 501 861 402 q 810 673 861 616 q 654 738 759 730 z "},"Χ":{"ha":932,"x_min":3,"x_max":928,"o":"m 469 661 l 471 661 q 521 758 492 711 l 665 994 l 898 994 l 588 511 l 928 0 l 687 0 l 522 256 q 467 357 494 298 l 465 357 q 410 256 439 301 l 245 0 l 3 0 l 344 519 l 35 994 l 270 994 l 415 763 q 469 661 443 718 z "},"Ψ":{"ha":1103,"x_min":92,"x_max":1011,"o":"m 456 457 l 456 994 l 647 994 l 647 454 q 746 488 711 460 q 797 565 782 515 q 811 692 811 614 l 811 994 l 1011 994 l 1011 701 q 976 484 1011 570 q 860 348 940 397 q 647 288 780 298 l 647 0 l 456 0 l 456 289 q 242 352 322 302 q 127 488 162 402 q 92 700 92 573 l 92 994 l 292 994 l 292 690 q 332 527 292 584 q 456 457 371 469 z "},"Ω":{"ha":1102,"x_min":61,"x_max":1041,"o":"m 599 0 l 599 160 q 763 300 707 206 q 819 532 819 395 q 786 693 819 624 q 693 801 753 763 q 551 839 632 839 q 408 801 469 839 q 316 695 348 764 q 283 535 283 627 q 339 303 283 397 q 503 160 394 209 l 503 0 l 61 0 l 61 168 l 260 168 q 119 336 162 248 q 76 545 76 425 q 136 792 76 686 q 304 955 196 898 q 551 1011 412 1011 q 800 952 692 1011 q 967 787 908 893 q 1026 545 1026 682 q 981 341 1026 435 q 842 168 937 248 l 1041 168 l 1041 0 l 599 0 z "},"Ϊ":{"ha":409,"x_min":-26,"x_max":436,"o":"m 104 0 l 104 994 l 304 994 l 304 0 l 104 0 m -26 1082 l -26 1253 l 144 1253 l 144 1082 l -26 1082 m 265 1082 l 265 1253 l 436 1253 l 436 1082 l 265 1082 z "},"Ϋ":{"ha":909,"x_min":-3,"x_max":912,"o":"m 456 585 l 459 585 q 532 726 486 643 l 682 994 l 912 994 l 554 416 l 554 0 l 354 0 l 354 418 l -3 994 l 231 994 l 383 726 q 456 585 427 649 m 226 1082 l 226 1253 l 397 1253 l 397 1082 l 226 1082 m 517 1082 l 517 1253 l 688 1253 l 688 1082 l 517 1082 z "},"ά":{"ha":865,"x_min":47,"x_max":810,"o":"m 749 353 q 770 183 754 270 q 810 0 785 97 l 612 0 q 585 106 590 56 l 582 106 q 479 13 540 43 q 353 -17 419 -17 q 193 27 262 -17 q 85 155 123 71 q 47 353 47 238 q 86 555 47 468 q 194 689 125 642 q 351 736 262 736 q 480 706 418 736 q 581 614 542 675 l 583 614 q 612 720 593 667 l 810 720 q 769 536 786 631 q 749 353 753 441 m 380 585 q 310 558 341 585 q 261 481 279 532 q 243 361 243 431 q 260 237 243 289 q 310 157 278 184 q 387 129 342 129 q 475 156 435 129 q 537 233 514 184 q 559 344 559 282 q 537 474 559 420 q 475 556 515 528 q 380 585 434 585 m 319 794 l 360 994 l 572 994 l 441 794 l 319 794 z "},"έ":{"ha":684,"x_min":53,"x_max":650,"o":"m 365 591 q 284 570 309 591 q 260 519 260 549 q 284 466 260 486 q 362 447 309 447 l 450 447 l 450 301 l 364 301 q 275 276 302 301 q 248 214 248 252 q 275 153 248 177 q 359 130 302 130 q 547 207 470 130 l 650 80 q 361 -16 532 -16 q 191 10 260 -16 q 87 84 121 37 q 53 196 53 132 q 89 308 53 259 q 201 376 125 357 q 101 438 131 398 q 71 540 71 479 q 103 642 71 598 q 199 711 134 686 q 359 736 263 736 q 646 604 536 736 l 523 505 q 452 568 490 546 q 365 591 415 591 m 254 794 l 295 994 l 507 994 l 376 794 l 254 794 z "},"ή":{"ha":827,"x_min":94,"x_max":736,"o":"m 545 450 q 519 554 545 519 q 433 590 494 590 q 329 547 373 590 q 285 399 285 504 l 285 0 l 94 0 l 94 720 l 272 720 l 272 629 l 275 629 q 368 708 312 681 q 491 736 424 736 q 673 672 610 736 q 736 494 736 609 l 736 -275 l 545 -275 l 545 450 m 334 794 l 375 994 l 587 994 l 456 794 l 334 794 z "},"ί":{"ha":420,"x_min":91,"x_max":420,"o":"m 349 151 q 397 157 368 151 l 420 1 q 300 -17 360 -17 q 143 39 195 -17 q 91 220 91 95 l 91 720 l 281 720 l 281 240 q 286 191 281 210 q 306 162 291 172 q 349 151 320 151 m 94 794 l 134 994 l 347 994 l 215 794 l 94 794 z "},"ΰ":{"ha":773,"x_min":91,"x_max":713,"o":"m 91 281 l 91 720 l 281 720 l 281 279 q 308 172 281 205 q 394 138 335 138 q 490 195 456 138 q 523 379 523 252 q 511 555 523 465 q 478 720 500 645 l 669 720 q 703 542 692 623 q 713 377 713 461 q 632 80 713 178 q 394 -17 550 -17 q 162 57 234 -17 q 91 281 91 130 m 303 808 l 323 1008 l 502 1008 l 411 808 l 303 808 m 105 831 l 105 981 l 249 981 l 249 831 l 105 831 m 520 831 l 520 981 l 664 981 l 664 831 l 520 831 z "},"α":{"ha":865,"x_min":47,"x_max":810,"o":"m 749 353 q 770 183 754 270 q 810 0 785 97 l 612 0 q 585 106 590 56 l 582 106 q 479 13 540 43 q 353 -17 419 -17 q 193 27 262 -17 q 85 155 123 71 q 47 353 47 238 q 86 555 47 468 q 194 689 125 642 q 351 736 262 736 q 480 706 418 736 q 581 614 542 675 l 583 614 q 612 720 593 667 l 810 720 q 769 536 786 631 q 749 353 753 441 m 380 585 q 310 558 341 585 q 261 481 279 532 q 243 361 243 431 q 260 237 243 289 q 310 157 278 184 q 387 129 342 129 q 475 156 435 129 q 537 233 514 184 q 559 344 559 282 q 537 474 559 420 q 475 556 515 528 q 380 585 434 585 z "},"β":{"ha":841,"x_min":94,"x_max":788,"o":"m 742 758 q 706 630 742 686 q 596 538 671 574 q 698 492 654 527 q 765 402 741 457 q 788 279 788 347 q 753 129 788 197 q 649 22 718 62 q 484 -17 580 -17 q 371 6 418 -17 q 288 71 323 28 l 285 71 l 285 -275 l 94 -275 l 94 678 q 436 1011 94 1011 q 593 981 524 1011 q 702 893 663 950 q 742 758 742 836 m 551 741 q 513 826 551 795 q 418 856 475 856 q 320 814 355 856 q 285 686 285 772 l 285 304 q 325 176 285 216 q 438 135 365 135 q 551 181 510 135 q 593 309 593 227 q 574 386 593 352 q 520 439 555 420 q 436 458 485 458 l 393 458 l 393 614 l 429 614 q 519 649 487 614 q 551 741 551 685 z "},"γ":{"ha":762,"x_min":14,"x_max":749,"o":"m 383 235 l 553 720 l 749 720 l 478 22 l 478 -275 l 288 -275 l 288 24 l 14 720 l 214 720 l 380 235 l 383 235 z "},"δ":{"ha":822,"x_min":47,"x_max":774,"o":"m 47 347 q 79 506 47 434 q 171 625 110 578 q 317 687 231 673 q 219 769 264 727 q 127 863 174 812 l 127 994 l 705 994 l 705 839 l 411 839 q 500 758 446 804 q 608 671 555 711 q 735 528 695 605 q 774 346 774 452 q 731 158 774 240 q 606 29 688 75 q 411 -17 524 -17 q 216 30 298 -17 q 91 158 134 76 q 47 347 47 241 m 409 557 q 324 533 361 557 q 264 463 286 509 q 243 351 243 416 q 263 238 243 286 q 321 165 283 191 q 410 139 359 139 q 499 165 460 139 q 558 239 537 191 q 579 353 579 287 q 534 503 579 448 q 409 557 489 557 z "},"ε":{"ha":684,"x_min":53,"x_max":650,"o":"m 365 591 q 284 570 309 591 q 260 519 260 549 q 284 466 260 486 q 362 447 309 447 l 450 447 l 450 301 l 364 301 q 275 276 302 301 q 248 214 248 252 q 275 153 248 177 q 359 130 302 130 q 547 207 470 130 l 650 80 q 361 -16 532 -16 q 191 10 260 -16 q 87 84 121 37 q 53 196 53 132 q 89 308 53 259 q 201 376 125 357 q 101 438 131 398 q 71 540 71 479 q 103 642 71 598 q 199 711 134 686 q 359 736 263 736 q 646 604 536 736 l 523 505 q 452 568 490 546 q 365 591 415 591 z "},"ζ":{"ha":646,"x_min":51,"x_max":618,"o":"m 246 334 q 276 244 246 283 q 380 179 307 204 q 545 85 490 142 q 600 -62 600 28 q 517 -233 600 -175 q 277 -292 435 -292 q 229 -289 261 -292 l 275 -135 q 378 -119 348 -135 q 409 -74 409 -103 q 388 -22 409 -41 q 313 15 366 -3 q 151 96 208 51 q 72 196 94 140 q 51 334 51 252 q 89 533 51 438 q 191 707 126 629 q 338 843 256 785 l 117 843 l 117 994 l 618 994 l 618 864 q 334 627 421 764 q 246 334 246 490 z "},"η":{"ha":827,"x_min":94,"x_max":736,"o":"m 545 450 q 519 554 545 519 q 433 590 494 590 q 329 547 373 590 q 285 399 285 504 l 285 0 l 94 0 l 94 720 l 272 720 l 272 629 l 275 629 q 368 708 312 681 q 491 736 424 736 q 673 672 610 736 q 736 494 736 609 l 736 -275 l 545 -275 l 545 450 z "},"θ":{"ha":782,"x_min":54,"x_max":728,"o":"m 54 498 q 140 885 54 758 q 390 1011 226 1011 q 644 884 560 1011 q 728 498 728 756 q 391 -17 728 -17 q 141 106 227 -17 q 54 498 54 229 m 246 578 l 535 578 q 514 743 531 681 q 467 832 496 805 q 394 860 437 860 q 319 835 350 860 q 270 748 289 810 q 246 578 251 686 m 536 427 l 246 427 q 288 203 252 271 q 390 134 324 134 q 493 204 458 134 q 536 427 529 273 z "},"ι":{"ha":420,"x_min":91,"x_max":420,"o":"m 349 151 q 397 157 368 151 l 420 1 q 300 -17 360 -17 q 143 39 195 -17 q 91 220 91 95 l 91 720 l 281 720 l 281 240 q 286 191 281 210 q 306 162 291 172 q 349 151 320 151 z "},"κ":{"ha":774,"x_min":94,"x_max":760,"o":"m 512 720 l 743 720 l 484 437 l 760 0 l 544 0 l 354 304 l 285 237 l 285 0 l 94 0 l 94 720 l 285 720 l 285 467 l 512 720 z "},"λ":{"ha":768,"x_min":14,"x_max":754,"o":"m 191 994 l 390 994 l 754 0 l 557 0 l 422 389 q 393 486 414 411 l 391 486 q 360 384 374 418 l 216 0 l 14 0 l 295 705 l 191 994 z "},"μ":{"ha":827,"x_min":91,"x_max":732,"o":"m 284 77 l 281 77 l 281 -275 l 91 -275 l 91 720 l 281 720 l 281 319 q 316 178 281 228 q 409 129 351 129 q 506 177 470 129 q 542 319 542 225 l 542 720 l 732 720 l 732 0 l 555 0 l 555 83 l 552 83 q 497 9 529 35 q 412 -17 465 -17 q 334 6 363 -17 q 284 77 305 30 z "},"ν":{"ha":762,"x_min":14,"x_max":740,"o":"m 374 208 q 490 452 444 321 q 551 720 536 583 l 740 720 q 408 0 686 326 l 277 0 l 14 720 l 214 720 l 372 208 l 374 208 z "},"ξ":{"ha":637,"x_min":51,"x_max":596,"o":"m 232 600 q 109 786 109 652 q 180 949 109 888 q 399 1010 252 1010 l 533 1010 l 533 865 l 408 865 q 321 837 345 865 q 297 768 297 808 q 322 698 297 724 q 399 673 347 673 l 513 673 l 513 517 l 437 517 q 329 489 372 517 q 266 417 286 460 q 246 326 246 373 q 257 257 246 285 q 296 210 268 230 q 377 172 324 189 q 542 82 488 136 q 596 -62 596 27 q 561 -183 596 -132 q 454 -263 526 -235 q 277 -292 383 -292 q 233 -290 260 -292 l 272 -136 q 375 -120 344 -136 q 406 -74 406 -104 q 384 -27 406 -44 q 310 8 363 -9 q 160 79 215 40 q 78 176 104 117 q 51 326 51 235 q 72 434 51 381 q 134 531 93 488 q 232 600 174 575 z "},"ο":{"ha":822,"x_min":47,"x_max":774,"o":"m 47 364 q 91 555 47 470 q 216 688 134 640 q 410 736 298 736 q 606 687 523 736 q 731 554 688 639 q 774 363 774 470 q 731 166 774 252 q 606 32 688 80 q 411 -17 524 -17 q 216 32 298 -17 q 91 166 134 80 q 47 364 47 252 m 409 581 q 324 554 361 581 q 264 477 286 528 q 243 359 243 427 q 263 242 243 292 q 321 166 283 193 q 410 139 359 139 q 499 165 460 139 q 558 242 537 192 q 579 361 579 292 q 559 476 579 427 q 500 553 538 526 q 409 581 462 581 z "},"π":{"ha":911,"x_min":14,"x_max":895,"o":"m 14 548 l 14 697 q 95 713 46 707 q 189 720 144 720 l 895 720 l 895 568 l 736 568 l 736 240 q 741 191 736 210 q 760 162 745 172 q 804 151 774 151 q 851 157 823 151 l 875 1 q 755 -17 814 -17 q 597 39 649 -17 q 545 220 545 95 l 545 568 l 347 568 l 347 0 l 156 0 l 156 568 q 90 563 128 568 q 14 548 51 557 z "},"ρ":{"ha":846,"x_min":91,"x_max":799,"o":"m 460 736 q 634 692 557 736 q 755 562 711 648 q 799 353 799 476 q 760 155 799 239 q 653 27 722 71 q 494 -17 584 -17 q 377 5 425 -17 q 284 80 330 26 l 281 80 l 281 -275 l 91 -275 l 91 338 q 136 557 91 468 q 263 691 180 646 q 460 736 347 736 m 450 584 q 329 527 376 584 q 281 344 281 469 q 301 232 281 279 q 357 160 321 185 q 443 135 393 135 q 563 193 522 135 q 604 361 604 251 q 563 525 604 467 q 450 584 522 584 z "},"ς":{"ha":688,"x_min":47,"x_max":647,"o":"m 289 -136 q 392 -120 361 -136 q 422 -74 422 -104 q 399 -23 422 -41 q 320 15 375 -4 q 166 91 226 47 q 77 200 107 135 q 47 360 47 266 q 88 557 47 473 q 210 689 129 642 q 407 736 290 736 q 531 725 469 736 q 647 694 594 713 l 612 539 q 409 581 505 581 q 322 555 359 581 q 264 481 285 530 q 243 359 243 431 q 276 249 243 293 q 387 179 310 205 q 556 84 498 142 q 613 -62 613 27 q 577 -183 613 -132 q 469 -263 541 -235 q 291 -292 397 -292 q 174 -282 233 -292 l 199 -128 q 289 -136 244 -136 z "},"σ":{"ha":874,"x_min":47,"x_max":857,"o":"m 47 356 q 91 543 47 460 q 216 672 134 625 q 410 720 298 720 l 857 720 l 857 568 l 696 568 q 755 470 735 525 q 774 355 774 416 q 731 162 774 246 q 606 31 688 78 q 411 -17 524 -17 q 216 31 298 -17 q 91 162 134 78 q 47 356 47 247 m 409 568 q 324 542 362 568 q 264 466 286 515 q 243 351 243 417 q 263 238 243 286 q 321 165 283 191 q 410 139 359 139 q 499 165 460 139 q 558 239 537 191 q 579 353 579 287 q 559 465 579 416 q 500 541 538 514 q 409 568 462 568 z "},"τ":{"ha":596,"x_min":17,"x_max":579,"o":"m 387 568 l 387 240 q 392 191 387 210 q 413 162 397 172 q 460 151 429 151 q 511 157 480 151 l 535 1 q 412 -17 472 -17 q 249 39 302 -17 q 196 220 196 95 l 196 568 l 189 568 q 101 563 149 568 q 17 548 54 557 l 17 697 q 98 713 50 707 q 193 720 147 720 l 579 720 l 579 568 l 387 568 z "},"υ":{"ha":773,"x_min":91,"x_max":713,"o":"m 91 281 l 91 720 l 281 720 l 281 279 q 308 172 281 205 q 394 138 335 138 q 490 195 456 138 q 523 379 523 252 q 511 555 523 465 q 478 720 500 645 l 669 720 q 703 542 692 623 q 713 377 713 461 q 632 80 713 178 q 394 -17 550 -17 q 162 57 234 -17 q 91 281 91 130 z "},"φ":{"ha":1029,"x_min":47,"x_max":981,"o":"m 422 141 l 422 488 q 446 631 422 576 q 518 710 469 685 q 648 736 568 736 q 824 691 749 736 q 941 566 900 646 q 981 385 981 486 q 940 194 981 279 q 814 55 899 109 q 607 -12 730 1 l 607 -275 l 422 -275 l 422 -12 q 213 51 297 -3 q 88 188 129 104 q 47 374 47 272 q 84 552 47 471 q 196 683 121 633 q 383 736 272 732 l 367 585 q 238 371 238 571 q 262 255 238 304 q 329 176 287 205 q 422 141 371 147 m 791 376 q 770 489 791 442 q 719 560 750 536 q 653 583 687 583 q 617 559 627 583 q 606 502 606 536 l 607 144 q 744 221 698 159 q 791 376 791 283 z "},"χ":{"ha":738,"x_min":7,"x_max":731,"o":"m 372 406 l 513 720 l 713 720 l 473 237 l 731 -275 l 528 -275 l 366 75 l 205 -275 l 7 -275 l 264 241 l 30 720 l 231 720 l 372 406 z "},"ψ":{"ha":1053,"x_min":91,"x_max":962,"o":"m 771 322 l 771 720 l 962 720 l 962 324 q 928 144 962 215 q 819 34 894 73 q 618 -14 744 -5 l 618 -275 l 434 -275 l 434 -14 q 233 33 308 -5 q 124 141 158 71 q 91 324 91 212 l 91 720 l 281 720 l 281 322 q 319 192 281 236 q 434 139 356 147 l 434 720 l 618 720 l 618 138 q 735 191 699 146 q 771 322 771 236 z "},"ω":{"ha":1050,"x_min":60,"x_max":991,"o":"m 256 337 q 267 219 256 262 q 296 157 277 175 q 347 138 316 138 q 409 181 388 138 q 430 313 430 223 l 430 538 l 621 538 l 621 313 q 704 138 621 138 q 754 157 734 138 q 784 219 774 175 q 794 337 794 262 q 706 720 794 529 l 903 720 q 968 529 946 627 q 991 337 991 432 q 922 77 991 171 q 718 -17 853 -17 q 611 9 661 -17 q 525 86 561 36 q 437 9 489 36 q 321 -17 386 -17 q 128 72 196 -17 q 60 337 60 161 q 82 529 60 432 q 147 720 104 627 l 345 720 q 256 337 256 529 z "},"ϊ":{"ha":420,"x_min":-42,"x_max":420,"o":"m 349 151 q 397 157 368 151 l 420 1 q 300 -17 360 -17 q 143 39 195 -17 q 91 220 91 95 l 91 720 l 281 720 l 281 240 q 286 191 281 210 q 306 162 291 172 q 349 151 320 151 m -42 831 l -42 994 l 122 994 l 122 831 l -42 831 m 251 831 l 251 994 l 415 994 l 415 831 l 251 831 z "},"ϋ":{"ha":773,"x_min":91,"x_max":713,"o":"m 91 281 l 91 720 l 281 720 l 281 279 q 308 172 281 205 q 394 138 335 138 q 490 195 456 138 q 523 379 523 252 q 511 555 523 465 q 478 720 500 645 l 669 720 q 703 542 692 623 q 713 377 713 461 q 632 80 713 178 q 394 -17 550 -17 q 162 57 234 -17 q 91 281 91 130 m 156 831 l 156 994 l 320 994 l 320 831 l 156 831 m 449 831 l 449 994 l 613 994 l 613 831 l 449 831 z "},"ό":{"ha":822,"x_min":47,"x_max":774,"o":"m 47 364 q 91 555 47 470 q 216 688 134 640 q 410 736 298 736 q 606 687 523 736 q 731 554 688 639 q 774 363 774 470 q 731 166 774 252 q 606 32 688 80 q 411 -17 524 -17 q 216 32 298 -17 q 91 166 134 80 q 47 364 47 252 m 409 581 q 324 554 361 581 q 264 477 286 528 q 243 359 243 427 q 263 242 243 292 q 321 166 283 193 q 410 139 359 139 q 499 165 460 139 q 558 242 537 192 q 579 361 579 292 q 559 476 579 427 q 500 553 538 526 q 409 581 462 581 m 325 794 l 366 994 l 578 994 l 446 794 l 325 794 z "},"ύ":{"ha":773,"x_min":91,"x_max":713,"o":"m 91 281 l 91 720 l 281 720 l 281 279 q 308 172 281 205 q 394 138 335 138 q 490 195 456 138 q 523 379 523 252 q 511 555 523 465 q 478 720 500 645 l 669 720 q 703 542 692 623 q 713 377 713 461 q 632 80 713 178 q 394 -17 550 -17 q 162 57 234 -17 q 91 281 91 130 m 308 794 l 349 994 l 561 994 l 429 794 l 308 794 z "},"ώ":{"ha":1050,"x_min":60,"x_max":991,"o":"m 256 337 q 267 219 256 262 q 296 157 277 175 q 347 138 316 138 q 409 181 388 138 q 430 313 430 223 l 430 538 l 621 538 l 621 313 q 704 138 621 138 q 754 157 734 138 q 784 219 774 175 q 794 337 794 262 q 706 720 794 529 l 903 720 q 968 529 946 627 q 991 337 991 432 q 922 77 991 171 q 718 -17 853 -17 q 611 9 661 -17 q 525 86 561 36 q 437 9 489 36 q 321 -17 386 -17 q 128 72 196 -17 q 60 337 60 161 q 82 529 60 432 q 147 720 104 627 l 345 720 q 256 337 256 529 m 439 794 l 480 994 l 692 994 l 561 794 l 439 794 z "},"ϰ":{"ha":897,"x_min":15,"x_max":882,"o":"m 69 -1 q 131 204 108 90 q 154 424 154 317 q 138 536 154 503 q 86 568 122 568 q 58 567 70 568 q 39 563 45 565 l 15 719 q 66 731 35 726 q 135 736 98 736 q 298 676 252 736 q 345 476 345 615 q 342 388 345 427 q 331 307 339 348 l 652 720 l 828 720 q 766 516 789 627 q 743 305 743 405 q 755 192 743 232 q 811 151 768 151 q 837 153 824 151 q 859 157 850 155 l 882 1 q 828 -12 859 -7 q 762 -17 798 -17 q 597 53 642 -17 q 553 260 553 122 q 555 337 553 301 q 564 410 557 374 l 245 -1 l 69 -1 z "},"ϱ":{"ha":822,"x_min":47,"x_max":774,"o":"m 253 43 q 299 -68 262 -32 q 418 -105 336 -105 l 565 -105 q 704 -153 661 -105 q 746 -293 746 -201 l 591 -293 q 581 -266 589 -276 q 549 -256 572 -256 l 404 -256 q 134 -121 221 -256 q 47 296 47 15 q 141 624 47 511 q 411 736 235 736 q 676 636 577 736 q 774 365 774 536 q 678 101 774 201 q 423 0 582 0 q 327 15 369 0 q 262 45 286 29 l 253 43 m 410 581 q 287 524 332 581 q 243 368 243 467 q 288 213 243 271 q 409 155 334 155 q 533 212 488 155 q 579 367 579 268 q 533 525 579 469 q 410 581 487 581 z "},"Ѐ":{"ha":850,"x_min":104,"x_max":783,"o":"m 304 826 l 304 599 l 722 599 l 722 431 l 304 431 l 304 168 l 783 168 l 783 0 l 104 0 l 104 994 l 760 994 l 760 826 l 304 826 m 407 1063 l 231 1263 l 454 1263 l 538 1063 l 407 1063 z "},"Ё":{"ha":850,"x_min":104,"x_max":783,"o":"m 304 826 l 304 599 l 722 599 l 722 431 l 304 431 l 304 168 l 783 168 l 783 0 l 104 0 l 104 994 l 760 994 l 760 826 l 304 826 m 210 1082 l 210 1253 l 381 1253 l 381 1082 l 210 1082 m 502 1082 l 502 1253 l 673 1253 l 673 1082 l 502 1082 z "},"Ђ":{"ha":1162,"x_min":34,"x_max":1116,"o":"m 741 154 q 829 174 791 154 q 887 232 867 194 q 908 322 908 270 q 858 449 908 404 q 705 493 807 493 q 608 485 665 493 q 505 463 551 477 l 505 0 l 305 0 l 305 826 l 34 826 l 34 994 l 786 994 l 786 826 l 505 826 l 505 627 q 749 665 616 665 q 938 627 855 665 q 1068 511 1021 588 q 1116 322 1116 433 q 1068 134 1116 210 q 937 20 1020 58 q 749 -17 854 -17 q 646 -11 690 -17 q 565 9 603 -4 l 616 181 q 671 161 640 168 q 741 154 703 154 z "},"Ѓ":{"ha":749,"x_min":104,"x_max":715,"o":"m 715 994 l 715 826 l 304 826 l 304 0 l 104 0 l 104 994 l 715 994 m 288 1063 l 373 1263 l 595 1263 l 420 1063 l 288 1063 z "},"Є":{"ha":1007,"x_min":60,"x_max":951,"o":"m 522 839 q 357 773 420 839 q 274 595 293 707 l 600 595 l 600 427 l 271 427 q 350 228 286 300 q 519 155 414 155 q 623 180 575 155 q 704 250 670 204 q 753 357 737 295 l 951 310 q 871 138 928 212 q 726 24 814 64 q 525 -17 637 -17 q 274 45 378 -17 q 115 225 170 108 q 60 505 60 343 q 116 775 60 661 q 278 950 173 889 q 525 1011 383 1011 q 793 938 688 1011 q 940 720 898 864 l 742 672 q 522 839 692 839 z "},"Ѕ":{"ha":897,"x_min":47,"x_max":838,"o":"m 428 846 q 321 820 364 846 q 278 747 278 794 q 298 694 278 716 q 365 654 317 672 q 500 615 412 635 q 705 542 631 585 q 808 438 779 498 q 838 290 838 378 q 784 118 838 186 q 642 16 730 49 q 448 -17 553 -17 q 175 69 279 -17 q 47 317 71 155 l 248 341 q 314 197 265 243 q 454 151 363 151 q 550 166 508 151 q 614 210 591 182 q 637 275 637 237 q 621 343 637 319 q 556 388 604 368 q 404 432 507 408 q 212 504 283 461 q 112 602 142 547 q 83 732 83 658 q 124 877 83 814 q 246 976 166 940 q 437 1011 326 1011 q 692 938 597 1011 q 810 724 787 864 l 610 701 q 556 812 600 779 q 428 846 512 846 z "},"І":{"ha":409,"x_min":104,"x_max":304,"o":"m 104 0 l 104 994 l 304 994 l 304 0 l 104 0 z "},"Ї":{"ha":409,"x_min":-26,"x_max":436,"o":"m 104 0 l 104 994 l 304 994 l 304 0 l 104 0 m -26 1082 l -26 1253 l 144 1253 l 144 1082 l -26 1082 m 265 1082 l 265 1253 l 436 1253 l 436 1082 l 265 1082 z "},"Ј":{"ha":758,"x_min":22,"x_max":659,"o":"m 329 -17 q 102 64 178 -17 q 22 309 25 144 l 211 334 q 244 197 214 238 q 336 155 275 155 q 408 173 382 155 q 447 232 435 191 q 458 343 458 273 l 458 994 l 659 994 l 659 344 q 582 76 659 168 q 329 -17 505 -17 z "},"Љ":{"ha":1344,"x_min":-7,"x_max":1291,"o":"m 71 151 q 138 180 117 151 q 159 262 159 208 l 159 994 l 810 994 l 810 611 l 920 611 q 1198 536 1105 611 q 1291 301 1291 460 q 1198 77 1291 155 q 920 0 1104 0 l 610 0 l 610 826 l 359 826 l 359 264 q 333 98 359 159 q 255 9 306 36 q 123 -17 204 -17 q 59 -11 94 -17 q -7 4 24 -5 l 24 157 q 71 151 52 151 m 917 168 q 1043 203 1003 168 q 1084 304 1084 237 q 1046 408 1084 374 q 917 443 1008 443 l 810 443 l 810 168 l 917 168 z "},"Њ":{"ha":1368,"x_min":104,"x_max":1315,"o":"m 304 443 l 304 0 l 104 0 l 104 994 l 304 994 l 304 611 l 633 611 l 633 994 l 833 994 l 833 611 l 944 611 q 1222 536 1129 611 q 1315 301 1315 460 q 1221 77 1315 155 q 944 0 1128 0 l 633 0 l 633 443 l 304 443 m 941 168 q 1067 203 1027 168 q 1107 304 1107 237 q 1069 408 1107 374 q 941 443 1031 443 l 833 443 l 833 168 l 941 168 z "},"Ћ":{"ha":1158,"x_min":34,"x_max":1076,"o":"m 786 994 l 786 826 l 505 826 l 505 627 q 751 665 616 665 q 998 585 919 665 q 1076 343 1076 505 l 1076 0 l 876 0 l 876 330 q 862 424 876 389 q 813 476 847 459 q 720 493 779 493 q 505 463 600 493 l 505 0 l 305 0 l 305 826 l 34 826 l 34 994 l 786 994 z "},"Ќ":{"ha":911,"x_min":104,"x_max":903,"o":"m 730 342 l 903 0 l 669 0 l 538 280 l 529 299 q 487 379 506 349 q 437 429 469 408 q 358 449 406 449 l 304 449 l 304 0 l 104 0 l 104 994 l 304 994 l 304 617 l 349 617 q 427 626 397 617 q 477 659 456 635 q 516 729 497 683 l 563 842 q 644 955 593 915 q 779 994 695 994 l 873 994 l 873 826 l 825 826 q 776 813 793 826 q 747 771 759 800 l 699 654 q 643 561 673 593 q 566 518 612 529 l 566 515 q 624 489 601 505 q 673 439 648 473 q 730 342 698 406 m 383 1063 l 468 1263 l 690 1263 l 515 1063 l 383 1063 z "},"Ѝ":{"ha":996,"x_min":104,"x_max":892,"o":"m 705 0 l 705 648 l 703 648 l 306 0 l 104 0 l 104 994 l 291 994 l 291 330 l 294 330 l 697 994 l 892 994 l 892 0 l 705 0 m 479 1063 l 304 1263 l 526 1263 l 611 1063 l 479 1063 z "},"Ў":{"ha":902,"x_min":14,"x_max":912,"o":"m 245 994 l 509 543 l 693 994 l 912 994 l 595 313 q 480 114 535 185 q 365 13 425 42 q 227 -17 305 -17 q 162 -10 195 -17 q 107 7 130 -3 l 107 168 q 191 151 157 151 q 264 164 235 151 q 321 212 294 178 q 385 313 349 245 l 409 365 l 14 994 l 245 994 m 484 1157 q 560 1184 534 1157 q 592 1263 586 1211 l 728 1263 q 653 1111 718 1165 q 484 1057 589 1057 q 316 1108 379 1057 q 242 1263 252 1160 l 378 1263 q 410 1185 381 1213 q 484 1157 439 1157 z "},"Џ":{"ha":1002,"x_min":104,"x_max":897,"o":"m 404 -275 l 404 0 l 104 0 l 104 994 l 304 994 l 304 168 l 697 168 l 697 994 l 897 994 l 897 0 l 597 0 l 597 -275 l 404 -275 z "},"А":{"ha":990,"x_min":3,"x_max":987,"o":"m 768 0 l 682 225 l 298 225 l 216 0 l 3 0 l 390 994 l 589 994 l 987 0 l 768 0 m 441 618 l 359 393 l 618 393 l 534 618 q 506 707 518 661 q 489 781 493 752 l 484 781 q 441 618 471 699 z "},"Б":{"ha":859,"x_min":104,"x_max":813,"o":"m 716 994 l 716 826 l 304 826 l 304 611 l 442 611 q 720 536 627 611 q 813 301 813 460 q 720 77 813 155 q 442 0 626 0 l 104 0 l 104 994 l 716 994 m 439 168 q 565 203 525 168 q 606 304 606 237 q 568 408 606 374 q 439 443 530 443 l 304 443 l 304 168 l 439 168 z "},"В":{"ha":956,"x_min":104,"x_max":895,"o":"m 847 734 q 809 609 847 660 q 707 529 771 557 q 847 439 798 503 q 895 289 895 376 q 794 70 895 139 q 543 0 692 0 l 104 0 l 104 994 l 544 994 q 763 933 680 994 q 847 734 847 871 m 652 712 q 610 803 652 779 q 503 826 568 826 l 304 826 l 304 599 l 506 599 q 615 627 578 599 q 652 712 652 656 m 688 295 q 646 395 688 360 q 503 431 604 431 l 304 431 l 304 168 l 508 168 q 595 177 556 168 q 661 213 634 185 q 688 295 688 241 z "},"Г":{"ha":749,"x_min":104,"x_max":715,"o":"m 715 994 l 715 826 l 304 826 l 304 0 l 104 0 l 104 994 l 715 994 z "},"Д":{"ha":1041,"x_min":8,"x_max":1019,"o":"m 8 168 l 124 168 q 216 471 186 300 q 245 802 245 643 l 245 994 l 876 994 l 876 168 l 1019 168 l 1019 -275 l 826 -275 l 826 0 l 201 0 l 201 -275 l 8 -275 l 8 168 m 439 826 l 439 812 q 415 471 439 631 q 331 168 391 311 l 676 168 l 676 826 l 439 826 z "},"Е":{"ha":850,"x_min":104,"x_max":783,"o":"m 304 826 l 304 599 l 722 599 l 722 431 l 304 431 l 304 168 l 783 168 l 783 0 l 104 0 l 104 994 l 760 994 l 760 826 l 304 826 z "},"Ж":{"ha":1379,"x_min":8,"x_max":1371,"o":"m 382 299 l 373 280 l 241 0 l 8 0 l 181 342 q 238 439 213 406 q 287 489 263 473 q 345 515 310 505 l 345 518 q 268 561 299 529 q 212 654 237 593 l 163 771 q 135 813 152 800 q 85 826 117 826 l 37 826 l 37 994 l 132 994 q 267 955 216 994 q 348 842 317 915 l 395 729 q 434 659 414 683 q 484 626 454 635 q 562 617 513 617 l 593 617 l 593 994 l 786 994 l 786 617 l 817 617 q 895 626 865 617 q 945 659 924 635 q 984 729 965 683 l 1031 842 q 1112 955 1061 915 q 1246 994 1163 994 l 1341 994 l 1341 826 l 1293 826 q 1244 813 1261 826 q 1215 771 1227 800 l 1166 654 q 1111 561 1141 593 q 1034 518 1080 529 l 1034 515 q 1092 489 1069 505 q 1141 439 1116 473 q 1198 342 1166 406 l 1371 0 l 1137 0 l 1006 280 l 997 299 q 955 379 974 349 q 905 429 937 408 q 826 449 873 449 l 786 449 l 786 0 l 593 0 l 593 449 l 553 449 q 474 429 505 449 q 424 379 442 408 q 382 299 405 349 z "},"З":{"ha":844,"x_min":50,"x_max":781,"o":"m 781 296 q 735 127 781 198 q 607 20 690 57 q 414 -17 524 -17 q 161 56 252 -17 q 50 264 69 130 l 254 299 q 304 188 264 227 q 412 149 345 149 q 497 169 461 149 q 553 224 534 189 q 573 304 573 260 q 554 382 573 348 q 496 436 534 416 q 404 456 458 456 l 333 456 l 333 615 l 381 615 q 494 649 456 615 q 533 744 533 682 q 501 819 533 793 q 414 846 469 846 q 325 815 359 846 q 285 724 292 784 l 87 755 q 201 948 114 884 q 419 1011 288 1011 q 583 978 511 1011 q 695 887 655 945 q 735 755 735 829 q 702 631 735 686 q 595 541 668 576 l 595 538 q 695 490 653 526 q 759 404 737 455 q 781 296 781 353 z "},"И":{"ha":996,"x_min":104,"x_max":892,"o":"m 705 0 l 705 648 l 703 648 l 306 0 l 104 0 l 104 994 l 291 994 l 291 330 l 294 330 l 697 994 l 892 994 l 892 0 l 705 0 z "},"Й":{"ha":996,"x_min":104,"x_max":892,"o":"m 705 0 l 705 648 l 703 648 l 306 0 l 104 0 l 104 994 l 291 994 l 291 330 l 294 330 l 697 994 l 892 994 l 892 0 l 705 0 m 497 1157 q 573 1184 547 1157 q 605 1263 599 1211 l 741 1263 q 666 1111 730 1165 q 497 1057 602 1057 q 329 1108 392 1057 q 255 1263 265 1160 l 391 1263 q 423 1185 394 1213 q 497 1157 452 1157 z "},"К":{"ha":911,"x_min":104,"x_max":903,"o":"m 730 342 l 903 0 l 669 0 l 538 280 l 529 299 q 487 379 506 349 q 437 429 469 408 q 358 449 406 449 l 304 449 l 304 0 l 104 0 l 104 994 l 304 994 l 304 617 l 349 617 q 427 626 397 617 q 477 659 456 635 q 516 729 497 683 l 563 842 q 644 955 593 915 q 779 994 695 994 l 873 994 l 873 826 l 825 826 q 776 813 793 826 q 747 771 759 800 l 699 654 q 643 561 673 593 q 566 518 612 529 l 566 515 q 624 489 601 505 q 673 439 648 473 q 730 342 698 406 z "},"Л":{"ha":941,"x_min":-7,"x_max":837,"o":"m 71 151 q 138 180 117 151 q 159 262 159 208 l 159 994 l 837 994 l 837 0 l 637 0 l 637 826 l 359 826 l 359 264 q 333 98 359 159 q 255 9 306 36 q 123 -17 204 -17 q 59 -11 94 -17 q -7 4 24 -5 l 24 157 q 71 151 52 151 z "},"М":{"ha":1210,"x_min":104,"x_max":1105,"o":"m 804 994 l 1105 994 l 1105 0 l 919 0 l 919 783 l 703 0 l 510 0 l 291 783 l 291 0 l 104 0 l 104 994 l 405 994 l 607 290 l 804 994 z "},"Н":{"ha":1002,"x_min":104,"x_max":897,"o":"m 697 611 l 697 994 l 897 994 l 897 0 l 697 0 l 697 443 l 304 443 l 304 0 l 104 0 l 104 994 l 304 994 l 304 611 l 697 611 z "},"О":{"ha":1090,"x_min":60,"x_max":1031,"o":"m 60 492 q 119 766 60 649 q 288 947 178 883 q 545 1011 398 1011 q 802 947 692 1011 q 971 767 911 884 q 1031 496 1031 650 q 972 229 1031 345 q 804 48 913 113 q 547 -17 695 -17 q 289 47 399 -17 q 119 227 178 111 q 60 492 60 342 m 545 839 q 396 795 459 839 q 300 674 334 751 q 267 497 267 597 q 300 320 267 397 q 395 199 332 243 q 546 155 458 155 q 695 199 632 155 q 790 320 758 242 q 823 500 823 398 q 790 674 823 597 q 695 795 758 751 q 545 839 632 839 z "},"П":{"ha":1002,"x_min":104,"x_max":897,"o":"m 697 0 l 697 826 l 304 826 l 304 0 l 104 0 l 104 994 l 897 994 l 897 0 l 697 0 z "},"Р":{"ha":873,"x_min":104,"x_max":827,"o":"m 827 688 q 736 451 827 528 q 456 374 645 374 l 304 374 l 304 0 l 104 0 l 104 994 l 456 994 q 737 917 648 994 q 827 688 827 840 m 619 685 q 578 789 619 753 q 452 826 538 826 l 304 826 l 304 543 l 452 543 q 581 579 543 543 q 619 685 619 615 z "},"С":{"ha":1007,"x_min":60,"x_max":951,"o":"m 522 839 q 382 795 440 839 q 296 676 325 752 q 267 501 267 600 q 296 318 267 396 q 383 198 326 240 q 519 155 440 155 q 623 180 575 155 q 704 250 670 204 q 753 357 737 295 l 951 310 q 871 138 928 212 q 726 24 814 64 q 525 -17 637 -17 q 274 45 378 -17 q 115 225 170 108 q 60 505 60 343 q 116 775 60 661 q 278 950 173 889 q 525 1011 383 1011 q 793 938 688 1011 q 940 720 898 864 l 742 672 q 522 839 692 839 z "},"Т":{"ha":843,"x_min":34,"x_max":809,"o":"m 522 826 l 522 0 l 321 0 l 321 826 l 34 826 l 34 994 l 809 994 l 809 826 l 522 826 z "},"У":{"ha":902,"x_min":14,"x_max":912,"o":"m 245 994 l 509 543 l 693 994 l 912 994 l 595 313 q 480 114 535 185 q 365 13 425 42 q 227 -17 305 -17 q 162 -10 195 -17 q 107 7 130 -3 l 107 168 q 191 151 157 151 q 264 164 235 151 q 321 212 294 178 q 385 313 349 245 l 409 365 l 14 994 l 245 994 z "},"Ф":{"ha":1060,"x_min":56,"x_max":1004,"o":"m 56 503 q 154 776 56 677 q 435 892 252 876 l 435 994 l 625 994 l 625 892 q 906 776 808 876 q 1004 503 1004 677 q 906 232 1004 331 q 625 116 808 132 l 625 0 l 435 0 l 435 116 q 154 232 252 132 q 56 503 56 331 m 435 270 l 435 738 q 299 671 343 727 q 256 501 256 615 q 299 342 256 403 q 435 270 343 282 m 625 738 l 625 270 q 761 342 717 282 q 804 501 804 403 q 761 671 804 615 q 625 738 717 727 z "},"Х":{"ha":932,"x_min":3,"x_max":928,"o":"m 469 661 l 471 661 q 521 758 492 711 l 665 994 l 898 994 l 588 511 l 928 0 l 687 0 l 522 256 q 467 357 494 298 l 465 357 q 410 256 439 301 l 245 0 l 3 0 l 344 519 l 35 994 l 270 994 l 415 763 q 469 661 443 718 z "},"Ц":{"ha":1055,"x_min":104,"x_max":1034,"o":"m 104 994 l 304 994 l 304 168 l 690 168 l 690 994 l 890 994 l 890 168 l 1034 168 l 1034 -275 l 840 -275 l 840 0 l 104 0 l 104 994 z "},"Ч":{"ha":957,"x_min":81,"x_max":852,"o":"m 406 342 q 160 422 239 342 q 81 665 81 503 l 81 994 l 281 994 l 281 677 q 296 584 281 619 q 345 532 311 549 q 438 515 379 515 q 652 545 558 515 l 652 994 l 852 994 l 852 0 l 652 0 l 652 381 q 406 342 542 342 z "},"Ш":{"ha":1352,"x_min":104,"x_max":1247,"o":"m 104 994 l 304 994 l 304 168 l 576 168 l 576 994 l 776 994 l 776 168 l 1047 168 l 1047 994 l 1247 994 l 1247 0 l 104 0 l 104 994 z "},"Щ":{"ha":1412,"x_min":104,"x_max":1390,"o":"m 104 994 l 304 994 l 304 168 l 576 168 l 576 994 l 776 994 l 776 168 l 1047 168 l 1047 994 l 1247 994 l 1247 168 l 1390 168 l 1390 -275 l 1197 -275 l 1197 0 l 104 0 l 104 994 z "},"Ъ":{"ha":1015,"x_min":0,"x_max":962,"o":"m 0 826 l 0 994 l 454 994 l 454 611 l 591 611 q 869 536 777 611 q 962 301 962 460 q 869 77 962 155 q 591 0 775 0 l 254 0 l 254 826 l 0 826 m 588 168 q 714 203 674 168 q 755 304 755 237 q 717 408 755 374 q 588 443 679 443 l 454 443 l 454 168 l 588 168 z "},"Ы":{"ha":1216,"x_min":104,"x_max":1112,"o":"m 304 994 l 304 611 l 415 611 q 693 536 600 611 q 786 301 786 460 q 692 77 786 155 q 415 0 599 0 l 104 0 l 104 994 l 304 994 m 911 0 l 911 994 l 1112 994 l 1112 0 l 911 0 m 412 168 q 538 203 498 168 q 578 304 578 237 q 541 408 578 374 q 412 443 503 443 l 304 443 l 304 168 l 412 168 z "},"Ь":{"ha":866,"x_min":104,"x_max":813,"o":"m 304 994 l 304 611 l 442 611 q 720 536 627 611 q 813 301 813 460 q 720 77 813 155 q 442 0 626 0 l 104 0 l 104 994 l 304 994 m 439 168 q 565 203 525 168 q 606 304 606 237 q 568 408 606 374 q 439 443 530 443 l 304 443 l 304 168 l 439 168 z "},"Э":{"ha":1007,"x_min":56,"x_max":947,"o":"m 482 1011 q 729 950 624 1011 q 891 775 834 889 q 947 505 947 661 q 892 225 947 343 q 733 45 838 108 q 482 -17 629 -17 q 281 24 370 -17 q 136 138 193 64 q 56 310 79 212 l 254 357 q 303 250 270 295 q 385 180 337 204 q 488 155 432 155 q 657 228 593 155 q 736 427 722 300 l 408 427 l 408 595 l 733 595 q 651 773 714 707 q 485 839 587 839 q 265 672 315 839 l 67 720 q 214 938 109 864 q 482 1011 319 1011 z "},"Ю":{"ha":1388,"x_min":104,"x_max":1328,"o":"m 430 416 l 304 416 l 304 0 l 104 0 l 104 994 l 304 994 l 304 584 l 431 584 q 504 812 446 715 q 656 960 562 908 q 873 1011 750 1011 q 1114 947 1010 1011 q 1272 767 1217 884 q 1328 496 1328 650 q 1273 229 1328 345 q 1116 48 1218 113 q 876 -17 1014 -17 q 653 37 749 -17 q 500 189 557 91 q 430 416 444 286 m 873 839 q 741 795 797 839 q 656 674 686 751 q 627 497 627 597 q 655 320 627 397 q 740 199 684 243 q 874 155 796 155 q 1006 199 951 155 q 1091 320 1062 242 q 1120 500 1120 398 q 1091 674 1120 597 q 1006 795 1062 751 q 873 839 950 839 z "},"Я":{"ha":936,"x_min":14,"x_max":831,"o":"m 631 0 l 631 415 l 604 415 q 512 409 546 415 q 457 388 479 403 q 412 346 435 374 q 328 199 378 304 l 233 0 l 14 0 l 144 267 q 197 361 174 327 q 241 413 220 395 q 288 440 262 431 l 288 443 q 124 543 177 475 q 71 715 71 610 q 161 922 71 850 q 419 994 252 994 l 831 994 l 831 0 l 631 0 m 437 827 q 316 798 355 827 q 277 703 277 768 q 324 603 277 632 q 461 574 370 574 l 631 574 l 631 827 l 437 827 z "},"а":{"ha":764,"x_min":47,"x_max":718,"o":"m 718 0 l 530 0 q 507 79 516 31 q 283 -17 412 -17 q 159 10 213 -17 q 77 86 106 37 q 47 199 47 136 q 110 351 47 294 q 302 427 172 407 q 486 467 433 448 l 486 480 q 455 567 486 543 q 363 590 424 590 q 284 568 316 590 q 236 500 252 547 l 62 526 q 168 685 91 635 q 375 736 245 736 q 546 709 480 736 q 644 624 612 682 q 676 471 676 566 l 676 178 q 684 92 676 126 q 718 0 691 57 m 340 309 q 238 210 238 288 q 263 142 238 165 q 335 118 288 118 q 421 142 382 118 q 461 176 448 158 q 480 224 475 194 q 486 310 486 255 l 486 345 q 340 309 435 326 z "},"б":{"ha":822,"x_min":47,"x_max":774,"o":"m 423 720 q 610 673 530 720 q 732 544 690 627 q 774 355 774 461 q 731 160 774 244 q 606 30 688 76 q 411 -17 524 -17 q 214 33 296 -17 q 90 181 133 83 q 47 424 47 279 q 139 857 47 720 q 404 994 231 994 l 549 994 q 580 1004 571 994 q 591 1031 589 1013 l 746 1031 q 703 890 746 937 q 565 843 660 843 l 418 843 q 308 805 351 843 q 253 677 265 766 l 262 674 q 331 706 289 693 q 423 720 374 720 m 409 564 q 324 540 361 564 q 264 467 286 515 q 243 351 243 419 q 288 195 243 250 q 410 139 332 139 q 499 164 460 139 q 558 236 537 189 q 579 353 579 284 q 534 508 579 452 q 409 564 489 564 z "},"в":{"ha":748,"x_min":94,"x_max":695,"o":"m 656 525 q 634 440 656 478 q 568 376 611 403 q 663 305 631 350 q 695 201 695 260 q 667 99 695 144 q 576 27 639 54 q 412 0 513 0 l 94 0 l 94 720 l 378 720 q 589 672 521 720 q 656 525 656 625 m 466 505 q 444 556 466 538 q 385 574 421 574 l 285 574 l 285 434 l 387 434 q 446 452 425 434 q 466 505 466 470 m 404 146 q 475 165 450 146 q 500 223 500 185 q 477 282 500 263 q 405 302 454 302 l 285 302 l 285 146 l 404 146 z "},"г":{"ha":583,"x_min":94,"x_max":566,"o":"m 566 720 l 566 568 l 285 568 l 285 0 l 94 0 l 94 720 l 566 720 z "},"д":{"ha":865,"x_min":5,"x_max":849,"o":"m 207 720 l 726 720 l 726 151 l 849 151 l 849 -237 l 665 -237 l 665 0 l 190 0 l 190 -237 l 5 -237 l 5 151 l 109 151 q 184 428 161 287 q 207 720 207 569 m 384 568 q 307 151 380 368 l 535 151 l 535 568 l 384 568 z "},"е":{"ha":794,"x_min":47,"x_max":747,"o":"m 394 129 q 493 156 454 129 q 547 229 532 184 l 737 199 q 614 39 699 94 q 404 -17 528 -17 q 208 29 288 -17 q 87 159 127 75 q 47 355 47 243 q 89 546 47 459 q 211 684 131 633 q 401 736 291 736 q 584 691 507 736 q 705 561 662 647 q 747 354 747 475 l 747 296 l 241 296 q 288 172 248 216 q 394 129 328 129 m 242 435 l 557 435 q 510 550 551 510 q 402 590 469 590 q 294 549 338 590 q 242 435 250 508 z "},"ж":{"ha":1050,"x_min":15,"x_max":1035,"o":"m 338 229 l 227 0 l 15 0 l 157 268 q 207 338 181 315 q 274 371 233 362 q 219 404 241 384 q 181 459 197 423 l 152 524 q 124 564 138 553 q 81 574 110 574 l 49 574 l 49 720 l 116 720 q 208 709 174 720 q 263 672 241 698 q 310 596 286 647 l 347 521 q 384 464 363 485 q 433 442 404 442 l 433 720 l 617 720 l 617 442 q 666 464 646 442 q 703 521 686 485 l 740 596 q 786 672 764 647 q 842 709 808 698 q 934 720 876 720 l 1001 720 l 1001 574 l 968 574 q 926 564 940 574 q 898 524 911 553 l 869 459 q 831 404 852 423 q 776 371 809 384 q 843 338 817 362 q 893 268 869 315 l 1035 0 l 823 0 l 711 229 q 683 273 697 258 q 654 292 669 288 q 617 296 640 296 l 617 0 l 433 0 l 433 296 q 395 292 410 296 q 367 273 380 288 q 338 229 353 258 z "},"з":{"ha":712,"x_min":28,"x_max":659,"o":"m 355 736 q 514 711 450 736 q 610 642 578 686 q 641 540 641 598 q 609 440 641 481 q 511 376 578 399 q 622 307 585 355 q 659 196 659 258 q 625 84 659 132 q 523 10 591 37 q 353 -16 454 -16 q 140 31 217 -16 q 28 170 62 79 l 216 229 q 258 154 227 178 q 348 130 290 130 q 436 153 408 130 q 464 214 464 176 q 437 276 464 252 q 348 301 410 301 l 300 301 l 300 447 l 350 447 q 428 466 403 447 q 452 519 452 486 q 429 570 452 549 q 351 591 406 591 q 289 579 313 591 q 250 548 264 568 q 222 492 235 527 l 49 560 q 164 693 89 650 q 355 736 239 736 z "},"и":{"ha":819,"x_min":94,"x_max":725,"o":"m 285 326 l 531 720 l 725 720 l 725 0 l 534 0 l 534 394 l 288 0 l 94 0 l 94 720 l 285 720 l 285 326 z "},"й":{"ha":819,"x_min":94,"x_max":725,"o":"m 285 326 l 531 720 l 725 720 l 725 0 l 534 0 l 534 394 l 288 0 l 94 0 l 94 720 l 285 720 l 285 326 m 410 905 q 480 932 456 905 q 509 1011 504 960 l 637 1011 q 567 859 628 913 q 410 806 507 806 q 251 857 311 806 q 182 1011 192 909 l 310 1011 q 340 933 313 961 q 410 905 367 905 z "},"к":{"ha":734,"x_min":94,"x_max":720,"o":"m 285 442 q 316 446 304 442 q 340 459 329 450 q 381 521 362 479 l 418 596 q 464 672 442 647 q 520 709 486 698 q 612 720 553 720 l 679 720 l 679 574 l 646 574 q 604 564 618 574 q 576 524 589 553 l 547 459 q 509 404 530 423 q 454 371 487 384 q 520 339 495 362 q 571 268 545 315 l 720 0 l 507 0 l 389 229 q 343 283 368 270 q 285 296 319 296 l 285 0 l 94 0 l 94 720 l 285 720 l 285 442 z "},"л":{"ha":819,"x_min":-11,"x_max":725,"o":"m 725 0 l 534 0 l 534 568 l 326 568 l 326 235 q 271 42 326 101 q 109 -16 216 -16 q 50 -12 82 -16 q -11 1 18 -7 l 21 152 q 56 145 43 145 q 119 168 102 145 q 135 239 135 191 l 135 720 l 725 720 l 725 0 z "},"м":{"ha":998,"x_min":94,"x_max":904,"o":"m 621 720 l 904 720 l 904 0 l 726 0 l 726 509 l 587 0 l 412 0 l 272 509 l 272 0 l 94 0 l 94 720 l 378 720 l 500 283 l 621 720 z "},"н":{"ha":819,"x_min":94,"x_max":725,"o":"m 534 293 l 285 293 l 285 0 l 94 0 l 94 720 l 285 720 l 285 444 l 534 444 l 534 720 l 725 720 l 725 0 l 534 0 l 534 293 z "},"о":{"ha":822,"x_min":47,"x_max":774,"o":"m 47 364 q 91 555 47 470 q 216 688 134 640 q 410 736 298 736 q 606 687 523 736 q 731 554 688 639 q 774 363 774 470 q 731 166 774 252 q 606 32 688 80 q 411 -17 524 -17 q 216 32 298 -17 q 91 166 134 80 q 47 364 47 252 m 409 581 q 324 554 361 581 q 264 477 286 528 q 243 359 243 427 q 263 242 243 292 q 321 166 283 193 q 410 139 359 139 q 499 165 460 139 q 558 242 537 192 q 579 361 579 292 q 559 476 579 427 q 500 553 538 526 q 409 581 462 581 z "},"п":{"ha":819,"x_min":94,"x_max":725,"o":"m 725 0 l 534 0 l 534 568 l 285 568 l 285 0 l 94 0 l 94 720 l 725 720 l 725 0 z "},"р":{"ha":850,"x_min":94,"x_max":802,"o":"m 288 77 l 285 77 l 285 -275 l 94 -275 l 94 720 l 272 720 l 272 614 l 275 614 q 372 706 313 676 q 499 736 431 736 q 655 689 586 736 q 763 555 724 642 q 802 353 802 468 q 764 155 802 239 q 656 27 725 71 q 497 -17 587 -17 q 381 3 427 -17 q 288 77 334 24 m 453 584 q 331 527 379 584 q 283 344 283 469 q 303 232 283 279 q 360 160 323 185 q 446 135 397 135 q 566 193 525 135 q 607 361 607 251 q 566 525 607 467 q 453 584 525 584 z "},"с":{"ha":764,"x_min":47,"x_max":720,"o":"m 395 584 q 282 525 321 584 q 243 359 243 465 q 282 200 243 260 q 399 139 321 139 q 487 175 452 139 q 533 277 522 210 l 720 244 q 608 47 690 111 q 389 -17 526 -17 q 202 32 279 -17 q 86 166 125 81 q 47 360 47 252 q 87 557 47 472 q 205 689 127 642 q 394 736 283 736 q 599 679 517 736 q 710 504 680 622 l 524 470 q 479 555 512 526 q 395 584 446 584 z "},"т":{"ha":583,"x_min":17,"x_max":566,"o":"m 387 568 l 387 0 l 196 0 l 196 568 l 17 568 l 17 720 l 566 720 l 566 568 l 387 568 z "},"у":{"ha":772,"x_min":12,"x_max":753,"o":"m 386 208 l 389 208 q 417 305 410 283 l 555 720 l 753 720 l 476 -21 q 353 -240 412 -190 q 184 -292 293 -292 q 53 -273 134 -292 l 85 -127 q 152 -140 127 -140 q 209 -130 186 -140 q 249 -89 231 -119 q 288 -1 267 -60 l 12 720 l 215 720 l 355 310 q 386 208 368 273 z "},"ф":{"ha":1261,"x_min":47,"x_max":1214,"o":"m 336 -17 q 185 28 251 -17 q 84 158 120 73 q 47 361 47 243 q 85 557 47 472 q 187 689 122 642 q 334 736 252 736 q 535 627 461 736 l 538 627 l 538 994 l 723 994 l 723 627 l 726 627 q 814 709 763 683 q 927 736 866 736 q 1074 689 1009 736 q 1177 557 1139 642 q 1214 361 1214 472 q 1178 158 1214 243 q 1076 28 1141 73 q 925 -17 1010 -17 q 816 6 861 -17 q 726 83 770 29 l 723 83 l 723 -275 l 538 -275 l 538 83 l 535 83 q 446 6 491 29 q 336 -17 400 -17 m 390 135 q 499 194 459 135 q 538 363 538 253 q 517 489 538 439 q 461 561 496 538 q 383 584 426 584 q 280 525 317 584 q 243 361 243 467 q 280 193 243 251 q 390 135 318 135 m 878 584 q 801 561 836 584 q 744 489 766 538 q 723 361 723 439 q 763 194 723 252 q 871 135 802 135 q 981 193 943 135 q 1019 361 1019 251 q 981 525 1019 467 q 878 584 944 584 z "},"х":{"ha":764,"x_min":16,"x_max":747,"o":"m 376 512 l 378 512 q 441 621 428 600 l 505 720 l 725 720 l 491 379 l 747 0 l 517 0 l 430 140 q 378 234 395 195 l 376 234 q 321 136 359 195 l 235 0 l 16 0 l 266 371 l 28 720 l 258 720 l 317 622 q 376 512 340 583 z "},"ц":{"ha":865,"x_min":94,"x_max":848,"o":"m 285 720 l 285 151 l 534 151 l 534 720 l 725 720 l 725 151 l 848 151 l 848 -237 l 664 -237 l 664 0 l 94 0 l 94 720 l 285 720 z "},"ч":{"ha":801,"x_min":65,"x_max":707,"o":"m 310 221 q 128 284 191 221 q 65 463 65 348 l 65 720 l 256 720 l 256 490 q 282 396 256 425 q 368 367 309 367 q 445 377 404 367 q 516 409 486 388 l 516 720 l 707 720 l 707 0 l 516 0 l 516 270 q 422 234 478 248 q 310 221 367 221 z "},"ш":{"ha":1224,"x_min":94,"x_max":1130,"o":"m 939 720 l 1130 720 l 1130 0 l 94 0 l 94 720 l 285 720 l 285 151 l 517 151 l 517 720 l 707 720 l 707 151 l 939 151 l 939 720 z "},"щ":{"ha":1270,"x_min":94,"x_max":1253,"o":"m 939 720 l 1130 720 l 1130 151 l 1253 151 l 1253 -237 l 1069 -237 l 1069 0 l 94 0 l 94 720 l 285 720 l 285 151 l 517 151 l 517 720 l 707 720 l 707 151 l 939 151 l 939 720 z "},"ъ":{"ha":800,"x_min":17,"x_max":763,"o":"m 763 222 q 692 57 763 113 q 480 0 621 0 l 196 0 l 196 568 l 17 568 l 17 720 l 387 720 l 387 452 l 481 452 q 692 397 622 452 q 763 222 763 341 m 470 151 q 543 170 518 151 q 568 225 568 189 q 544 282 568 263 q 470 301 521 301 l 387 301 l 387 151 l 470 151 z "},"ы":{"ha":1030,"x_min":94,"x_max":936,"o":"m 641 222 q 570 57 641 113 q 358 0 498 0 l 94 0 l 94 720 l 285 720 l 285 452 l 359 452 q 570 397 500 452 q 641 222 641 341 m 745 0 l 745 720 l 936 720 l 936 0 l 745 0 m 348 151 q 421 170 396 151 q 446 225 446 189 q 422 282 446 263 q 348 301 399 301 l 285 301 l 285 151 l 348 151 z "},"ь":{"ha":698,"x_min":94,"x_max":661,"o":"m 661 222 q 590 57 661 113 q 378 0 519 0 l 94 0 l 94 720 l 285 720 l 285 452 l 380 452 q 591 397 520 452 q 661 222 661 341 m 368 151 q 441 170 416 151 q 466 225 466 189 q 443 282 466 263 q 368 301 419 301 l 285 301 l 285 151 l 368 151 z "},"э":{"ha":764,"x_min":44,"x_max":717,"o":"m 370 736 q 559 689 481 736 q 677 557 637 642 q 717 360 717 472 q 678 166 717 252 q 563 32 640 81 q 375 -17 486 -17 q 156 47 239 -17 q 44 244 74 111 l 231 277 q 277 172 242 210 q 366 134 313 134 q 467 177 429 134 q 517 293 505 220 l 298 293 l 298 444 l 514 444 q 463 548 500 511 q 369 585 427 585 q 285 555 318 585 q 241 470 252 526 l 54 504 q 165 679 84 622 q 370 736 247 736 z "},"ю":{"ha":1123,"x_min":94,"x_max":1076,"o":"m 394 293 l 285 293 l 285 0 l 94 0 l 94 720 l 285 720 l 285 444 l 396 444 q 453 596 410 530 q 567 699 496 662 q 729 736 637 736 q 915 687 837 736 q 1035 554 994 639 q 1076 363 1076 470 q 1035 166 1076 252 q 916 32 994 80 q 730 -17 838 -17 q 563 22 635 -17 q 449 130 492 60 q 394 293 406 200 m 728 581 q 653 554 686 581 q 600 477 619 528 q 581 359 581 427 q 599 242 581 292 q 651 166 617 193 q 729 139 684 139 q 809 165 774 139 q 862 242 843 192 q 880 361 880 292 q 862 476 880 427 q 810 553 844 526 q 728 581 775 581 z "},"я":{"ha":740,"x_min":15,"x_max":646,"o":"m 345 199 l 227 0 l 15 0 l 156 229 q 227 298 186 277 q 111 376 146 323 q 75 500 75 430 q 148 663 75 607 q 361 720 221 720 l 646 720 l 646 0 l 455 0 l 455 267 l 429 267 q 389 253 409 267 q 345 199 368 239 m 372 568 q 297 549 323 568 q 271 494 271 530 q 296 435 271 456 q 372 413 321 413 l 455 413 l 455 568 l 372 568 z "},"ѐ":{"ha":794,"x_min":47,"x_max":747,"o":"m 394 129 q 493 156 454 129 q 547 229 532 184 l 737 199 q 614 39 699 94 q 404 -17 528 -17 q 208 29 288 -17 q 87 159 127 75 q 47 355 47 243 q 89 546 47 459 q 211 684 131 633 q 401 736 291 736 q 584 691 507 736 q 705 561 662 647 q 747 354 747 475 l 747 296 l 241 296 q 288 172 248 216 q 394 129 328 129 m 242 435 l 557 435 q 510 550 551 510 q 402 590 469 590 q 294 549 338 590 q 242 435 250 508 m 366 811 l 180 1011 l 393 1011 l 488 811 l 366 811 z "},"ё":{"ha":794,"x_min":47,"x_max":747,"o":"m 394 129 q 493 156 454 129 q 547 229 532 184 l 737 199 q 614 39 699 94 q 404 -17 528 -17 q 208 29 288 -17 q 87 159 127 75 q 47 355 47 243 q 89 546 47 459 q 211 684 131 633 q 401 736 291 736 q 584 691 507 736 q 705 561 662 647 q 747 354 747 475 l 747 296 l 241 296 q 288 172 248 216 q 394 129 328 129 m 242 435 l 557 435 q 510 550 551 510 q 402 590 469 590 q 294 549 338 590 q 242 435 250 508 m 155 831 l 155 994 l 319 994 l 319 831 l 155 831 m 448 831 l 448 994 l 612 994 l 612 831 l 448 831 z "},"ђ":{"ha":827,"x_min":0,"x_max":736,"o":"m 519 -292 q 453 -286 490 -292 q 386 -271 416 -279 l 416 -118 q 467 -123 445 -123 q 515 -112 498 -123 q 539 -78 532 -100 q 545 -19 545 -56 l 545 450 q 519 555 545 521 q 433 590 492 590 q 387 582 412 590 q 343 557 362 573 q 311 522 323 541 q 292 473 298 503 q 285 399 285 444 l 285 0 l 94 0 l 94 798 l 0 798 l 0 924 l 94 924 l 94 994 l 285 994 l 285 924 l 484 924 l 484 798 l 285 798 l 285 640 q 378 712 323 688 q 491 736 432 736 q 673 672 610 736 q 736 494 736 609 l 736 -18 q 711 -180 736 -119 q 639 -266 686 -240 q 519 -292 591 -292 z "},"ѓ":{"ha":583,"x_min":94,"x_max":566,"o":"m 566 720 l 566 568 l 285 568 l 285 0 l 94 0 l 94 720 l 566 720 m 233 811 l 328 1011 l 540 1011 l 354 811 l 233 811 z "},"є":{"ha":764,"x_min":47,"x_max":720,"o":"m 395 585 q 301 548 338 585 q 250 444 264 511 l 467 444 l 467 293 l 248 293 q 297 177 259 220 q 399 134 335 134 q 487 172 452 134 q 533 277 522 210 l 720 244 q 608 47 690 111 q 389 -17 526 -17 q 202 32 279 -17 q 86 166 125 81 q 47 360 47 252 q 87 557 47 472 q 205 689 127 642 q 394 736 283 736 q 599 679 517 736 q 710 504 680 622 l 524 470 q 479 555 512 526 q 395 585 446 585 z "},"ѕ":{"ha":711,"x_min":41,"x_max":667,"o":"m 347 600 q 273 584 301 600 q 245 541 245 568 q 259 505 245 519 q 306 478 272 490 q 399 456 339 467 q 602 379 536 433 q 667 225 667 324 q 630 101 667 156 q 525 14 593 45 q 363 -17 456 -17 q 140 40 221 -17 q 41 205 58 96 l 220 234 q 266 148 232 177 q 363 119 300 119 q 450 140 417 119 q 482 196 482 160 q 471 230 482 216 q 431 254 460 243 q 348 273 402 265 q 130 357 198 296 q 62 520 62 418 q 97 635 62 586 q 196 710 132 684 q 350 736 261 736 q 553 686 476 736 q 647 543 631 635 l 465 517 q 426 578 457 557 q 347 600 394 600 z "},"і":{"ha":379,"x_min":94,"x_max":285,"o":"m 94 818 l 94 994 l 285 994 l 285 818 l 94 818 m 94 0 l 94 720 l 285 720 l 285 0 l 94 0 z "},"ї":{"ha":379,"x_min":-39,"x_max":418,"o":"m 94 0 l 94 720 l 285 720 l 285 0 l 94 0 m -39 831 l -39 994 l 125 994 l 125 831 l -39 831 m 254 831 l 254 994 l 418 994 l 418 831 l 254 831 z "},"ј":{"ha":381,"x_min":-63,"x_max":287,"o":"m 96 818 l 96 994 l 287 994 l 287 818 l 96 818 m 71 -292 q 4 -286 41 -292 q -63 -271 -33 -279 l -33 -118 q 18 -123 -4 -123 q 66 -112 50 -123 q 90 -78 83 -100 q 96 -19 96 -56 l 96 720 l 287 720 l 287 -18 q 262 -180 287 -119 q 190 -266 237 -240 q 71 -292 142 -292 z "},"љ":{"ha":1098,"x_min":-11,"x_max":1061,"o":"m 1061 222 q 990 57 1061 113 q 779 0 919 0 l 515 0 l 515 568 l 326 568 l 326 235 q 272 42 326 101 q 109 -16 218 -16 q 50 -12 82 -16 q -11 1 18 -7 l 21 152 q 56 145 43 145 q 119 168 102 145 q 135 239 135 191 l 135 720 l 705 720 l 705 452 l 780 452 q 991 397 920 452 q 1061 222 1061 341 m 768 151 q 841 170 817 151 q 866 225 866 189 q 843 282 866 263 q 768 301 819 301 l 705 301 l 705 151 l 768 151 z "},"њ":{"ha":1071,"x_min":94,"x_max":1034,"o":"m 1034 222 q 963 57 1034 113 q 751 0 892 0 l 488 0 l 488 301 l 285 301 l 285 0 l 94 0 l 94 720 l 285 720 l 285 452 l 488 452 l 488 720 l 678 720 l 678 452 l 753 452 q 964 397 893 452 q 1034 222 1034 341 m 741 151 q 814 170 789 151 q 839 225 839 189 q 815 282 839 263 q 741 301 792 301 l 678 301 l 678 151 l 741 151 z "},"ћ":{"ha":827,"x_min":0,"x_max":736,"o":"m 484 924 l 484 798 l 285 798 l 285 640 q 378 712 323 688 q 491 736 432 736 q 673 672 610 736 q 736 494 736 609 l 736 0 l 545 0 l 545 450 q 519 554 545 519 q 433 590 494 590 q 388 582 412 590 q 343 557 363 574 q 311 521 323 540 q 292 473 298 502 q 285 399 285 444 l 285 0 l 94 0 l 94 798 l 0 798 l 0 924 l 94 924 l 94 994 l 285 994 l 285 924 l 484 924 z "},"ќ":{"ha":734,"x_min":94,"x_max":720,"o":"m 285 442 q 316 446 304 442 q 340 459 329 450 q 381 521 362 479 l 418 596 q 464 672 442 647 q 520 709 486 698 q 612 720 553 720 l 679 720 l 679 574 l 646 574 q 604 564 618 574 q 576 524 589 553 l 547 459 q 509 404 530 423 q 454 371 487 384 q 520 339 495 362 q 571 268 545 315 l 720 0 l 507 0 l 389 229 q 343 283 368 270 q 285 296 319 296 l 285 0 l 94 0 l 94 720 l 285 720 l 285 442 m 302 811 l 397 1011 l 609 1011 l 423 811 l 302 811 z "},"ѝ":{"ha":819,"x_min":94,"x_max":725,"o":"m 285 326 l 531 720 l 725 720 l 725 0 l 534 0 l 534 394 l 288 0 l 94 0 l 94 720 l 285 720 l 285 326 m 387 811 l 201 1011 l 414 1011 l 509 811 l 387 811 z "},"ў":{"ha":772,"x_min":12,"x_max":753,"o":"m 386 208 l 389 208 q 417 305 410 283 l 555 720 l 753 720 l 476 -21 q 353 -240 412 -190 q 184 -292 293 -292 q 53 -273 134 -292 l 85 -127 q 152 -140 127 -140 q 209 -130 186 -140 q 249 -89 231 -119 q 288 -1 267 -60 l 12 720 l 215 720 l 355 310 q 386 208 368 273 m 386 905 q 456 932 433 905 q 486 1011 480 960 l 614 1011 q 544 859 604 913 q 386 806 483 806 q 228 857 287 806 q 158 1011 168 909 l 286 1011 q 316 933 289 961 q 386 905 343 905 z "},"џ":{"ha":819,"x_min":94,"x_max":725,"o":"m 285 720 l 285 151 l 534 151 l 534 720 l 725 720 l 725 0 l 502 0 l 502 -237 l 317 -237 l 317 0 l 94 0 l 94 720 l 285 720 z "},"Ґ":{"ha":749,"x_min":104,"x_max":715,"o":"m 104 0 l 104 994 l 522 994 l 522 1270 l 715 1270 l 715 826 l 304 826 l 304 0 l 104 0 z "},"ґ":{"ha":583,"x_min":94,"x_max":559,"o":"m 559 994 l 559 568 l 285 568 l 285 0 l 94 0 l 94 720 l 374 720 l 374 994 l 559 994 z "},"Ғ":{"ha":749,"x_min":-2,"x_max":715,"o":"m 104 556 l 104 994 l 715 994 l 715 826 l 304 826 l 304 556 l 511 556 l 511 388 l 304 388 l 304 0 l 104 0 l 104 388 l -2 388 l -2 556 l 104 556 z "},"ғ":{"ha":583,"x_min":1,"x_max":566,"o":"m 94 403 l 94 720 l 566 720 l 566 568 l 285 568 l 285 403 l 437 403 l 437 252 l 285 252 l 285 0 l 94 0 l 94 252 l 1 252 l 1 403 l 94 403 z "},"Җ":{"ha":1416,"x_min":8,"x_max":1400,"o":"m 382 299 l 373 280 l 241 0 l 8 0 l 181 342 q 238 439 213 406 q 287 489 263 473 q 345 515 310 505 l 345 518 q 268 561 299 529 q 212 654 237 593 l 163 771 q 135 813 152 800 q 85 826 117 826 l 37 826 l 37 994 l 132 994 q 267 955 216 994 q 348 842 317 915 l 395 729 q 434 659 414 683 q 484 626 454 635 q 562 617 513 617 l 593 617 l 593 994 l 786 994 l 786 617 l 817 617 q 895 626 865 617 q 945 659 924 635 q 984 729 965 683 l 1031 842 q 1112 955 1061 915 q 1246 994 1163 994 l 1341 994 l 1341 826 l 1293 826 q 1244 813 1261 826 q 1215 771 1227 800 l 1166 654 q 1111 561 1141 593 q 1034 518 1080 529 l 1034 515 q 1092 489 1069 505 q 1141 439 1116 473 q 1198 342 1166 406 l 1286 168 l 1400 168 l 1400 -275 l 1206 -275 l 1206 0 l 1137 0 l 1006 280 l 997 299 q 955 379 974 349 q 905 429 937 408 q 826 449 873 449 l 786 449 l 786 0 l 593 0 l 593 449 l 553 449 q 474 429 505 449 q 424 379 442 408 q 382 299 405 349 z "},"җ":{"ha":1074,"x_min":15,"x_max":1059,"o":"m 338 229 l 227 0 l 15 0 l 157 268 q 207 338 181 315 q 274 371 233 362 q 219 404 241 384 q 181 459 197 423 l 152 524 q 124 564 138 553 q 81 574 110 574 l 49 574 l 49 720 l 116 720 q 208 709 174 720 q 263 672 241 698 q 310 596 286 647 l 347 521 q 384 464 363 485 q 433 442 404 442 l 433 720 l 617 720 l 617 442 q 666 464 646 442 q 703 521 686 485 l 740 596 q 786 672 764 647 q 842 709 808 698 q 934 720 876 720 l 1001 720 l 1001 574 l 968 574 q 926 564 940 574 q 898 524 911 553 l 869 459 q 831 404 852 423 q 776 371 809 384 q 843 338 817 362 q 893 268 869 315 l 955 151 l 1059 151 l 1059 -237 l 874 -237 l 874 0 l 823 0 l 711 229 q 683 273 697 258 q 654 292 669 288 q 617 296 640 296 l 617 0 l 433 0 l 433 296 q 395 292 410 296 q 367 273 380 288 q 338 229 353 258 z "},"Қ":{"ha":948,"x_min":104,"x_max":932,"o":"m 730 342 l 818 168 l 932 168 l 932 -275 l 739 -275 l 739 0 l 669 0 l 538 280 l 529 299 q 487 379 506 349 q 437 429 469 408 q 358 449 406 449 l 304 449 l 304 0 l 104 0 l 104 994 l 304 994 l 304 617 l 349 617 q 427 626 397 617 q 477 659 456 635 q 516 729 497 683 l 563 842 q 644 955 593 915 q 779 994 695 994 l 873 994 l 873 826 l 825 826 q 776 813 793 826 q 747 771 759 800 l 699 654 q 643 561 673 593 q 566 518 612 529 l 566 515 q 624 489 601 505 q 673 439 648 473 q 730 342 698 406 z "},"қ":{"ha":754,"x_min":94,"x_max":739,"o":"m 285 442 q 316 446 304 442 q 340 459 329 450 q 381 521 362 479 l 418 596 q 464 672 442 647 q 520 709 486 698 q 612 720 553 720 l 679 720 l 679 574 l 646 574 q 604 564 618 574 q 576 524 589 553 l 547 459 q 509 404 530 423 q 454 371 487 384 q 520 339 495 362 q 571 268 545 315 l 635 151 l 739 151 l 739 -237 l 555 -237 l 555 0 l 507 0 l 389 229 q 343 283 368 270 q 285 296 319 296 l 285 0 l 94 0 l 94 720 l 285 720 l 285 442 z "},"Ұ":{"ha":909,"x_min":-3,"x_max":912,"o":"m 456 585 l 459 585 q 532 726 486 643 l 682 994 l 912 994 l 612 509 l 814 509 l 814 370 l 554 370 l 554 0 l 354 0 l 354 370 l 94 370 l 94 509 l 297 509 l -3 994 l 231 994 l 383 726 q 456 585 427 649 z "},"ұ":{"ha":762,"x_min":14,"x_max":749,"o":"m 383 235 l 553 720 l 749 720 l 518 126 l 691 126 l 691 0 l 478 0 l 478 -275 l 288 -275 l 288 0 l 75 0 l 75 126 l 247 126 l 14 720 l 214 720 l 380 235 l 383 235 z "},"Ҳ":{"ha":955,"x_min":3,"x_max":939,"o":"m 469 661 l 471 661 q 521 758 492 711 l 665 994 l 898 994 l 588 511 l 817 168 l 939 168 l 939 -275 l 745 -275 l 745 0 l 687 0 l 522 256 q 467 357 494 298 l 465 357 q 410 256 439 301 l 245 0 l 3 0 l 344 519 l 35 994 l 270 994 l 415 763 q 469 661 443 718 z "},"ҳ":{"ha":772,"x_min":16,"x_max":757,"o":"m 376 512 l 378 512 l 390 533 q 441 621 428 600 l 505 720 l 725 720 l 491 379 l 645 151 l 757 151 l 757 -237 l 572 -237 l 572 0 l 517 0 l 430 140 q 378 234 395 195 l 376 234 q 321 136 359 195 l 235 0 l 16 0 l 266 371 l 28 720 l 258 720 l 317 622 q 376 512 340 583 z "},"Ҷ":{"ha":1017,"x_min":81,"x_max":996,"o":"m 406 342 q 160 422 239 342 q 81 665 81 503 l 81 994 l 281 994 l 281 677 q 296 584 281 619 q 345 532 311 549 q 438 515 379 515 q 652 545 558 515 l 652 994 l 852 994 l 852 168 l 996 168 l 996 -275 l 802 -275 l 802 0 l 652 0 l 652 381 q 406 342 542 342 z "},"ҷ":{"ha":846,"x_min":65,"x_max":830,"o":"m 646 -237 l 646 0 l 516 0 l 516 270 q 422 234 478 248 q 310 221 367 221 q 128 284 191 221 q 65 463 65 348 l 65 720 l 256 720 l 256 490 q 282 396 256 425 q 368 367 309 367 q 445 377 404 367 q 516 409 486 388 l 516 720 l 707 720 l 707 151 l 830 151 l 830 -237 l 646 -237 z "},"Ԛ":{"ha":1090,"x_min":60,"x_max":1067,"o":"m 60 492 q 119 767 60 649 q 288 948 178 884 q 545 1011 398 1011 q 802 947 692 1011 q 971 767 911 884 q 1031 496 1031 650 q 998 290 1031 384 q 903 128 965 196 q 982 77 943 98 q 1067 41 1021 56 l 992 -100 q 878 -48 938 -83 q 769 29 819 -13 q 547 -17 671 -17 q 289 47 399 -17 q 119 227 178 111 q 60 492 60 342 m 545 839 q 396 795 459 839 q 300 674 334 751 q 267 497 267 597 q 300 320 267 397 q 395 199 332 243 q 546 155 458 155 q 622 165 585 155 q 564 198 598 180 q 500 227 530 215 l 555 349 q 746 246 647 317 q 804 357 784 292 q 823 500 823 421 q 790 674 823 597 q 695 795 758 751 q 545 839 632 839 z "},"ԛ":{"ha":850,"x_min":47,"x_max":755,"o":"m 578 720 l 755 720 l 755 -275 l 565 -275 l 565 79 l 562 79 q 468 6 519 30 q 353 -17 416 -17 q 195 27 264 -17 q 86 155 125 71 q 47 353 47 239 q 87 555 47 468 q 195 689 126 642 q 351 736 264 736 q 473 706 416 736 q 574 614 530 677 l 575 614 l 578 614 l 578 720 m 395 585 q 315 558 349 585 q 262 481 281 532 q 243 361 243 431 q 284 190 243 251 q 403 129 325 129 q 489 155 452 129 q 546 229 526 180 q 566 344 566 277 q 544 481 566 427 q 483 560 521 535 q 395 585 444 585 z "},"Ԝ":{"ha":1303,"x_min":5,"x_max":1297,"o":"m 357 288 l 360 288 q 389 427 370 353 l 536 994 l 775 994 l 917 424 q 947 277 932 363 l 949 277 q 975 425 962 358 l 1092 994 l 1297 994 l 1059 0 l 846 0 l 677 645 q 652 771 661 708 l 649 771 q 625 649 638 700 l 458 0 l 239 0 l 5 994 l 214 994 l 333 428 q 357 288 347 363 z "},"ԝ":{"ha":1093,"x_min":16,"x_max":1076,"o":"m 319 290 q 332 235 328 248 l 334 235 q 364 370 351 317 l 454 720 l 639 720 l 728 364 q 755 235 743 306 l 758 235 q 789 363 769 292 l 886 720 l 1076 720 l 852 0 l 669 0 l 573 366 q 547 484 557 424 l 545 484 q 519 366 534 425 l 423 0 l 239 0 l 16 720 l 207 720 l 300 368 q 319 290 307 340 z "},"֏":{"ha":789,"x_min":81,"x_max":763,"o":"m 241 499 q 122 586 163 528 q 81 730 81 644 q 159 925 81 849 q 372 1001 238 1001 q 587 929 515 1001 q 658 720 658 858 l 658 479 l 763 479 l 763 328 l 658 328 l 658 0 l 467 0 l 467 328 l 328 328 l 328 479 l 467 479 l 467 696 q 444 809 467 778 q 364 840 420 840 q 293 812 319 840 q 266 739 266 785 q 276 689 266 708 q 307 657 286 670 l 241 499 z "},"؋":{"ha":867,"x_min":33,"x_max":810,"o":"m 165 298 q 505 336 393 300 q 617 457 617 372 q 608 502 617 483 q 548 442 584 462 q 465 422 511 422 q 339 478 385 422 q 294 610 294 534 q 359 758 294 692 q 539 824 425 824 q 733 737 657 824 q 810 524 810 650 q 650 234 810 323 q 165 140 490 144 l 165 298 m 521 -212 q 493 -62 511 -139 q 452 90 475 15 l 621 139 q 673 -28 654 59 q 696 -180 692 -115 l 521 -212 m 465 621 q 476 585 465 600 q 510 570 486 570 q 551 584 531 570 q 582 629 572 598 q 556 659 572 648 q 521 670 541 670 q 481 656 497 670 q 465 621 465 643 m 142 906 q 220 874 188 906 q 252 796 252 842 q 220 719 252 751 q 142 686 189 686 q 64 719 96 686 q 33 796 33 751 q 65 874 33 842 q 142 906 96 906 z "},"৲":{"ha":718,"x_min":40,"x_max":694,"o":"m 578 159 q 309 458 448 319 q 40 696 170 598 l 218 867 q 476 585 357 743 q 694 239 595 427 l 578 159 z "},"৳":{"ha":1128,"x_min":18,"x_max":1074,"o":"m 258 726 l 345 726 l 345 772 q 329 831 345 810 q 275 852 313 852 q 214 822 235 852 q 193 731 193 791 l 18 731 q 82 917 18 851 q 279 983 145 983 q 465 932 403 983 q 528 770 528 882 l 528 726 l 967 726 l 967 583 l 528 583 l 528 245 q 570 103 528 153 q 706 52 613 52 q 840 94 797 52 q 884 218 884 136 q 863 301 884 275 q 804 328 843 328 q 765 316 779 328 q 752 287 752 304 q 766 259 752 271 q 806 248 781 248 l 806 124 q 652 163 702 124 q 602 289 602 203 q 661 416 602 366 q 821 466 720 466 q 1002 400 931 466 q 1074 216 1074 334 q 976 -5 1074 79 q 710 -90 878 -90 q 436 -8 528 -90 q 345 241 345 73 l 345 583 l 258 583 l 258 726 z "},"૱":{"ha":1227,"x_min":9,"x_max":1186,"o":"m 115 956 q 201 982 144 969 q 335 996 258 996 q 535 939 468 996 q 602 776 602 883 q 573 653 602 703 q 475 569 544 604 q 583 475 549 534 q 616 325 616 416 q 554 140 616 219 q 392 40 491 62 q 460 -30 422 3 q 549 -99 498 -63 l 425 -243 q 258 -115 330 -182 q 149 15 186 -48 q 72 82 118 30 q 9 177 25 134 l 117 279 q 190 238 155 264 q 264 170 224 212 q 379 210 338 170 q 419 328 419 250 q 375 446 419 405 q 250 487 332 487 l 250 644 q 367 671 324 644 q 410 747 410 699 q 380 817 410 795 q 293 838 351 838 q 199 827 252 838 q 115 801 147 817 l 115 956 m 935 -5 q 747 59 810 -5 q 685 250 685 123 q 755 431 685 359 q 935 503 825 503 q 1121 435 1055 503 q 1186 250 1186 368 q 1120 62 1186 129 q 935 -5 1055 -5 m 1008 250 q 988 332 1008 307 q 935 357 967 357 q 887 331 911 357 q 864 248 864 304 q 935 140 864 140 q 989 164 970 140 q 1008 250 1008 189 z "}}}
